<svg xmlns="http://www.w3.org/2000/svg" viewBox="0 0 37.87 47.96"><defs><style>.cls-1{fill:#6f4e25;}.cls-1,.cls-10,.cls-11,.cls-12,.cls-13,.cls-2,.cls-3,.cls-4,.cls-5,.cls-6,.cls-7,.cls-8,.cls-9{fill-rule:evenodd;}.cls-2{fill:#4a311c;}.cls-3{fill:#0d131a;}.cls-4{fill:#dcdbd6;}.cls-5{fill:#b4b4b0;}.cls-6{fill:#dbdcdc;}.cls-7{fill:#eeeeef;}.cls-8{fill:#c8c9ca;}.cls-9{fill:#3396cd;}.cls-10{fill:#2880ae;}.cls-11{fill:#fff;}.cls-12{fill:#f0e9a5;}.cls-13{fill:#c9c48b;}</style></defs><title>Asset 92@</title><g id="Layer_2" data-name="Layer 2"><g id="Layer_1-2" data-name="Layer 1"><path class="cls-1" d="M26.33,9.7a17.28,17.28,0,0,1,5,4.55,14.4,14.4,0,0,1,2.66,6.44q-8.23.24-16.32-.13Q1.43,19.83,2.17,16.75q.84-3.57,7-6.63a33.4,33.4,0,0,1,5.93-2.34,10.1,10.1,0,0,1,5.42-.36A16.39,16.39,0,0,1,26.33,9.7Z"/><path class="cls-2" d="M19.26,7.24l1.48.16a12.08,12.08,0,0,0-3.5,2,19,19,0,0,0-2.56,2.54c-.39-.45-.87-.95-1.44-1.51L11.7,9a22.29,22.29,0,0,1,5.84-1.71,9.87,9.87,0,0,1,1.72,0Z"/><path class="cls-2" d="M31.71,14.88a14.48,14.48,0,0,1,2.23,5.81c-1.27,0-2.87.06-4.8.07a20.86,20.86,0,0,0,2.57-5.88Z"/><path class="cls-1" d="M14.87,7a11,11,0,0,1,.56,2L13,15.7l-7.64-.79a15.55,15.55,0,0,1-1.33-2A11.06,11.06,0,0,1,2.81,10.5Q2.65,9.6,8,7A18.12,18.12,0,0,1,11.68,5.6a10.18,10.18,0,0,1,2.05-.33q.51,0,1.14,1.77Z"/><path class="cls-2" d="M14.87,7a11,11,0,0,1,.56,2l-1.7,4.61a51.78,51.78,0,0,0-3.54-4.24C8.72,7.78,8,7,8,7A18.12,18.12,0,0,1,11.68,5.6a10.18,10.18,0,0,1,2.05-.33q.51,0,1.14,1.77Z"/><path class="cls-1" d="M31.47,11.14a22.57,22.57,0,0,1,2.87,2.72c.79.9,1.12,1.5,1,1.81a9.86,9.86,0,0,1-1.82,1.89,17.43,17.43,0,0,1-1.85,1.55l-8.22-5L25,10.15A5.61,5.61,0,0,1,25.61,9c.39-.6.7-.87.93-.82A10,10,0,0,1,28.37,9a19.21,19.21,0,0,1,3.1,2.1Z"/><path class="cls-2" d="M34.43,14q1.08,1.27.9,1.71a5.28,5.28,0,0,1-.79.92l-1.3,1.25-1.32-.29a9.45,9.45,0,0,0-1.79-.18A11.59,11.59,0,0,0,31.33,14a12.77,12.77,0,0,0,.42-2.58A23.25,23.25,0,0,1,34.43,14Z"/><path class="cls-3" d="M13.44,7.36A6.62,6.62,0,0,1,14,8.66l.18.52a7.47,7.47,0,0,1,.3,1.22,3,3,0,0,1-.65,2.77c-.62.57-2,1-4,1.24a28.2,28.2,0,0,1-2.91.22A16.22,16.22,0,0,1,5.4,12.56a5,5,0,0,1-1-2c0-.26,1.27-1,3.69-2.12a19.92,19.92,0,0,1,4.64-1.82q.27,0,.66.69Z"/><path class="cls-3" d="M26.92,9.81a28.32,28.32,0,0,1,3.65,2.71q3.2,2.57,3.16,2.91c0,.23-.47.77-1.34,1.64a16.25,16.25,0,0,1-1.84,1.64l-5.61-5.43a20.91,20.91,0,0,1,.86-2.1c.47-1,.85-1.46,1.12-1.37Z"/><path class="cls-4" d="M27.22,12.21a3.94,3.94,0,0,1,3,1.28,5.77,5.77,0,0,1,.91,1.14,2.28,2.28,0,0,1,.37.94,2.22,2.22,0,0,1-.31,1.48,2.26,2.26,0,0,1-1.61,1L26,16.28,25.29,14a2.45,2.45,0,0,1,.44-1,2,2,0,0,1,1.49-.74Z"/><path class="cls-5" d="M31.47,15.57a2.22,2.22,0,0,1-.31,1.48,2.26,2.26,0,0,1-1.61,1l-1.22-.6,1.06-4.55,1,1.08a4.12,4.12,0,0,1,1.06,1.6Z"/><path class="cls-4" d="M27.21,16.47a2.59,2.59,0,0,1-1.12-1.66,1.5,1.5,0,0,1,.52-1.46,1.78,1.78,0,0,1,1-.46l3,2.64a1.25,1.25,0,0,1-.46,1.25,1.77,1.77,0,0,1-1.28.37,3.33,3.33,0,0,1-1.62-.68Z"/><path class="cls-5" d="M30.57,15.53a1.25,1.25,0,0,1-.46,1.25,1.77,1.77,0,0,1-1.28.37l-.45-.1.21-1.91L28.7,14l1.87,1.54Z"/><path class="cls-4" d="M37.63,9.52a4.32,4.32,0,0,1-.51,1.53,3.46,3.46,0,0,1-.9,1.08c-.59.45-1.49,1.07-2.68,1.85s-1.88,1.21-2.33,1.46a2.3,2.3,0,0,1-1.38.27,3.8,3.8,0,0,1-1.58-.49,2.21,2.21,0,0,1-1.05-1.31,2.32,2.32,0,0,1,0-1.47q.22-.67,1.23-2.91a22.38,22.38,0,0,1,1.33-2.74A4.21,4.21,0,0,1,31,5.68a5.32,5.32,0,0,1,1.72-.63,3.92,3.92,0,0,1,3.58,1,4,4,0,0,1,1.36,3.49Z"/><path class="cls-5" d="M32.49,13a4.29,4.29,0,0,0,3-.31c-.69.49-1.5,1-2.43,1.64l-1.86,1.15a2.3,2.3,0,0,1-1.38.27,3.8,3.8,0,0,1-1.58-.49,16.92,16.92,0,0,1,1.15-1.4l1.27-1.47.14-.14c.06,0,.14,0,.25.12a3.36,3.36,0,0,0,1.43.63Z"/><path class="cls-4" d="M9.3,9.17a4.69,4.69,0,0,1,3.64-.09l.69,3.28L8.46,14.84a2.36,2.36,0,0,1-1.39-1.42,3.12,3.12,0,0,1,0-1.61A3.64,3.64,0,0,1,9.3,9.17Z"/><path class="cls-5" d="M9.94,8.94a4.89,4.89,0,0,1,3,.14l.69,3.28c-.83-.13-1.7-.3-2.61-.52a8.28,8.28,0,0,1-3.41-1.3,4,4,0,0,1,2.33-1.6Z"/><path class="cls-4" d="M12.33,10.37a1.82,1.82,0,0,1,0,1.63A2.58,2.58,0,0,1,11,13.38a2.92,2.92,0,0,1-1.62.25,2,2,0,0,1-1.34-.84,1.48,1.48,0,0,1-.31-1.56l3.85-1.55a1.44,1.44,0,0,1,.72.69Z"/><path class="cls-5" d="M11.61,9.68a1.44,1.44,0,0,1,.72.69,1.82,1.82,0,0,1,0,1.63A2.52,2.52,0,0,1,11,13.38l-.85-1.12-.4-.5,1.83-2.08Z"/><path class="cls-4" d="M11.62,11.13a2.31,2.31,0,0,1-1.35,1,4.52,4.52,0,0,1-1.75.16,2.37,2.37,0,0,1-1.36-.6c-.48-.43-1.09-1-1.85-1.81Q3.9,8.49,3.18,7.6a4,4,0,0,1-.71-1.4,5.57,5.57,0,0,1-.2-1.86A4.18,4.18,0,0,1,4.43.84,4.32,4.32,0,0,1,8.27.47a5,5,0,0,1,2.81,2.59,14.93,14.93,0,0,1,.63,3,23.76,23.76,0,0,1,.34,3.58,2.92,2.92,0,0,1-.43,1.45Z"/><path class="cls-5" d="M11.86,7.18a18.49,18.49,0,0,1,.19,2.5,2.92,2.92,0,0,1-.43,1.45,2.31,2.31,0,0,1-1.35,1l-.24.1a.09.09,0,0,1-.13,0c-.92-1.64-1.45-2.62-1.6-3a2,2,0,0,1-.15-.4c0-.07.06-.12.2-.16a4.35,4.35,0,0,0,2.32-1.63,4,4,0,0,0,.72-2.85c.17.87.33,1.85.47,2.94Z"/><path class="cls-6" d="M20.9,41c.27-.05.56.15.89.6a2.69,2.69,0,0,1,.54,1.33c-.18.22-.78.26-1.8.1a3.77,3.77,0,0,1-1.67-.47c-.11-.14.11-.42.66-.83A3.44,3.44,0,0,1,20.9,41Z"/><path class="cls-7" d="M22.66,11a14.32,14.32,0,0,1,2.42,2.36,30.22,30.22,0,0,0,2.09,2.25,10.46,10.46,0,0,0,2.52,1.87,14,14,0,0,1,4.45,3.1,3.49,3.49,0,0,1,.53,4l-32.36-.5a2.61,2.61,0,0,1-.81-.76,6.68,6.68,0,0,1-.82-1.41A4.57,4.57,0,0,1,.39,18.4a5.34,5.34,0,0,1,2-2.38,7.76,7.76,0,0,1,3.75-1.4l1.29-.1a7.86,7.86,0,0,0,1.2-.2,6.11,6.11,0,0,0,2.59-1.63,11.94,11.94,0,0,1,3.57-2.5,8.34,8.34,0,0,1,3.88-.63,7.68,7.68,0,0,1,4,1.42Z"/><path class="cls-8" d="M.39,18.4l.09-.21A5.17,5.17,0,0,0,3.05,22.6a10,10,0,0,0,2.61,1c.81.2,1.92.4,3.34.61l-6.69-.1a2.61,2.61,0,0,1-.81-.76,6.68,6.68,0,0,1-.82-1.41A4.57,4.57,0,0,1,.39,18.4Z"/><path class="cls-8" d="M18.66,9.56a7.68,7.68,0,0,1,4,1.42,14.32,14.32,0,0,1,2.42,2.36c.46.54.94,1.06,1.42,1.57a18.57,18.57,0,0,0,1.74,1.66,7.43,7.43,0,0,0-3.78,3,20.65,20.65,0,0,0-2.55,4.81L19,24.34a12.64,12.64,0,0,0-2.79-7.46,11.65,11.65,0,0,0-2.61-2.47,7,7,0,0,0-2.81-1.2,12.26,12.26,0,0,1,3.81-2.69,8.53,8.53,0,0,1,4.09-1Z"/><path class="cls-8" d="M31.86,18.66a8.07,8.07,0,0,1,2.8,2.64,3.43,3.43,0,0,1,0,3.29L31.5,23.43a3.42,3.42,0,0,0,1-1.35,3.28,3.28,0,0,0-.62-3.42Z"/><path class="cls-3" d="M23.47,21.32a10,10,0,0,1-5.4.93,9.89,9.89,0,0,1-5.17-1.78A3.89,3.89,0,0,1,11,17a3.92,3.92,0,0,1,2.45-3.11A10,10,0,0,1,18.81,13,9.93,9.93,0,0,1,24,14.76a3.89,3.89,0,0,1,1.93,3.45,3.89,3.89,0,0,1-2.45,3.11Z"/><path class="cls-9" d="M20.44,40.23a2.79,2.79,0,0,1,1.7-.77,14.22,14.22,0,0,1,4.65.71q1.76.45,3.27.93a1.66,1.66,0,0,1-.48,1.52A4.85,4.85,0,0,1,27.88,44a6.6,6.6,0,0,1-3.33.66,6.61,6.61,0,0,1-3.4-1,2.41,2.41,0,0,1-1-1.53,1.68,1.68,0,0,1,0-1.24,1.23,1.23,0,0,1,.32-.57Z"/><path class="cls-10" d="M20.44,40.23a2.79,2.79,0,0,1,1.7-.77,3.47,3.47,0,0,1,.82,0,5.37,5.37,0,0,1,1.38,1.66,4.54,4.54,0,0,0-2.66,0,2.89,2.89,0,0,0-1.42,1.35,3,3,0,0,1-.24-1,1.19,1.19,0,0,1,.1-.67,1.23,1.23,0,0,1,.32-.57Z"/><path class="cls-10" d="M26.13,44.48a7,7,0,0,1-2.26.06c1.13-.76,1.3-1.88.52-3.34l2.78-.13q1.6,0,2.79,0l.1,0a1.66,1.66,0,0,1-.48,1.52A4.85,4.85,0,0,1,27.88,44a6.37,6.37,0,0,1-1.75.53Z"/><path class="cls-8" d="M2.62,33.9a9.47,9.47,0,0,1-1.31-4.64,13.4,13.4,0,0,1,.11-3L4,26.86l.88,7.35L2.62,33.9Z"/><path class="cls-9" d="M31.64,34.13a6.37,6.37,0,0,1,.42,3.54A5.67,5.67,0,0,1,31,40.5a3.28,3.28,0,0,1-1.24.84,7.1,7.1,0,0,1-2.86.58,7,7,0,0,1-4.92-2c.54-1,1.15-2.11,1.85-3.26a16.15,16.15,0,0,1,3.38-4.34,2.59,2.59,0,0,1,2.37-.55,1.76,1.76,0,0,1,.86.55,7.17,7.17,0,0,1,1.19,1.82Z"/><path class="cls-10" d="M30.45,32.31a7.17,7.17,0,0,1,1.19,1.82,6.37,6.37,0,0,1,.42,3.54,6,6,0,0,1-.91,2.74,2.25,2.25,0,0,1-.63.55l-.75.38a6.57,6.57,0,0,1-1.65.56L26.18,42a1.23,1.23,0,0,0,.69-1.15,1.6,1.6,0,0,0-.74-1.11,3.11,3.11,0,0,0-1.63-.58,3.36,3.36,0,0,0-2,.44c.95-1.71,1.72-3,2.3-4a12.48,12.48,0,0,1,2.4-3.24,2.59,2.59,0,0,1,2.37-.55,1.76,1.76,0,0,1,.86.55Z"/><path class="cls-11" d="M21.43,43.52a2.1,2.1,0,0,1,1.49-.41,3.15,3.15,0,0,1,2,1c.24.24,0,.61-.65,1.11a3.14,3.14,0,0,1-1.32.73c-.18,0-.49-.32-.92-1a2.49,2.49,0,0,1-.58-1.45Z"/><path class="cls-6" d="M24.9,44.11c.19.19,0,.53-.56,1a7.11,7.11,0,0,1-1.42,1,4.31,4.31,0,0,0,.68-1.32,4,4,0,0,0,.22-1.42,3.44,3.44,0,0,1,1.08.76Z"/><path class="cls-11" d="M26.68,43.41a3.27,3.27,0,0,1,2.33-.1c.39.14.74.68,1.07,1.63a3.85,3.85,0,0,1,.24,1c0,.3,0,.47-.18.5a5,5,0,0,1-2.63-.71c-1.28-.59-1.94-1.11-2-1.57,0-.08.09-.19.31-.33a3.87,3.87,0,0,1,.84-.42Z"/><path class="cls-6" d="M29,43.31c.33.12.66.57,1,1.36a2.62,2.62,0,0,1,.3,1.61,8.27,8.27,0,0,0-1-1.8A4.33,4.33,0,0,0,28,43.15a2.4,2.4,0,0,1,1,.16Z"/><path class="cls-12" d="M22.64,19.85a5.69,5.69,0,0,0,2.41-1.61A1,1,0,0,1,26.26,18a1.8,1.8,0,0,1,1,.82,3.79,3.79,0,0,1,.33,1.56,10.49,10.49,0,0,1-.05,1.6c0,.25.1,2.18.38,5.77s.18,5.83-.16,6.56a12.8,12.8,0,0,1-2.06,3.11,8.62,8.62,0,0,1-2.64,2.17A17.18,17.18,0,0,1,19,40.92a12.83,12.83,0,0,1-6.3-.3A12.94,12.94,0,0,1,9,39.05a9.51,9.51,0,0,1-4.73-6Q3.35,29.29,6,23.26A36.16,36.16,0,0,1,8.83,18a2.21,2.21,0,0,1,.65-1c.45-.49.82-.72,1.12-.68a2.68,2.68,0,0,1,1.18.8l1.41,1.45a7.36,7.36,0,0,0,2.28,1.32,9.18,9.18,0,0,0,3.56.71,10.21,10.21,0,0,0,3.61-.69Z"/><path class="cls-13" d="M9.56,16.85a1.3,1.3,0,0,1,.43-.11l.59.05a3.45,3.45,0,0,0-.81,1.06,3.83,3.83,0,0,0-.3,1.22,6.19,6.19,0,0,1-.61-1.24,2.9,2.9,0,0,1,.26-.45,5.62,5.62,0,0,1,.44-.53Z"/><path class="cls-13" d="M7.14,32.74a10.31,10.31,0,0,0-2.95.11A8.75,8.75,0,0,1,4,30.63,4.71,4.71,0,0,0,5.53,31a4.6,4.6,0,0,0,1.52-.14c0,.62,0,1.25.09,1.88Z"/><path class="cls-13" d="M21.5,20.91a.58.58,0,0,0-.27-.33,1.87,1.87,0,0,0-.39-.22,9.62,9.62,0,0,0,2.51-.83,5,5,0,0,0,1.7-1.29A1,1,0,0,1,26.26,18a1.8,1.8,0,0,1,1,.82,3.79,3.79,0,0,1,.33,1.56,10.49,10.49,0,0,1-.05,1.6c0,.25.1,2.18.38,5.77s.18,5.83-.16,6.56a12.8,12.8,0,0,1-2.06,3.11,8.62,8.62,0,0,1-2.64,2.17A18.64,18.64,0,0,1,18.84,41a11,11,0,0,1-6.19-.39,11.47,11.47,0,0,1-2-.7,2.84,2.84,0,0,0,1.57-1.05,8.68,8.68,0,0,0,.71-1.19,9.45,9.45,0,0,0,5.16-3.59.6.6,0,0,0,.09-.27l0-.19q.22,0,.27-.06a17.51,17.51,0,0,0,2.61-6.17.79.79,0,0,0,0-.28l0-.18q.19-.09.21-.15a19.86,19.86,0,0,0,.28-5.88Z"/><path class="cls-9" d="M4.76,46.2a3.63,3.63,0,0,1-3.41-1.8Q.06,42.23.92,37.92l11.73-1.26a9.9,9.9,0,0,1,0,4.62c-.35,1.92-.84,3.17-1.48,3.74a5.44,5.44,0,0,1-3.05,1l-3.4.13Z"/><path class="cls-10" d="M8.16,46.07l-3.4.13q2.3-2,0-4.5l7.85-5a9.9,9.9,0,0,1,0,4.62c-.35,1.92-.84,3.17-1.48,3.74a5.44,5.44,0,0,1-3.05,1Z"/><path class="cls-11" d="M12.41,45.16c.08.86,0,1.37-.25,1.53a2.05,2.05,0,0,1-1.42,0A3.92,3.92,0,0,1,9.07,46c-.11-.09-.14-.28-.07-.56a2.11,2.11,0,0,1,.44-.87,2.29,2.29,0,0,1,2.49-.73c.24.06.4.52.48,1.37Z"/><path class="cls-11" d="M1.62,44.87c.07-.43.42-.69,1-.78a11.94,11.94,0,0,1,2.22,0,7.35,7.35,0,0,1,2.5.61q1.18.52,1.14,1.11c0,.41-.77.85-2.24,1.32a10.8,10.8,0,0,1-3.87.61c-.4,0-.66-.37-.79-1a4.86,4.86,0,0,1,0-1.86Z"/><path class="cls-6" d="M12.41,45.16c.08.86,0,1.37-.25,1.53a2.05,2.05,0,0,1-1.42,0A3.92,3.92,0,0,1,9.07,46c-.11-.09-.14-.28-.07-.56a2.11,2.11,0,0,1,.44-.87,2.29,2.29,0,0,1,2.49-.73c.24.06.4.52.48,1.37Z"/><path class="cls-6" d="M6.38,44.38A5,5,0,0,1,7.9,45c.42.27.62.54.6.82s-.72.82-2.11,1.28a11.48,11.48,0,0,1-3.77.66A7.66,7.66,0,0,0,5.3,46.45q1.37-1.06,1.08-2.07Z"/><path class="cls-9" d="M6.16,32l1.37-.12a5.2,5.2,0,0,1,3.88,1.69,5.25,5.25,0,0,1,1.33,3.37,4.64,4.64,0,0,1-1.11,3A5.92,5.92,0,0,1,8.7,42.09a6.66,6.66,0,0,1-2.21.11,23.07,23.07,0,0,1-2.44-.34,3.56,3.56,0,0,1-2.81-2.39,7.48,7.48,0,0,1-.34-3,4.77,4.77,0,0,1,1.17-2.82A4.94,4.94,0,0,1,6.16,32Z"/><path class="cls-10" d="M6.49,42.2a23.07,23.07,0,0,1-2.44-.34,3.59,3.59,0,0,1-2.3-1.41A4,4,0,0,0,4,41a4.41,4.41,0,0,0,2.64-1A7.28,7.28,0,0,0,9,36.54a4.45,4.45,0,0,0-1-4.67,5,5,0,0,1,3.51,1.79,5.35,5.35,0,0,1,1.21,3.23,4.64,4.64,0,0,1-1.11,3A5.92,5.92,0,0,1,8.7,42.09a6.66,6.66,0,0,1-2.21.11Z"/><path class="cls-9" d="M1.12,21.31A4.6,4.6,0,0,1,2,19.2a5.28,5.28,0,0,1,1.88-1.59A6.06,6.06,0,0,1,6.58,17,2.47,2.47,0,0,1,9.3,18.85a4.09,4.09,0,0,1,.12,1.5,3,3,0,0,1-.26,1.08,21,21,0,0,1-3.34,2.11c-2.34,1.16-3.8,1.16-4.36,0a4,4,0,0,1-.34-2.21Z"/><path class="cls-10" d="M5.69,17,6.58,17A2.47,2.47,0,0,1,9.3,18.85a4.09,4.09,0,0,1,.12,1.5,3,3,0,0,1-.26,1.08,9.64,9.64,0,0,1-1.67.94,4.82,4.82,0,0,1-3.33.42,8.17,8.17,0,0,0,2.15-3.26c.38-1.21.18-2-.62-2.49Z"/><path class="cls-9" d="M3.84,21a5.05,5.05,0,0,1,3.28-.64,3,3,0,0,1,2.29,1.73,2.79,2.79,0,0,1,.23,1.2,2.22,2.22,0,0,1-.3,1l-6.73,3A2.39,2.39,0,0,1,1,25.3a3.83,3.83,0,0,1,.48-2.37,5.23,5.23,0,0,1,2.33-2Z"/><path class="cls-10" d="M6.38,20.27l.74.06a3,3,0,0,1,2.29,1.73,2.79,2.79,0,0,1,.23,1.2,2.22,2.22,0,0,1-.3,1L6.2,25.42a3.57,3.57,0,0,0,.39-.57,5.62,5.62,0,0,0,.55-1.27,3.15,3.15,0,0,0-.76-3.31Z"/><path class="cls-11" d="M3.36,31.35l-.7-1.64,2.56.89L5,31.43c-.22.57-.45.89-.7,1s-.54-.27-.9-1Z"/><path class="cls-6" d="M4.37,30.3l.85.3L5,31.43c-.22.57-.45.89-.7,1a6.79,6.79,0,0,1,.09-.69,4.74,4.74,0,0,0,0-1.4Z"/><path class="cls-11" d="M10.78,29.72a6,6,0,0,1-.1,1c-.06.29-.13.44-.2.47s-.48-.14-1.1-.54a5.64,5.64,0,0,1-1-.7l1.73-2.38a3,3,0,0,1,.63,2.14Z"/><path class="cls-6" d="M9.24,28.83l.91-1.25a2.78,2.78,0,0,1,.67,1.61,4.26,4.26,0,0,1-.28,2.09,3.79,3.79,0,0,0-.47-1.37,4.06,4.06,0,0,0-.83-1.08Z"/><path class="cls-11" d="M8.24,30A4.56,4.56,0,0,1,8,31.61c-.22.86-.45,1.27-.67,1.23a2,2,0,0,1-1-.72,5.27,5.27,0,0,1-1-1.66L8.24,30Z"/><path class="cls-6" d="M8.24,30A4.56,4.56,0,0,1,8,31.61c-.22.86-.45,1.27-.67,1.23l-.07-.69a8.19,8.19,0,0,0-.45-1.94L8.24,30Z"/><path class="cls-9" d="M9.6,24.69a2.25,2.25,0,0,1,.78,1.1,3.52,3.52,0,0,1-.55,2.8,4.05,4.05,0,0,1-2.55,2.06,5.89,5.89,0,0,1-3.41-.14,2.52,2.52,0,0,1-1.94-2A3.9,3.9,0,0,1,2.32,26,4.08,4.08,0,0,1,4,24.32a5,5,0,0,1,4.07-.44,4.41,4.41,0,0,1,1.5.81Z"/><path class="cls-10" d="M10.38,25.79a3.52,3.52,0,0,1-.55,2.8,4.05,4.05,0,0,1-2.55,2.06L7,30.71a5,5,0,0,0,1.53-3.39,4.69,4.69,0,0,0-1.07-3.59,4.57,4.57,0,0,1,1.92.79,2.42,2.42,0,0,1,1,1.27Z"/><path class="cls-9" d="M32.59,21.55a4.15,4.15,0,0,1,2,2.76,4.21,4.21,0,0,1,0,2.73,4,4,0,0,1-1.48,1.68c-.55.39-1.74-.26-3.58-2-.57-.53-1.18-1.14-1.81-1.82L27,24.07a2.21,2.21,0,0,1,.52-1.75,2.89,2.89,0,0,1,1.87-1.17,4.84,4.84,0,0,1,3.24.4Z"/><path class="cls-10" d="M32.36,21.52a6,6,0,0,1,1.36,1.14,4.08,4.08,0,0,1,.9,1.65,4.21,4.21,0,0,1,0,2.73,4,4,0,0,1-1.48,1.68c-.27.2-.74-.29-1.41-1.46l-.93-1.8.41-.14a2.52,2.52,0,0,0,.82-.57c.72-.75.83-1.83.34-3.23Z"/><path class="cls-9" d="M31.15,24.5a5.59,5.59,0,0,1,1.67,2.65,3.51,3.51,0,0,1,0,2.44,2.67,2.67,0,0,1-2.08,1.46c-.94.21-2-.44-3.29-1.94a14.64,14.64,0,0,1-1.14-1.58l-.45-.73a2.57,2.57,0,0,1,.2-1.79,2.52,2.52,0,0,1,2.05-1.51,3.53,3.53,0,0,1,3,1Z"/><path class="cls-10" d="M29.56,28.58a2.89,2.89,0,0,0,1.31-.85,2.82,2.82,0,0,0,.28-3.23,5.38,5.38,0,0,1,1,1.26,5.74,5.74,0,0,1,.63,1.39,3.51,3.51,0,0,1,0,2.44,2.67,2.67,0,0,1-2.08,1.46c-.29.06-.58-.33-.86-1.18l-.34-1.29Z"/><path class="cls-11" d="M25,30.89l-.53.14a2.53,2.53,0,0,1-.84.07c-.19,0-.11-.44.25-1.21a5.11,5.11,0,0,1,.87-1.41L25,30.89Z"/><path class="cls-6" d="M23.61,31.1l.46-.34a3.1,3.1,0,0,0,.81-.82l.1.95-.53.14a2.53,2.53,0,0,1-.84.07Z"/><path class="cls-6" d="M27.3,33.81,26.06,34c-.15,0-.15-.21,0-.62a2.19,2.19,0,0,1,.38-.8l2.74.71a7.7,7.7,0,0,1-1.87.56Z"/><path class="cls-11" d="M25,30.83l1.59,1.88a6.79,6.79,0,0,1-1.5.32c-.52,0-.82,0-.89-.09s-.06-.64.26-1.25l.54-.86Z"/><path class="cls-6" d="M24.24,33a6.07,6.07,0,0,0,1.7-1l.67.79a6.31,6.31,0,0,1-1.46.31c-.5,0-.81,0-.91-.06Z"/><path class="cls-9" d="M30.57,29A4.31,4.31,0,0,1,31,31.39,2,2,0,0,1,30,33a3.53,3.53,0,0,1-1.88.49,4.21,4.21,0,0,1-2.24-1.24,3.71,3.71,0,0,1-1.28-3,4,4,0,0,1,.26-1.32,1.84,1.84,0,0,1,.52-.79,2.8,2.8,0,0,1,2.83-.43A4.19,4.19,0,0,1,30.57,29Z"/><path class="cls-10" d="M30.57,29A4.31,4.31,0,0,1,31,31.39,2,2,0,0,1,30,33a3.53,3.53,0,0,1-1.88.49,4.21,4.21,0,0,1-2.24-1.24l-.2-.19a3.08,3.08,0,0,0,1.74.42,3,3,0,0,0,1.55-.57A3.53,3.53,0,0,0,30,30.62a4,4,0,0,0,.42-1.82l.12.24Z"/><path class="cls-12" d="M22.58,19.44a9.24,9.24,0,0,1-4.45.53,8.79,8.79,0,0,1-2.8-.74,6.3,6.3,0,0,1-2.52-1.9,2.28,2.28,0,0,1-.41-1.93A1.62,1.62,0,0,1,13.58,14a32,32,0,0,1,6,.24l5,.49q1.07,3.47-2,4.7Z"/><path class="cls-13" d="M23.41,14.94a4.91,4.91,0,0,1,1.13-.2q1.07,3.47-2,4.7a9.24,9.24,0,0,1-4.45.53,9,9,0,0,1-2.43-.59l1.37.21a5.09,5.09,0,0,0,1.56-.11,4.86,4.86,0,0,0,2.54-1.25,1.44,1.44,0,0,0,.13-2.05,4.55,4.55,0,0,1,2.11-1.24Z"/><path class="cls-9" d="M19.52,9c.29-.36.92-.38,1.88-.06a5.34,5.34,0,0,1,1.66.79,5.75,5.75,0,0,1,1.56,0,1.7,1.7,0,0,1,.84.31c.13.12.1.48-.07,1.08a6.57,6.57,0,0,1-.67,1.6,5,5,0,0,1,.33,1.72,2,2,0,0,1-.31,1.35l-.59-.4a1.56,1.56,0,0,0-.84-.18c.17.47.12.8-.14,1a1.62,1.62,0,0,1-.92.19,6.41,6.41,0,0,1-1.53-.4,11.53,11.53,0,0,0-1.86-.53L17,15.41l-2,.05c-1.09,0-1.39-.44-.87-1.34a1.54,1.54,0,0,0-1.29.36,1,1,0,0,0-.32.56,4,4,0,0,1-.06-1.7,3,3,0,0,1,.63-1.57,7.72,7.72,0,0,1-.34-1.34c-.15-.95,0-1.58.29-1.88.11-.1.42-.1.93,0A4.88,4.88,0,0,1,15.39,9a5.8,5.8,0,0,1,2.43-.53c1,0,1.54.15,1.7.52Z"/><path class="cls-10" d="M13.19,10.1a4.15,4.15,0,0,1-.14-1.55c.11-.1.42-.1.93,0A4.88,4.88,0,0,1,15.39,9a6,6,0,0,1,1-.28,6.58,6.58,0,0,0-2.68,2.46c-.15.22-.31-.14-.48-1.1Z"/><path class="cls-10" d="M18.36,8.52a2.09,2.09,0,0,1,.83.1.73.73,0,0,1,.33.39c.29-.36.92-.38,1.88-.06a5.34,5.34,0,0,1,1.66.79,5.75,5.75,0,0,1,1.56,0,1.7,1.7,0,0,1,.84.31c.13.12.1.48-.07,1.08a6.57,6.57,0,0,1-.67,1.6,5,5,0,0,1,.33,1.72,2,2,0,0,1-.31,1.35l-.59-.4a1.56,1.56,0,0,0-.84-.18c.17.47.12.8-.14,1a1.62,1.62,0,0,1-.92.19A5.23,5.23,0,0,1,20.81,16,9.23,9.23,0,0,0,19,15.49a2,2,0,0,0,.07-.83L19,14.34l.17,0,.27,0c.21.11.39-.06.53-.49s.15-.71,0-.86a1.61,1.61,0,0,0-.85-.4,1.93,1.93,0,0,0-1.31.15c-.19.11-.3.14-.31.07a.83.83,0,0,1,.15-.35,4,4,0,0,0,.53-1.14,1.74,1.74,0,0,0,.84.32,1.23,1.23,0,0,0,.93-.19c-.06.32-.05.5,0,.52s.21-.05.43-.21a4.85,4.85,0,0,1,1.82-.93c.26,0,.31-.2.15-.47a2.36,2.36,0,0,0-.81-.74,2.43,2.43,0,0,0-1.2-.38,1.06,1.06,0,0,0-1,.59,1.61,1.61,0,0,0-.26-.8,1.56,1.56,0,0,0-.79-.53Z"/><path class="cls-11" d="M14.81,11.46a2.08,2.08,0,0,1,.31-.41,5.11,5.11,0,0,1,1.38.85l.62.57-.15.21-1.26-.14a4,4,0,0,0-1.27,0,2.33,2.33,0,0,1,.37-1.06Z"/><path class="cls-11" d="M23.5,13.14l-1.54,0-1.25,0L20.63,13l0-.07.73-.57a3.57,3.57,0,0,1,1.53-.68l.28.45a3.88,3.88,0,0,1,.37,1Z"/><path class="cls-3" d="M31.81,6.86a2.86,2.86,0,0,1,2.13-.52,2.92,2.92,0,0,1,1.92,1.08,2.63,2.63,0,0,1-.52,3.82,2.85,2.85,0,0,1-2.14.52,2.82,2.82,0,0,1-1.91-1.06,2.64,2.64,0,0,1,.52-3.84Z"/><path class="cls-3" d="M9.22,2.78a2.72,2.72,0,0,1,.7,2.13,2.79,2.79,0,0,1-1.08,2,3.06,3.06,0,0,1-2.25.66A3,3,0,0,1,4.51,6.48,2.73,2.73,0,0,1,3.8,4.35a2.71,2.71,0,0,1,1.09-2,3,3,0,0,1,2.24-.65,3.07,3.07,0,0,1,2.09,1Z"/><path class="cls-3" d="M17,12.34a.82.82,0,0,1-.24.32l-.55-.11-.55-.07a.92.92,0,0,1-.11-.43.72.72,0,0,1,.1-.34.82.82,0,0,1,.19-.28,1.31,1.31,0,0,1,.6.36l.56.55Z"/><path class="cls-3" d="M22.49,12.65a.73.73,0,0,1-.22.53H21.11a.52.52,0,0,1-.18-.22.8.8,0,0,1,0-.3l.44-.31A3.48,3.48,0,0,1,22.1,12a.75.75,0,0,1,.28.28.77.77,0,0,1,.11.39Z"/><path class="cls-3" d="M4.16,13.25l.18.22c-.41.46-.8.93-1.16,1.41A6,6,0,0,0,2.46,16L2.26,16A6,6,0,0,1,3,14.7a8.24,8.24,0,0,1,1.19-1.45Z"/><path class="cls-3" d="M25.69,9.07a1.49,1.49,0,0,0-.23.24,15.72,15.72,0,0,0-5.4-1.83,11.09,11.09,0,0,0-5,.39l0-.24a10.2,10.2,0,0,1,5.21-.48,15.22,15.22,0,0,1,5.38,1.92Z"/><path class="cls-3" d="M33.4,17.67a17.21,17.21,0,0,1,.67,2.72L33.71,20a13.46,13.46,0,0,0-.59-2.09l.28-.25Z"/><path class="cls-3" d="M4.16,8.74l.2.34q-1.52,1-1.44,1.41a10.3,10.3,0,0,0,1.17,2.3,15.49,15.49,0,0,0,1.29,2l-.32,0a14.49,14.49,0,0,1-1.31-2,10.1,10.1,0,0,1-1.2-2.32c-.07-.4.47-1,1.61-1.8Z"/><path class="cls-3" d="M11.64,5.72V5.38a14.85,14.85,0,0,1,2.21-.33c.42,0,.82.65,1.21,2a17.44,17.44,0,0,1,.48,2l-.22,0a10.23,10.23,0,0,0-.55-2c-.4-1.14-.75-1.7-1-1.7a10.08,10.08,0,0,0-2.09.35Z"/><path class="cls-3" d="M4.36,10.58c0-.13.31-.37.88-.71l.13.17a2.62,2.62,0,0,0-.8.58v0a5.86,5.86,0,0,0,.93,1.84A15.44,15.44,0,0,0,7,14.54l-.16.15a16.19,16.19,0,0,1-1.47-2,5.1,5.1,0,0,1-1-2.06Z"/><path class="cls-3" d="M13.28,7.27q-.31-.52-.48-.51a5,5,0,0,0-1,.27v-.2a4.94,4.94,0,0,1,1-.29c.22,0,.47.23.76.75a6.81,6.81,0,0,1,.53,1.24l-.27-.11a5.52,5.52,0,0,0-.53-1.15Z"/><path class="cls-3" d="M28.65,9l-.06.14-.1.13a9.33,9.33,0,0,0-2-.94c-.15,0-.38.15-.68.57a7.83,7.83,0,0,0-.62,1L25,9.9l.6-1.21c.3-.52.57-.75.8-.69a6.06,6.06,0,0,1,.85.32c.44.2.9.43,1.39.68Z"/><path class="cls-3" d="M34.29,13.52a10.63,10.63,0,0,1,1,1.36c.26.45.35.76.27.95a6.57,6.57,0,0,1-1.43,1.45c-.47.4-1.13.93-2,1.61L32,18.75c.59-.47,1.22-1,1.89-1.64a7.81,7.81,0,0,0,1.39-1.49c.06-.14,0-.39-.24-.74a8.77,8.77,0,0,0-1-1.22l.27-.14Z"/><path class="cls-3" d="M33.82,15.32a3.68,3.68,0,0,1-1,1.31c-.53.55-1.1,1.09-1.69,1.6l-.22-.1a21.66,21.66,0,0,0,1.69-1.59,4.52,4.52,0,0,0,1-1.24,3.81,3.81,0,0,0-.87-.91l.21-.1c.59.54.88.88.87,1Z"/><path class="cls-3" d="M28,10.4l-.07.21a5.68,5.68,0,0,0-1.09-.71h-.11a3.33,3.33,0,0,0-.93,1.35c-.28.59-.54,1.23-.79,1.93l-.2-.07c.23-.64.46-1.23.71-1.76a3.75,3.75,0,0,1,1.11-1.65l.29,0A10.51,10.51,0,0,1,28,10.4Z"/><path class="cls-3" d="M25.29,13.55a2.19,2.19,0,0,1,.58-.91,2.09,2.09,0,0,1,1.33-.53l-.1.23a1.83,1.83,0,0,0-1.17.54,2.06,2.06,0,0,0-.48.89l-.16-.22Z"/><path class="cls-3" d="M31.58,15.57a2.74,2.74,0,0,1-.11,1.07,2.06,2.06,0,0,1-1,1.22l-.15-.17a1.83,1.83,0,0,0,1-1.06,2.39,2.39,0,0,0,.12-1l-.05-.21.19-.12a1.25,1.25,0,0,1,.07.31Z"/><path class="cls-3" d="M26.18,14.57,26,14.33a1,1,0,0,1,.32-1,1.5,1.5,0,0,1,.84-.44v.23a1.41,1.41,0,0,0-.8.71,1.51,1.51,0,0,0-.15.72Z"/><path class="cls-3" d="M30.7,15.67a1.45,1.45,0,0,1-.32,1.14,1.15,1.15,0,0,1-.51.3l-.61.13-.19-.2a1.6,1.6,0,0,0,.61-.14,1.45,1.45,0,0,0,.5-.33,1.17,1.17,0,0,0,.31-.87l.21,0Z"/><path class="cls-3" d="M37.6,7.66a4.09,4.09,0,0,1,.27,1.57,4.42,4.42,0,0,1-.41,1.68,3.76,3.76,0,0,1-1.14,1.4c-.56.44-1.46,1-2.71,1.83l-2.35,1.4a2.69,2.69,0,0,1-1.44.33,3.46,3.46,0,0,1-1.64-.49A2.35,2.35,0,0,1,27.12,14a2.47,2.47,0,0,1-.05-1.56q.24-.74,1.2-2.94a23.3,23.3,0,0,1,1.3-2.75A4,4,0,0,1,31,5.38a4.34,4.34,0,0,1,1.89-.6A4.67,4.67,0,0,1,34.79,5a4.55,4.55,0,0,1,1.63.93A4.69,4.69,0,0,1,37.6,7.66Zm-.48,3.16a4,4,0,0,0,.42-1.58,3.55,3.55,0,0,0-.21-1.45,4.2,4.2,0,0,0-1.14-1.68,3.64,3.64,0,0,0-1.54-.84,4.63,4.63,0,0,0-1.84-.16A4,4,0,0,0,31,5.76,4.7,4.7,0,0,0,29.84,7a23.89,23.89,0,0,0-1.33,2.65c-.68,1.47-1.09,2.42-1.24,2.85a2.36,2.36,0,0,0,0,1.39,2.1,2.1,0,0,0,1,1.26,3.74,3.74,0,0,0,1.53.49,2.29,2.29,0,0,0,1.32-.26c.45-.25,1.22-.73,2.32-1.45s2.09-1.4,2.69-1.86a3.39,3.39,0,0,0,1-1.22Z"/><path class="cls-3" d="M31.8,7a2.55,2.55,0,0,0-.68.75,2.62,2.62,0,0,0-.32.94,2.54,2.54,0,0,0,.5,1.88,2.9,2.9,0,0,0,1.9,1.1l1.12-.06a2.83,2.83,0,0,0,1-.49,2.76,2.76,0,0,0,.67-.74,2.71,2.71,0,0,0,.33-.94,2.49,2.49,0,0,0-.56-1.95,2.79,2.79,0,0,0-1.84-1,2.86,2.86,0,0,0-1.13.07,2.66,2.66,0,0,0-1,.47Zm-.86.64a3,3,0,0,1,.73-.81,3,3,0,0,1,1.07-.51A2.89,2.89,0,0,1,34,6.22a3,3,0,0,1,2,1.11,2.64,2.64,0,0,1,.6,2.11,2.88,2.88,0,0,1-.35,1,2.78,2.78,0,0,1-.73.8,2.88,2.88,0,0,1-1.07.52,3.08,3.08,0,0,1-1.21.07A3.21,3.21,0,0,1,32,11.46a2.8,2.8,0,0,1-.89-.79,2.67,2.67,0,0,1-.48-1,2.58,2.58,0,0,1-.07-1.07,2.88,2.88,0,0,1,.35-1Z"/><path class="cls-3" d="M7.78,14.57a2,2,0,0,1-1-1.86A3,3,0,0,1,6.87,12L7,11.6l.17.24a3.33,3.33,0,0,0-.06,1.35,2,2,0,0,0,.94,1.3l-.27.08Z"/><path class="cls-3" d="M12.78,8.91v.23A3.87,3.87,0,0,0,12.05,9V8.73l.74.18Z"/><path class="cls-3" d="M12.3,10.55a1.63,1.63,0,0,0-.33-.49l0-.25a1.8,1.8,0,0,1,.49.65,2,2,0,0,1,.13,1c-.17.19-.28.29-.36.31a2,2,0,0,0,0-1.22Z"/><path class="cls-3" d="M7.83,12.67a2.25,2.25,0,0,1-.21-.53l.12,0,.12,0a1.69,1.69,0,0,0,.13.3,2.21,2.21,0,0,0,.64.69,1.63,1.63,0,0,0,.8.34,3,3,0,0,0,.73,0l-.27.2q-.23.15-.33.12a2.26,2.26,0,0,1-1.73-1.17Z"/><path class="cls-3" d="M10.12,1.38A4.73,4.73,0,0,1,11.3,3.11a23.93,23.93,0,0,1,.55,3.1,22.58,22.58,0,0,1,.3,3.48,3.06,3.06,0,0,1-.46,1.57,2.3,2.3,0,0,1-1.37,1.05,4.25,4.25,0,0,1-1.85.14,2.68,2.68,0,0,1-1.38-.64c-.58-.53-1.23-1.15-2-1.87C4.17,9,3.45,8.21,3,7.63A4.06,4.06,0,0,1,2.15,6a5.08,5.08,0,0,1,0-2.1,4.92,4.92,0,0,1,.6-1.63A4.35,4.35,0,0,1,4.3.64,4.86,4.86,0,0,1,6.24,0a5,5,0,0,1,2,.17,4.64,4.64,0,0,1,1.89,1.18Zm.94,1.94A4.11,4.11,0,0,0,9.85,1.56,5,5,0,0,0,8,.49,4.15,4.15,0,0,0,6.21.34,4.51,4.51,0,0,0,4.48.93,4.2,4.2,0,0,0,3,2.37a4.07,4.07,0,0,0-.54,1.46A4.94,4.94,0,0,0,2.53,6a3.81,3.81,0,0,0,.73,1.54c.48.58,1.17,1.34,2.08,2.27s1.4,1.4,1.89,1.85a2.35,2.35,0,0,0,1.28.56,4.26,4.26,0,0,0,1.73-.16,2.09,2.09,0,0,0,1.26-1,2.71,2.71,0,0,0,.44-1.43V9.52a24.35,24.35,0,0,0-.3-3.24,20.35,20.35,0,0,0-.58-3Z"/><path class="cls-3" d="M9.28,2.69A2.79,2.79,0,0,1,10,4.9,2.65,2.65,0,0,1,9.68,6,2.83,2.83,0,0,1,9,6.89a3,3,0,0,1-1.11.6,3.3,3.3,0,0,1-3.43-1,2.84,2.84,0,0,1-.73-2.21,3,3,0,0,1,1.06-2,3.32,3.32,0,0,1,1.11-.6A3.4,3.4,0,0,1,7.12,1.6,3.11,3.11,0,0,1,9.28,2.69Zm.51,2.19a2.6,2.6,0,0,0-.67-2,2.93,2.93,0,0,0-2-1,3,3,0,0,0-1.19.11,2.77,2.77,0,0,0-1,.56,2.85,2.85,0,0,0-.68.83,2.7,2.7,0,0,0-.31,1,2.63,2.63,0,0,0,.69,2.06,2.89,2.89,0,0,0,2,1,2.92,2.92,0,0,0,1.18-.12,3,3,0,0,0,1-.55,2.7,2.7,0,0,0,.68-.83,2.62,2.62,0,0,0,.3-1Z"/><path class="cls-3" d="M19.94,41.35v.17a3.18,3.18,0,0,0-.93.8l-.05.12a1.24,1.24,0,0,0,.45.19,8.24,8.24,0,0,0,.91.21l.19.32a4.9,4.9,0,0,1-1.89-.49.22.22,0,0,1,0-.24,1.82,1.82,0,0,1,.51-.6,5.84,5.84,0,0,1,.85-.65v.17Z"/><path class="cls-3" d="M12.84,11.16l.11.28a16.19,16.19,0,0,0-1.53,1.31,6.47,6.47,0,0,1-2.37,1.57,8.73,8.73,0,0,1-2.19.37l-.72.06A7.15,7.15,0,0,0,2.5,16.16a5.42,5.42,0,0,0-1.95,2.4,3.87,3.87,0,0,0-.14,2.05,6.23,6.23,0,0,0,.72,1.93c0,.2.09.44.16.73A7.25,7.25,0,0,1,.18,21.12a4.38,4.38,0,0,1,.09-2.77,5.25,5.25,0,0,1,2.1-2.59A8,8,0,0,1,6.11,14.5l.73-.06A8.5,8.5,0,0,0,8.9,14.1a6.44,6.44,0,0,0,2.23-1.49,14.65,14.65,0,0,1,1.71-1.45Z"/><path class="cls-3" d="M27.14,15.74A30.17,30.17,0,0,1,25,13.42l-.07-.09-.13-.53.4.46a29.49,29.49,0,0,0,2.12,2.29,10.39,10.39,0,0,0,2.44,1.79,15.63,15.63,0,0,1,4.47,3,3.54,3.54,0,0,1,.57,4.34l-.16-.29a3.52,3.52,0,0,0-.8-3.9,14.11,14.11,0,0,0-4.19-2.88,10.63,10.63,0,0,1-2.49-1.83Z"/><path class="cls-3" d="M21.19,43.5l.25.14a1.27,1.27,0,0,0,.11.4,5.26,5.26,0,0,1-.62-.35,2.34,2.34,0,0,1-1-1.52A1.74,1.74,0,0,1,20,40.94l.24-.09a1.67,1.67,0,0,0,0,1.15,2.34,2.34,0,0,0,1,1.5Z"/><polygon class="cls-3" points="25.85 44.68 24.84 44.74 24.99 44.43 25.63 44.39 25.85 44.68 25.85 44.68"/><path class="cls-3" d="M30.25,41.07a1.33,1.33,0,0,1-.1,1.17,3.66,3.66,0,0,1-1,1.11l-.3-.14a4,4,0,0,0,.92-1.05,1.3,1.3,0,0,0,.18-1l.28-.06Z"/><path class="cls-3" d="M1.29,26.28l.22.25a14.93,14.93,0,0,0,0,2.77,10.45,10.45,0,0,0,1,3.95l-.24.25a8.65,8.65,0,0,1-1.16-4.17,12.91,12.91,0,0,1,.21-3Z"/><path class="cls-3" d="M30.69,32.39a7.83,7.83,0,0,1,1.21,1.92,6.37,6.37,0,0,1,.43,3.46,5.2,5.2,0,0,1-1.12,2.82,3.91,3.91,0,0,1-1.33.84l-.05,0a7.74,7.74,0,0,1-3.09.66,6.88,6.88,0,0,1-4.79-2l.33-.18a7,7,0,0,0,4.45,1.75,6.82,6.82,0,0,0,3-.47l.05,0A2.93,2.93,0,0,0,31,40.37a5.58,5.58,0,0,0,1-2.72,6.19,6.19,0,0,0-1.42-5.06l.17-.2Z"/><path class="cls-3" d="M21.79,45.15a2.27,2.27,0,0,1-.5-1.46c.05-.19.25-.37.6-.55a2.29,2.29,0,0,1,1.29-.23,2.25,2.25,0,0,1,1.57.76c.32.36.43.67.34.91a2.59,2.59,0,0,1-1.05,1,3.15,3.15,0,0,1-1.14.57c-.32,0-.69-.32-1.11-1Zm-.14-1.48c-.09.07,0,.32.2.76a4.71,4.71,0,0,0,.69,1.07c.19.22.32.34.39.34a2.93,2.93,0,0,0,1-.51,2.61,2.61,0,0,0,1-.91q.08-.22-.36-.6a2.77,2.77,0,0,0-1.22-.58,1.91,1.91,0,0,0-1.63.43Z"/><path class="cls-3" d="M25.42,44.28a.93.93,0,0,1,.4-.61,3,3,0,0,1,.94-.51,2.8,2.8,0,0,1,2.35.06,3,3,0,0,1,1,1.4,3.62,3.62,0,0,1,.45,1.71c0,.23-.11.37-.27.4a4.31,4.31,0,0,1-2-.43A10,10,0,0,1,26,45.12c-.41-.31-.6-.59-.59-.84Zm1.25-.86a2.24,2.24,0,0,0-.73.43.65.65,0,0,0-.27.44c0,.33.62.78,1.85,1.34a5.08,5.08,0,0,0,2.59.7c.05,0,.08-.08.1-.21a3.44,3.44,0,0,0-.39-1.55c-.29-.68-.57-1.06-.84-1.17a3.08,3.08,0,0,0-2.31,0Z"/><path class="cls-3" d="M22.62,20a10.18,10.18,0,0,1-3.59.67,9.27,9.27,0,0,1-3.64-.73,7.56,7.56,0,0,1-2.28-1.33l-.85-.86c-.41-.43-.71-.73-.91-.9a1.75,1.75,0,0,0-.76-.45.93.93,0,0,0-.62.25,3.13,3.13,0,0,0-.72.84,2.24,2.24,0,0,0-.34.67l-.19-.19a2,2,0,0,1,.33-.73,3.26,3.26,0,0,1,.7-.82,1.26,1.26,0,0,1,.47-.21l.4,0a1.74,1.74,0,0,1,.83.47c.2.17.52.48,1,.95l.84.85a7.21,7.21,0,0,0,2.22,1.29,9,9,0,0,0,3.55.72,10.07,10.07,0,0,0,3.49-.66A5.65,5.65,0,0,0,25,18.17a1.28,1.28,0,0,1,.45-.35,1.12,1.12,0,0,1,.57-.11,2,2,0,0,1,.83.29,1.74,1.74,0,0,1,.61.63,3.86,3.86,0,0,1,.33,1.52,11.9,11.9,0,0,1,0,1.69l-.18.21c-.07.08-.1.06-.09,0v-.09a8.47,8.47,0,0,0,0-1.6,3.6,3.6,0,0,0-.3-1.49,1.76,1.76,0,0,0-.56-.56,1.59,1.59,0,0,0-.74-.27.84.84,0,0,0-.78.31A5.93,5.93,0,0,1,22.62,20Z"/><path class="cls-3" d="M12.9,40.84l0-.19,0-.2a12,12,0,0,0,6.49.29,14.71,14.71,0,0,0,3.74-1.29,9.37,9.37,0,0,0,2.77-2.33,7.69,7.69,0,0,0,1.37-1.78,3.7,3.7,0,0,0,.64-1.6l.24-.07a3.28,3.28,0,0,1-.6,1.8,6.5,6.5,0,0,1-1.37,1.75,6.51,6.51,0,0,1-2.21,2.15,12.89,12.89,0,0,1-3.4,1.51,14.12,14.12,0,0,1-3.92.59,9.72,9.72,0,0,1-3.69-.63Z"/><path class="cls-3" d="M24.18,19.54l1.57-1.19a1,1,0,0,1,1.19-.07l0,.16a.91.91,0,0,0-1,0l-1.73,1.3a8,8,0,0,1-3,1.25,9.36,9.36,0,0,1-3.77.16,9.63,9.63,0,0,1-3.91-1.59,13.09,13.09,0,0,1-2.17-2l-.3-.37a1.41,1.41,0,0,0-.93-.48,1.38,1.38,0,0,0-.72.18l.14-.2a1.73,1.73,0,0,1,.7-.15,1.31,1.31,0,0,1,.84.45l.31.38a12.73,12.73,0,0,0,2.16,1.94A9.71,9.71,0,0,0,17.5,21a9.49,9.49,0,0,0,3.61-.14,7.84,7.84,0,0,0,3.07-1.29Z"/><path class="cls-3" d="M14.53,38.65a18.5,18.5,0,0,0,3.2.41,14,14,0,0,0,7.75-1.51l.09.15L25,38a14.16,14.16,0,0,1-7.56,1.29,18.33,18.33,0,0,1-3.05-.44,4.37,4.37,0,0,1-1.55-.57l0-.21a4.49,4.49,0,0,0,1.63.58Z"/><path class="cls-3" d="M17.89,38.89a18.2,18.2,0,0,1-3.29-.48,4.73,4.73,0,0,1-1.7-.63l.12-.14a5,5,0,0,0,1.71.54,22.37,22.37,0,0,0,3.48.43c3.43.17,6.05-.38,7.84-1.64l-.25.46a13.83,13.83,0,0,1-7.91,1.46Z"/><path class="cls-3" d="M10.24,31.17a11.89,11.89,0,0,0,2.83,1.59A17.35,17.35,0,0,0,17,33.87a15.78,15.78,0,0,0,9.27-1.06l-.09.13-.08.12a15.61,15.61,0,0,1-9.72.9,16.61,16.61,0,0,1-4-1.31,10.16,10.16,0,0,1-2.7-1.75l.29.15.28.12Z"/><path class="cls-3" d="M12.65,32.21A9.64,9.64,0,0,1,10.5,31l.11-.14A9.21,9.21,0,0,0,12.7,32a19.79,19.79,0,0,0,3.61,1.14A16,16,0,0,0,24.45,33l.28.1a13.72,13.72,0,0,1-4.63.78,17.73,17.73,0,0,1-3.77-.43,18.45,18.45,0,0,1-3.68-1.21Z"/><path class="cls-3" d="M9.32,24.41l.12-.13a10.9,10.9,0,0,0,2.42,1.58,16.1,16.1,0,0,0,3.72,1.3A16.82,16.82,0,0,0,25.8,25.9v.22a20.53,20.53,0,0,1-5.33,1.54,14.87,14.87,0,0,1-8.73-1.61,11.72,11.72,0,0,1-2.42-1.64Z"/><path class="cls-3" d="M9.54,23.78l.13-.13a8.15,8.15,0,0,0,2.25,1.52,16,16,0,0,0,3.84,1.35A14.27,14.27,0,0,0,26,25.12l0,.25a15,15,0,0,1-10.55,1.34,14.41,14.41,0,0,1-3.74-1.43,9,9,0,0,1-2.09-1.5Z"/><path class="cls-3" d="M.79,37.89l.25,0a14.37,14.37,0,0,0-.29,3.94,5.39,5.39,0,0,0,.89,2.73l-.14.24A5.05,5.05,0,0,1,.38,42.06a11.39,11.39,0,0,1,.41-4.17Z"/><path class="cls-3" d="M8.31,46.19l.11-.27.28-.09a1,1,0,0,1,.27-.1l.14.16.15.14-.95.16Z"/><path class="cls-3" d="M12.72,37.6a1.71,1.71,0,0,0,.15-.57A10,10,0,0,1,13,40.68,10.55,10.55,0,0,1,12.14,44l-.29-.25a12.27,12.27,0,0,0,.78-3,11.71,11.71,0,0,0,.09-3.2Z"/><path class="cls-3" d="M9,46a.57.57,0,0,1-.2-.4A1.08,1.08,0,0,1,8.92,45,2.51,2.51,0,0,1,10,43.89a2.71,2.71,0,0,1,1.93-.2c.13,0,.25.18.37.46a2.91,2.91,0,0,1,.19.69A4.94,4.94,0,0,1,12.61,46c0,.45-.11.73-.28.84a2.19,2.19,0,0,1-1.57,0A4.3,4.3,0,0,1,9,46Zm1.2-2a2.11,2.11,0,0,0-.94,1,1.56,1.56,0,0,0-.18.66.29.29,0,0,0,.06.22,3.48,3.48,0,0,0,1.61.68,2.07,2.07,0,0,0,1.36,0c.11-.07.18-.27.21-.61a5.07,5.07,0,0,0-.07-1.13,2.39,2.39,0,0,0-.18-.66C12,44,12,43.91,11.9,43.9a2.38,2.38,0,0,0-1.7.14Z"/><path class="cls-3" d="M1.42,44.88c.09-.49.49-.8,1.19-.93a9.52,9.52,0,0,1,2.27,0,7.31,7.31,0,0,1,2.61.7c.83.41,1.23.83,1.21,1.27a.74.74,0,0,1-.27.44,7.18,7.18,0,0,1-2.61,1.15,10.57,10.57,0,0,1-3.43.46A.71.71,0,0,1,2,47.83a.67.67,0,0,1-.28-.27,3.17,3.17,0,0,1-.4-1.26,4.88,4.88,0,0,1,.06-1.42Zm1.25-.69c-.56.09-.88.32-.95.7a4.08,4.08,0,0,0,0,1.35,2.16,2.16,0,0,0,.4,1.06.57.57,0,0,0,.4.24,11.1,11.1,0,0,0,3.25-.39,6.18,6.18,0,0,0,2.45-1,.52.52,0,0,0,.2-.28c0-.34-.34-.67-1.08-1a7.35,7.35,0,0,0-2.47-.61,12.46,12.46,0,0,0-2.18,0Z"/><path class="cls-3" d="M4.73,32a7.79,7.79,0,0,1,1.43-.14v.25a6.54,6.54,0,0,0-1.63.23L4.73,32Z"/><path class="cls-3" d="M3.86,32.2l.23.25a4.55,4.55,0,0,0-2.36,2A4.33,4.33,0,0,0,1,36.48a6.8,6.8,0,0,0,.43,3.2,3.43,3.43,0,0,0,2.62,2,19.8,19.8,0,0,0,2.33.33A6.29,6.29,0,0,0,8.67,42a5.68,5.68,0,0,0,2.86-2.15,4.58,4.58,0,0,0,1-2.89,5.23,5.23,0,0,0-1.19-3.22A4.87,4.87,0,0,0,7.94,32v-.25a5.3,5.3,0,0,1,3.74,1.81A5.45,5.45,0,0,1,13,36.92,5,5,0,0,1,11.85,40a6,6,0,0,1-3,2.3,6.87,6.87,0,0,1-2.43.06A23.74,23.74,0,0,1,3.92,42a3.75,3.75,0,0,1-2.61-1.69A6.16,6.16,0,0,1,.59,36.6a5.08,5.08,0,0,1,.7-2.24A4.75,4.75,0,0,1,3.86,32.2Z"/><path class="cls-3" d="M6.58,16.84a3.51,3.51,0,0,1,1.53.31,2.55,2.55,0,0,1,1,.92A3.57,3.57,0,0,1,9.64,20a2.77,2.77,0,0,1-.37,1.5l-.22-.11A3.32,3.32,0,0,0,9.31,20a3.17,3.17,0,0,0-.45-1.74,2,2,0,0,0-1-.81,3.46,3.46,0,0,0-1.42-.26,5.86,5.86,0,0,0-2.73.66,5.06,5.06,0,0,0-1.92,1.84,4.36,4.36,0,0,0-.61,1.7,3.7,3.7,0,0,0,.18,1.69,1.24,1.24,0,0,0-.18.25,4.29,4.29,0,0,1-.31-1.86,4.07,4.07,0,0,1,.59-1.9,5.25,5.25,0,0,1,2.13-2,6.32,6.32,0,0,1,3-.74Z"/><path class="cls-3" d="M1.33,22.88a5.16,5.16,0,0,1,2.32-2,5.5,5.5,0,0,1,3.5-.68,3.48,3.48,0,0,1,1.5.64,3,3,0,0,1,1,1.19,2.38,2.38,0,0,1,.19,1.22,2.43,2.43,0,0,1-.36,1.11l-.21-.14a2,2,0,0,0,.28-1,2.55,2.55,0,0,0-.22-1.12A2.66,2.66,0,0,0,8.45,21a3.45,3.45,0,0,0-1.35-.59,5.06,5.06,0,0,0-3.24.64A5.08,5.08,0,0,0,1.62,23a4.49,4.49,0,0,0-.45,1.32,3,3,0,0,0,.1,1.48,2.14,2.14,0,0,0,.7,1,.53.53,0,0,0-.11.24,3.72,3.72,0,0,1-.53-.48,1.72,1.72,0,0,1-.36-.6,3.22,3.22,0,0,1-.14-1.47,4.49,4.49,0,0,1,.5-1.58Z"/><path class="cls-3" d="M3.56,32.06c-.14-.26-.38-.81-.72-1.66l-.2-.48a.94.94,0,0,0,.33.24l.07.16c.55,1.39,1,2,1.19,2s.33-.26.51-.61a5.33,5.33,0,0,0,.32-.91h.27A7.24,7.24,0,0,1,5,31.83c-.22.49-.45.77-.67.84s-.47-.13-.73-.61Z"/><path class="cls-3" d="M10.23,27.85a1.58,1.58,0,0,1,.1-.35,3.26,3.26,0,0,1,.61,1.95A6.28,6.28,0,0,1,10.76,31c-.07.26-.15.41-.25.43s-.93-.38-2.12-1.38l.24-.15a11.49,11.49,0,0,0,.95.69,2.6,2.6,0,0,0,.86.47.8.8,0,0,0,.11-.31,3.79,3.79,0,0,0,.1-.75l0-.31a3.38,3.38,0,0,0-.44-1.87Z"/><path class="cls-3" d="M8.14,30.3l.29-.14a6.38,6.38,0,0,1-.27,1.5A3.2,3.2,0,0,1,7.62,33a.31.31,0,0,1-.28.11,2.08,2.08,0,0,1-1-.72,7,7,0,0,1-1-1.51l.28.06a4.87,4.87,0,0,0,.92,1.28,1.73,1.73,0,0,0,.82.55s0,0,.09,0a2.58,2.58,0,0,0,.44-1.06,7.77,7.77,0,0,0,.24-1.32Z"/><path class="cls-3" d="M9.79,24.65a2.61,2.61,0,0,1,.72,1.1,2.94,2.94,0,0,1,0,1.36A4.72,4.72,0,0,1,10,28.63,5,5,0,0,1,8.78,30a3.68,3.68,0,0,1-1.47.75A6.51,6.51,0,0,1,5,30.93a4.45,4.45,0,0,1-2-.69,2.76,2.76,0,0,1-.77-.79,2.37,2.37,0,0,1-.37-1A4.2,4.2,0,0,1,2.14,26a4.14,4.14,0,0,1,1.78-1.81,5.73,5.73,0,0,1,2.26-.71,5,5,0,0,1,2.3.35,4,4,0,0,1,1.31.85Zm-.12,3.92a5.12,5.12,0,0,0,.58-1.46,2.56,2.56,0,0,0,0-1.29,2.25,2.25,0,0,0-.63-.95,4,4,0,0,0-1.2-.74,5,5,0,0,0-2.19-.35,5.2,5.2,0,0,0-2.15.64,4.06,4.06,0,0,0-1.7,1.71,4,4,0,0,0-.34,2.36A2.1,2.1,0,0,0,3,30a4.33,4.33,0,0,0,1.83.68A5.71,5.71,0,0,0,7,30.52a4.3,4.3,0,0,0,1.46-.67,4.21,4.21,0,0,0,1.18-1.28Z"/><path class="cls-3" d="M27.64,21.9a4.08,4.08,0,0,1,2.46-1,4.42,4.42,0,0,1,4.76,3.41,4.23,4.23,0,0,1-.15,2.87,3.33,3.33,0,0,1-1.52,1.64l-.12-.23a2.83,2.83,0,0,0,1.28-1.32,3.86,3.86,0,0,0,.17-2.83,4.44,4.44,0,0,0-1.7-2.57,4.06,4.06,0,0,0-2.5-.75,3.67,3.67,0,0,0-2.26.74,2.39,2.39,0,0,0-1,1.94c0,.06-.07.15-.22.28a2.29,2.29,0,0,1,.8-2.2Z"/><path class="cls-3" d="M33,27.09a4.59,4.59,0,0,1,.19,1.57,2.81,2.81,0,0,1-.34,1.24,2.29,2.29,0,0,1-.7.78,2.34,2.34,0,0,1-1.11.42v-.27a2.6,2.6,0,0,0,1.56-1.15,3.15,3.15,0,0,0,.07-2.5,5.52,5.52,0,0,0-1.59-2.55,3.43,3.43,0,0,0-2.95-1,2.45,2.45,0,0,0-1.8,1.13A3,3,0,0,0,26,25.88a2.12,2.12,0,0,0,0,.89l-.24.07a2.64,2.64,0,0,1-.11-.95A2.46,2.46,0,0,1,26,24.61a2.33,2.33,0,0,1,.88-.82,3.34,3.34,0,0,1,1.21-.42,3.74,3.74,0,0,1,3.17,1.05A5.63,5.63,0,0,1,33,27.09Z"/><path class="cls-3" d="M24.69,28.22l.1.32A4.19,4.19,0,0,0,23.88,30c-.27.62-.36,1-.26,1.05l.74,0,.6-.17L25,31l-.65.18a2.63,2.63,0,0,1-.95.1.17.17,0,0,1-.14-.15,3,3,0,0,1,.53-1.5,5.66,5.66,0,0,1,.89-1.38Z"/><path class="cls-3" d="M28.1,33.54l.28,0,.27,0a18.16,18.16,0,0,1-1.81.43c-.54.09-.85.08-.94,0s-.06-.29,0-.61a3.26,3.26,0,0,1,.3-.75l.16.1a3,3,0,0,0-.3.66c-.07.24-.09.39,0,.44l.72,0a13.5,13.5,0,0,0,1.32-.3Z"/><path class="cls-3" d="M24.84,30.92l.11.16a6.5,6.5,0,0,0-.54,1c-.18.41-.22.69-.12.85s.28.08.67.05a6.94,6.94,0,0,0,1.31-.23.28.28,0,0,0,.16.14,11,11,0,0,1-1.46.32q-.84.1-1-.09c-.22-.32,0-1.05.83-2.17Z"/><path class="cls-3" d="M27.85,26.49a4,4,0,0,1,1.64.88A4.7,4.7,0,0,1,30.69,29a4.49,4.49,0,0,1,.45,2.64,2.24,2.24,0,0,1-1.09,1.62,3.22,3.22,0,0,1-2,.5,4.61,4.61,0,0,1-2.29-1.29,3.87,3.87,0,0,1-1-1.4,4.34,4.34,0,0,1-.33-1.68v-.15a2.81,2.81,0,0,1,1.09-2.46,2.74,2.74,0,0,1,2.33-.28Zm1.48,1.07a3.72,3.72,0,0,0-1.54-.82,2.32,2.32,0,0,0-1.85.33,2.55,2.55,0,0,0-1.23,2.15,3.35,3.35,0,0,0,.18,1.32A3.75,3.75,0,0,0,26,32.14a4.26,4.26,0,0,0,2.21,1.23,3.18,3.18,0,0,0,1.74-.46,1.87,1.87,0,0,0,1-1.49,4.15,4.15,0,0,0-.45-2.33,4.76,4.76,0,0,0-1.13-1.53Z"/><path class="cls-3" d="M19.62,9.17l-.12.57c0,.21-.08.31-.11.29s-.06-.29,0-.75a.42.42,0,0,0-.08-.38A.63.63,0,0,0,19,8.73a4.2,4.2,0,0,0-1.86,0,5.68,5.68,0,0,0-1.76.46c-.15.07-.24.1-.27.07s0-.09.14-.18A3.52,3.52,0,0,0,14,8.65l-.93,0a1.41,1.41,0,0,0-.3,1.06,5.84,5.84,0,0,0,.12,1.21,3.35,3.35,0,0,0,.23.75c.14-.1.21-.13.23-.1s0,.11-.1.23a5.4,5.4,0,0,0-.38.79,5.34,5.34,0,0,0-.35,1.16,4.11,4.11,0,0,0-.05.63l0,.47-.06.17c0,.07-.05.1-.07.09a3.45,3.45,0,0,1-.1-.39,2.59,2.59,0,0,1-.06-.47,4.89,4.89,0,0,1,.2-1.34A3.08,3.08,0,0,1,13,11.75q-.15-.4-.27-.78a4.4,4.4,0,0,1-.22-1.28,1.67,1.67,0,0,1,.38-1.28c.15-.12.49-.14,1,0a4,4,0,0,1,1.48.55,6.06,6.06,0,0,1,1.94-.51,3.88,3.88,0,0,1,1.77.1,1,1,0,0,1,.44.36c.3-.34.91-.35,1.86,0a6.28,6.28,0,0,1,1.68.8l1.58,0a1.67,1.67,0,0,1,.87.33.51.51,0,0,1,.09.35,3.71,3.71,0,0,1-.23,1.11,7.36,7.36,0,0,1-.53,1.2A4.68,4.68,0,0,1,25.13,15a2.07,2.07,0,0,1-.32,1s-.11,0-.19,0a.22.22,0,0,1,0-.29,3.77,3.77,0,0,0,.22-1.06,5,5,0,0,0-.12-1.76c-.1,0-.15,0-.16,0a.3.3,0,0,1,.09-.19,6,6,0,0,0,.46-1,4.88,4.88,0,0,0,.37-1.29.32.32,0,0,0-.05-.21,1.75,1.75,0,0,0-.91-.24,6.83,6.83,0,0,0-1.43,0,.56.56,0,0,1-.33-.05c-.09,0-.05-.1.13-.16a2.43,2.43,0,0,0-.54-.27,8.27,8.27,0,0,0-1.06-.36c-1-.28-1.54-.25-1.64.1Z"/><path class="cls-3" d="M14.67,9.57l-1,1.29c-.06-.24-.11-.48-.16-.74q-.13-.75,0-.84c.13-.12.52,0,1.15.29Z"/><path class="cls-3" d="M13.56,9.32a.24.24,0,0,0,0,.15,6.44,6.44,0,0,0,.21,1.24l.84-1.11c-.57-.28-.91-.37-1-.28Zm1.14.2c.09.06.09.1,0,.15a3.29,3.29,0,0,0-.44.54l-.47.62c-.06.08-.1.11-.13.09l0-.05c-.25-1-.31-1.52-.17-1.64s.56,0,1.22.29Z"/><path class="cls-3" d="M24.72,10.43a6.4,6.4,0,0,1-.31,1.19l-.94-1.19.71-.09q.54,0,.54.09Z"/><path class="cls-3" d="M23.55,10.34a2.06,2.06,0,0,1,1.18,0l.06.1a3.78,3.78,0,0,1-.13.63,2.62,2.62,0,0,1-.2.58s-.06.07-.1.06l-.09-.09c-.46-.65-.72-1-.79-1.07s-.1-.18.07-.2Zm1.11.1-.45,0-.63.07.8,1a7.25,7.25,0,0,0,.28-1Z"/><path class="cls-3" d="M18.2,11.09c0-.1,0-.14.06-.1a.42.42,0,0,1,0,.25,2,2,0,0,1-.14.68.84.84,0,0,1-.26.48c-.09.06-.15.06-.16,0s0-.1.06-.18a2.52,2.52,0,0,0,.24-.56,3.27,3.27,0,0,0,.17-.6Z"/><path class="cls-3" d="M19.88,11.5c0-.2,0-.31,0-.34s.07.05.09.26a3.64,3.64,0,0,0,.24,1c.07.14.1.23.08.28s-.07,0-.18-.08a.94.94,0,0,1-.21-.5l-.06-.64Z"/><path class="cls-3" d="M18.17,12.55a1.49,1.49,0,0,1,.64-.13,1.7,1.7,0,0,1,1.14.46c.1.09.13.15.11.18s-.06,0-.14-.05a1.33,1.33,0,0,0-.43-.2,2.78,2.78,0,0,0-.63-.14l-.55,0a1.86,1.86,0,0,0-.41.11l-.18,0s0,0,0-.08a1.19,1.19,0,0,1,.41-.23Z"/><path class="cls-3" d="M16.41,13.72c-.12-.05-.19-.12-.2-.2s.07-.13.22-.13a.79.79,0,0,1,.53.31,1.44,1.44,0,0,1,.36.52c0,.13,0,.19,0,.2s-.09,0-.14-.12a1.71,1.71,0,0,0-.75-.58Z"/><path class="cls-3" d="M18.91,14.14a1.81,1.81,0,0,1,1.08.49c.1.1.15.17.14.23s-.06,0-.17-.06a2.25,2.25,0,0,0-1.22-.44,2.5,2.5,0,0,0-1.22.21h-.18s0-.1.14-.16a2.16,2.16,0,0,1,1.43-.28Z"/><path class="cls-3" d="M20.19,14.55a1.39,1.39,0,0,1,.51-.43.93.93,0,0,1,.64-.15c.05,0,.08.07.1.16s0,.15-.08.15a2,2,0,0,0-.48.08,1.29,1.29,0,0,0-.56.31c-.08.09-.13.11-.16.06s0-.11,0-.18Z"/><path class="cls-3" d="M17,12.64l.07-.15-.67-.6a5.25,5.25,0,0,0-1.24-.76,3.76,3.76,0,0,0-.3.44,2.4,2.4,0,0,0-.29.84l1.21.06.81.12.41.05ZM14.66,11.5a2.5,2.5,0,0,1,.35-.41.42.42,0,0,1-.24-.2c0-.07.09-.06.33,0a4.59,4.59,0,0,1,1.25.71,3.77,3.77,0,0,1,.78.77c.08.12.11.19.08.19l-.07,0-.06.11.05.06s-.07.06-.21,0l-1.17-.11-1.29-.06c-.22,0-.33,0-.34-.05s.09-.09.28-.13a2,2,0,0,1,.26-.91Z"/><path class="cls-3" d="M22.85,11.62q.42-.06.42,0c0,.07-.1.11-.28.14a1.07,1.07,0,0,1,.35.45,1.57,1.57,0,0,1,.19.8c.14,0,.21.06.22.1s-.08.07-.24.07l-1.42,0-1.37,0c-.11,0-.15,0-.14,0l.07-.06a.37.37,0,0,1-.08-.15h-.1s0-.07.07-.14a4.15,4.15,0,0,1,.94-.7,4.09,4.09,0,0,1,1.37-.57ZM23.38,13a2.23,2.23,0,0,0-.22-.7,2.15,2.15,0,0,0-.34-.51,3.83,3.83,0,0,0-1.34.54,6.16,6.16,0,0,0-.8.59l.07.17,1.43-.07,1.2,0Z"/><path class="cls-3" d="M15.77,11.39l.1.08a.67.67,0,0,0-.3.58.64.64,0,0,0,.18.47l-.19,0a.89.89,0,0,1-.12-.45.77.77,0,0,1,.33-.66Z"/><path class="cls-3" d="M16.9,12.29l.1.1a.74.74,0,0,1-.21.28l-.15,0a.67.67,0,0,0,.26-.34Z"/><path class="cls-3" d="M21,12.65a.67.67,0,0,0,.28.55h-.17a.78.78,0,0,1-.23-.53l.13-.13v.1Z"/><path class="cls-3" d="M22.55,12.65a.76.76,0,0,1-.2.53h-.18a.67.67,0,0,0,.21-.54A.63.63,0,0,0,22,12l.15-.06a.94.94,0,0,1,.27.29.79.79,0,0,1,.1.4Z"/><path class="cls-3" d="M21.7,12.61a.74.74,0,0,1-.05.28c0,.08-.08.12-.14.12s-.09,0-.12-.12a.61.61,0,0,1-.06-.28.54.54,0,0,1,.06-.27q0-.12.12-.12s.1,0,.14.12a.68.68,0,0,1,.05.27Z"/><path class="cls-3" d="M16.65,12.16a.51.51,0,0,1-.06.25.13.13,0,0,1-.26,0,.49.49,0,0,1-.06-.25.53.53,0,0,1,.06-.26.13.13,0,0,1,.26,0,.53.53,0,0,1,.06.26Z"/><path class="cls-11" d="M22.21,12.37c0,.13-.05.19-.17.19a.17.17,0,0,1-.12-.05.17.17,0,0,1-.06-.14.18.18,0,0,1,.06-.14.14.14,0,0,1,.11-.06.16.16,0,0,1,.13.06.17.17,0,0,1,.05.14Z"/><path class="cls-11" d="M16.19,11.89a.18.18,0,0,1-.06.13.15.15,0,0,1-.13.05.17.17,0,0,1-.14-.05.21.21,0,0,1,0-.13.19.19,0,0,1,0-.13A.2.2,0,0,1,16,11.7a.18.18,0,0,1,.13.06.16.16,0,0,1,.06.13Z"/><path class="cls-3" d="M23.21,15.09q0-.19,0-.18s.1.09.18.25l.08.34,0,.31a.74.74,0,0,1-.34.65,1.71,1.71,0,0,1-.84.13,2.79,2.79,0,0,1-.77-.16l-.84-.33a10.32,10.32,0,0,0-1-.3l-1-.21-1.29-.09-1.38,0-1.11.05a1.17,1.17,0,0,1-1.09-.43.86.86,0,0,1-.08-.36,1,1,0,0,1,.07-.37.87.87,0,0,1,.27-.38c.11-.09.18-.13.2-.12s0,.07-.07.15a1.23,1.23,0,0,0-.15.43.73.73,0,0,0,0,.48,1,1,0,0,0,.9.39h1l1.47,0,1.36.09a10,10,0,0,1,1.84.49l.87.3a2.73,2.73,0,0,0,.67.14,1.63,1.63,0,0,0,.55-.08.8.8,0,0,0,.43-.27,1.34,1.34,0,0,0,0-.9Z"/><path class="cls-3" d="M23.37,15.15c1.06,0,1.6.48,1.61,1.39a3.25,3.25,0,0,1-.22,1.08,2.78,2.78,0,0,1-.45.81,4.93,4.93,0,0,1-3,1.5,11.47,11.47,0,0,1-3.21.13,8,8,0,0,1-4.71-1.8,2.91,2.91,0,0,1-1.08-3.12,1.47,1.47,0,0,1,.58-.85A1.76,1.76,0,0,1,14.14,14c0,.07,0,.11-.13.14a1.2,1.2,0,0,0-.8.24,1.63,1.63,0,0,0-.58.77,1.84,1.84,0,0,0,0,1.33,3.46,3.46,0,0,0,.93,1.43,7.47,7.47,0,0,0,4.65,1.89l.76,0,1.62-.07a5,5,0,0,0,3.47-1.54,2.59,2.59,0,0,0,.5-1,2.43,2.43,0,0,0,.07-1,.86.86,0,0,0-.38-.6,1.58,1.58,0,0,0-.79-.27l0-.08,0-.1Z"/></g></g></svg>