<svg xmlns="http://www.w3.org/2000/svg" viewBox="0 0 52.16 51"><defs><style>.cls-1{fill:#0d131a;}.cls-1,.cls-10,.cls-11,.cls-2,.cls-3,.cls-4,.cls-5,.cls-6,.cls-7,.cls-8,.cls-9{fill-rule:evenodd;}.cls-2{fill:#efe908;}.cls-3{fill:#e50020;}.cls-4{fill:#ddd583;}.cls-5{fill:#d18200;}.cls-6{fill:#f29600;}.cls-7{fill:#008086;}.cls-8{fill:#00666c;}.cls-9{fill:#fff;}.cls-10{fill:#dbdcdc;}.cls-11{fill:#fff697;}</style></defs><title>Asset 88@</title><g id="Layer_2" data-name="Layer 2"><g id="Layer_1-2" data-name="Layer 1"><path class="cls-1" d="M36.7,19.57l-.1-.07.13.26A.84.84,0,0,0,37,20l.21.18V20q0-.15-.48-.45ZM41,17.38a4.06,4.06,0,0,1,.34-.81l.24-.44a.2.2,0,0,1,.24-.09.19.19,0,0,1,.13.21l-.07,1a12.57,12.57,0,0,0,0,1.42.61.61,0,0,0,.1.28l.2.16.31.18a1,1,0,0,1,.31.31,2.91,2.91,0,0,1,.34,1.27,3.1,3.1,0,0,1,0,1.18.41.41,0,0,0,0,.24.63.63,0,0,0,.13.21l.17.1.14.11.06.25a.34.34,0,0,1-.1.2l-.16.22a.57.57,0,0,0-.09.28l.05.3a.91.91,0,0,1,0,.38.28.28,0,0,1-.27.2H42.6a.9.9,0,0,0-.26.13.72.72,0,0,0-.19.39.63.63,0,0,0,0,.37l.14,0,.16.05.23.05a.28.28,0,0,1,.15.21l-.11.16-.2.24-.27.28c-.12.13-.14.22-.08.28s.13,0,.25-.21a3.2,3.2,0,0,1,.41-.52,2.5,2.5,0,0,1,.94-.6q.6-.22.6-.18l-.11.14-.11.14c.31-.15.76-.34,1.32-.55l.34-.05c.18,0,.26,0,.27,0s-.06.11-.2.21l-.27.19-1.85,1.45a2.44,2.44,0,0,0-.57.67,2.22,2.22,0,0,0-.32.6.42.42,0,0,1-.18.25l-.26.15-.14.1v0a1.52,1.52,0,0,1,0,.56l-.16.16-.16.14A16.35,16.35,0,0,1,44.19,35a9.35,9.35,0,0,1-1.38,7.25,11.53,11.53,0,0,1-6.55,5,14.29,14.29,0,0,1-3.75.42l-4.1-.29a13.28,13.28,0,0,1-6.49-2.64,14.39,14.39,0,0,1-1.75-1.54l-.67-.75.12-.6,11.71-3.15.2.85.33-.3a.33.33,0,0,0,0-.24.27.27,0,0,0-.09-.15l1.65.81a4.46,4.46,0,0,0,3.38.28,6.52,6.52,0,0,0,3.6-3.13A6.35,6.35,0,0,0,41.2,33a9.89,9.89,0,0,0-.86-3.32,1.23,1.23,0,0,0-.6.1.9.9,0,0,1-.4.29,1.24,1.24,0,0,1-1-.29l0,0c-.13-.09-.18-.27-.16-.55l0-.22-.06-.16a.5.5,0,0,0-.18-.11l-.3-.12-.29,0-.36.15a2.59,2.59,0,0,1-.5.26c-.21.06-.38-.09-.51-.44l-.16-.61,0-.11-.16-.35a.41.41,0,0,1,0-.4,2,2,0,0,0,.15-.6,3.79,3.79,0,0,0,.07-.73v-.3a1,1,0,0,1,.08-.39,1.91,1.91,0,0,1,.2-.31l.24-.39.07-.28,0-.25a1.52,1.52,0,0,1-.06-.49l0-.35a1.28,1.28,0,0,1,.07-.37,3.63,3.63,0,0,1,.2-.35.7.7,0,0,0,.11-.29,6.87,6.87,0,0,0-.25-.82,5.41,5.41,0,0,1-.29-.91,5.51,5.51,0,0,1,0-.61v-.29a.17.17,0,0,1,.08-.14l-.64-.56a.24.24,0,0,1-.07-.13.15.15,0,0,1,0-.14.15.15,0,0,1,.11-.08l.14,0a5,5,0,0,0,.86.38h.38l.17,0a1,1,0,0,1,.83.39l.06.06L38,18.34a2.6,2.6,0,0,1,.22-1,10.9,10.9,0,0,1,.46-1,3.11,3.11,0,0,0,.19-.91L39,14.5a.17.17,0,0,1,.15-.19.18.18,0,0,1,.22.1l.09.25a1.56,1.56,0,0,1,.1.55,3.66,3.66,0,0,0,.1.67l-.07-.58a.23.23,0,0,1,0-.14.2.2,0,0,1,.13-.09.21.21,0,0,1,.15,0,.17.17,0,0,1,.08.12l.07.29a3.25,3.25,0,0,0,.18.53,1.07,1.07,0,0,1,.09.49l-.06.48,0,.33a1.48,1.48,0,0,0,.4.77l.17.23.08.14,0-.31a4.78,4.78,0,0,1,.11-.8Z"/><path class="cls-2" d="M40.6,21.39l.13-.07s0,.09,0,.22a3,3,0,0,0-.06.71,2.4,2.4,0,0,0,.08.65,1.07,1.07,0,0,0,.21.41.73.73,0,0,1,.13.33,4,4,0,0,1-.06.71.11.11,0,0,0,0,.1s.07,0,.14-.05a1,1,0,0,0,.16-.32.45.45,0,0,0,0-.26.61.61,0,0,1,.06-.33l.11-.24c0-.08.09-.12.13-.1l0,.12,0,.37.09.13,0,.21a3.29,3.29,0,0,1-.2.55l-.17.48a1,1,0,0,0-.06.37c0,.23.07.34.14.34l.05-.09.06-.2.23-.44a1.69,1.69,0,0,1,.28-.32,1.17,1.17,0,0,0-.16.6.8.8,0,0,0,.07.31c0,.08.13.13.29.17s.23.07.24.14,0,.16-.16.26l-.27.23a.47.47,0,0,0-.11.28.25.25,0,0,0,.11.26c.1.06.24,0,.42-.28l.41-.56a5.33,5.33,0,0,1,1-.56l-.46.39a1.17,1.17,0,0,0-.19.26l-.07.15.28-.2.62-.37a12.1,12.1,0,0,1,1.43-.6l-1.9,1.36a4.12,4.12,0,0,0-.66.66,2.28,2.28,0,0,0-.37.61,1.08,1.08,0,0,1-.3.38l-.34.25a.24.24,0,0,0,0,.21V29a.34.34,0,0,1-.14.22l-1.07-1.15-.46-.41-.25-.18.53.71-.41,0-.09.13-.3-.54,0,.24a6.13,6.13,0,0,0,.22.79l-.31,0-.18.06h-.13c-.13-.12-.21-.2-.22-.25a.11.11,0,0,1,0-.08l.05-.07a.79.79,0,0,0,.06-.46.85.85,0,0,0-.15-.45,1.72,1.72,0,0,0-.43-.34,1.13,1.13,0,0,0-.53-.19.55.55,0,0,0-.23.08l-.25.11c-.09,0-.17,0-.23-.12a2.73,2.73,0,0,1-.24-.68c-.06-.27-.06-.44,0-.5a3.23,3.23,0,0,1,.64-.35l.37-.21a.43.43,0,0,0,.19-.22c.06-.16,0-.35-.19-.58a.74.74,0,0,1-.16-.84.68.68,0,0,1,.42-.31,1.14,1.14,0,0,0,.42-.31l.22-.41.19-.57c.05-.18.1-.26.14-.26s.05.07.06.2a2.36,2.36,0,0,1,0,.53l-.06.34c0,.07,0,.11,0,.13a.13.13,0,0,0,.13,0,.63.63,0,0,0,.33-.23,1.63,1.63,0,0,0,.22-.66,1.68,1.68,0,0,1,.25-.64l.18-.22Z"/><path class="cls-3" d="M41.14,17.43a3.92,3.92,0,0,1,.34-.78l.23-.41-.07,1a9.65,9.65,0,0,0,0,1.47.72.72,0,0,0,.31.54,1.91,1.91,0,0,1,.52.45,3.48,3.48,0,0,1,.37,1.19,2.62,2.62,0,0,1,0,1.11.6.6,0,0,0,.09.51l.27.36c0,.09,0,.16,0,.2a.91.91,0,0,0-.15.23.88.88,0,0,0-.06.35,1.23,1.23,0,0,1-.08.44.45.45,0,0,1-.32.31,1,1,0,0,0-.43.2l-.11.15a2,2,0,0,0-.4.63l-.08.27-.07.13s-.06,0-.09-.08l-.07-.26a1,1,0,0,1,0-.36l.13-.41.16-.38.08-.28v-.18l-.06-.08a.27.27,0,0,1-.06-.17l0-.27c0-.07,0-.11,0-.12s-.1.08-.18.25a.79.79,0,0,0-.09.38v.25c-.1.3-.21.44-.32.42s-.1-.11-.06-.27l0-.51a.61.61,0,0,0-.11-.35,1.1,1.1,0,0,1-.2-.36,3.31,3.31,0,0,1-.13-1.06,2.29,2.29,0,0,1,.09-.42c.07-.23,0-.22-.2,0a1.61,1.61,0,0,0-.3.65,2.21,2.21,0,0,1-.3.81.55.55,0,0,1-.16.11.37.37,0,0,1-.2.06l-.09-.06,0-.08.1-.75c0-.22,0-.33,0-.33s0,0-.08.14l-.1.32a2.43,2.43,0,0,1-.29.69l-.27.25-.28.17a.56.56,0,0,0-.19.1.49.49,0,0,0-.15.21.64.64,0,0,0,0,.49l.2.33.17.28a.42.42,0,0,1,0,.27.58.58,0,0,1-.21.22l-.48.27a1.53,1.53,0,0,0-.51.3c-.12.12-.05.51.22,1.15,0,.09.12.13.2.1l.24-.1a.71.71,0,0,1,.31-.09,1.14,1.14,0,0,1,.49.22,2,2,0,0,1,.42.31.73.73,0,0,1,.15.41,1.44,1.44,0,0,1,0,.42l-.11.18a.11.11,0,0,0,0,.13l.14.13a.16.16,0,0,0,.15.05l.2-.06.28,0,.16.42h-.07c-.11,0-.25.05-.42.23l-.38.34c-.15,0-.43-.08-.86-.37a.23.23,0,0,1-.11-.21.75.75,0,0,0,0-.32.49.49,0,0,0-.26-.29,2.21,2.21,0,0,1-.4-.18l-.55,0-.52.21c-.12,0-.25-.06-.38-.25a1.93,1.93,0,0,1-.25-.52l-.11-.38a.49.49,0,0,1,.08-.35,2.2,2.2,0,0,0,.11-.8v-.9a.81.81,0,0,1,.16-.47l.34-.53a.87.87,0,0,0,.07-.55,2.69,2.69,0,0,1-.07-.55,3,3,0,0,1,.22-.72,1.54,1.54,0,0,0,.17-.67,4.08,4.08,0,0,0-.25-.85,7.2,7.2,0,0,1-.28-.88,3.7,3.7,0,0,1,0-.6v-.27l0,.14a1.82,1.82,0,0,0,.16.36,1.44,1.44,0,0,0,.3.33,1.71,1.71,0,0,1,.33.34,1,1,0,0,1,.14.37,3.55,3.55,0,0,0,.06-.91.63.63,0,0,0-.29-.4l-.44-.3a5.52,5.52,0,0,1-.55-.46l-.38-.34.35.18a3.91,3.91,0,0,0,.55.23l.32,0,.3-.06a.83.83,0,0,1,.67.33.54.54,0,0,1,.11.3,1.07,1.07,0,0,0,.19.44,1.47,1.47,0,0,1,.3.56c-.17-1.15-.28-1.87-.3-2.16a2.63,2.63,0,0,1,.24-.94,9.59,9.59,0,0,1,.43-1,3.52,3.52,0,0,0,.22-1.13l0-.79.09.21a1.73,1.73,0,0,1,.08.49,4,4,0,0,0,.09.65l.11.67q0,.41.06.33a1.42,1.42,0,0,0,.21-.43,3.11,3.11,0,0,0,0-1.16l.07.3.2.57a1.17,1.17,0,0,1,.05.58l-.08.61a.91.91,0,0,0,.21.6l.39.54a1.34,1.34,0,0,1,.23.66,2,2,0,0,0,.2-.53l0-.51a3.1,3.1,0,0,1,.09-.66Z"/><path class="cls-4" d="M22.1,44.36a15.81,15.81,0,0,1-1.75-1.47l-.61-.65,5.61-1.51a10.33,10.33,0,0,0,2,2.68,8.63,8.63,0,0,0,4.41,2.33,11.28,11.28,0,0,0,9-2.06,9,9,0,0,0,1.66-1.56A11.08,11.08,0,0,1,36,46.87a14,14,0,0,1-3.59.37l-3.89-.3a13.62,13.62,0,0,1-6.46-2.58Z"/><path class="cls-5" d="M25.94,40.59l2.54-.69a7.28,7.28,0,0,0,3,2.86A10.06,10.06,0,0,0,40.1,43,7.53,7.53,0,0,0,43,40.75a7.73,7.73,0,0,1-2.44,2.72,11.3,11.3,0,0,1-8.78,1.91,7.63,7.63,0,0,1-4.08-2.22,11.22,11.22,0,0,1-1.8-2.57Z"/><path class="cls-6" d="M40.15,28.16l-.1-.57.29.26.26.36.88,1.18a15.15,15.15,0,0,1,1.87,3.78,11.21,11.21,0,0,1,.72,3.6,8.17,8.17,0,0,1-1,4A7.53,7.53,0,0,1,40.1,43a10.06,10.06,0,0,1-8.62-.25,7.28,7.28,0,0,1-3-2.86l3-.8.16.15a14.18,14.18,0,0,0,1.61.86,4.88,4.88,0,0,0,3.68.28,6.94,6.94,0,0,0,3.91-3.33A6.44,6.44,0,0,0,41.59,33a12.4,12.4,0,0,0-1-3.51,11.83,11.83,0,0,0-.68-1.38l-.07-.34.29.39Z"/><path class="cls-5" d="M27.29,42.67a12.49,12.49,0,0,1-1.35-2.08l5.5-1.49,0,0a1.58,1.58,0,0,0,.31.22,5.53,5.53,0,0,1,.15,1.28,5.82,5.82,0,0,1-1.81,4.2,8,8,0,0,1-2.82-2.17Z"/><path class="cls-4" d="M21.14,43.62A6.26,6.26,0,0,1,20.49,42l4.86-1.31a9.94,9.94,0,0,0,1.47,2.1,9.17,9.17,0,0,0,3,2.27,5.89,5.89,0,0,1-1.68,1,6,6,0,0,1-2,.36,14.85,14.85,0,0,1-5-2.81Z"/><path class="cls-1" d="M14.43,6.52l-2.1,2.32a2.23,2.23,0,0,0-.13,1,10.37,10.37,0,0,0,.19,2,9.89,9.89,0,0,0,.52,1.71,5.93,5.93,0,0,0,.7,1.44l1.07,1.21,1,1.11A2.67,2.67,0,0,1,16,18.36a11.79,11.79,0,0,0,.33,1.7,6,6,0,0,0,.45,1c.13.23.32.54.58.93a10.53,10.53,0,0,0,1.22,1.48l.32-.13.38,0a.45.45,0,0,1,.27.36l.1.49.45.3a.41.41,0,0,1,.17.28.37.37,0,0,1-.08.3l-1.05,1.36-.66,1.68a.4.4,0,0,1-.31.25.56.56,0,0,1-.29-.07l-.26-.18A18,18,0,0,0,16,26.42a4.69,4.69,0,0,0-1.94-1.26,2.24,2.24,0,0,0-1.08.09c-.11,0-.4.18-.86.41a3.17,3.17,0,0,1-.63.27.81.81,0,0,1-.58,0,.43.43,0,0,1-.23-.37v-.33l0-.16a1.49,1.49,0,0,0-.21-.92,1.85,1.85,0,0,0-.67-.61A3,3,0,0,0,8.24,23a7.53,7.53,0,0,0-4.45,1.76A13.34,13.34,0,0,0,1.48,27a3,3,0,0,0,0,.74l0,.47a1.25,1.25,0,0,1-.17.64.54.54,0,0,1-.43.28.61.61,0,0,1-.43-.18,1,1,0,0,1-.27-.65v-.05c-.1-1.14-.17-2-.2-2.71,0-.44,0-.71,0-.8.09-.6.28-1.53.58-2.81s.53-2.2.76-3,.51-1.64.95-2.82.68-1.78.8-2a25.62,25.62,0,0,1,2-2.44A28.14,28.14,0,0,1,7.18,9.34,4.93,4.93,0,0,1,8.31,8.7l.46-.21.36-.18,1.79-1.39,1.84-1.41a2.57,2.57,0,0,1,1-.46.76.76,0,0,1,.77.21.78.78,0,0,1,.17.56,1.08,1.08,0,0,1-.3.7Z"/><path class="cls-7" d="M7.13,12.47A15.17,15.17,0,0,1,9,11a2.88,2.88,0,0,1,1,.11,1.53,1.53,0,0,1,.78.37c.05.1.35,1,.91,2.79l.4,1.18a11.13,11.13,0,0,0,2.11,2.1,4.37,4.37,0,0,1,.65,1.58l.17.58L15.35,21l.46,1.89a1.47,1.47,0,0,0,.28.67,6.19,6.19,0,0,1,1.09,1,6,6,0,0,1,.49,1.05l.68,1.71L18.1,28a17.65,17.65,0,0,0-1.37-1.36A5.91,5.91,0,0,0,14.23,25a3.29,3.29,0,0,0-2,.31l-.66.31a.56.56,0,0,1-.46.05c-.05,0-.09-.13-.11-.3v-.24a.83.83,0,0,0,.05-.31,1.74,1.74,0,0,0-.24-.84A2,2,0,0,0,10,23.3a3.6,3.6,0,0,0-1.81-.44A7.56,7.56,0,0,0,4,24.34a13.89,13.89,0,0,0-2.5,2.2,30.37,30.37,0,0,1,.17-3.26c.21-.85.65-2.23,1.33-4.15a20.17,20.17,0,0,1,2.17-4.86,18.78,18.78,0,0,1,2-1.8Z"/><path class="cls-6" d="M14.05,6.33c-1.21,1.29-1.93,2.08-2.17,2.37a2.46,2.46,0,0,0-.15,1.4A17,17,0,0,0,12,11.81a8.58,8.58,0,0,0,.59,1.77,6.65,6.65,0,0,0,.82,1.55l2,2.31a3,3,0,0,1,.36,1.18A10.19,10.19,0,0,0,16,20a9.38,9.38,0,0,0,.38,1l.48.94a8.15,8.15,0,0,0,.9,1.25,4.06,4.06,0,0,0,.7.75l.25-.08a.37.37,0,0,1,.3-.06c.14,0,.22.24.27.6l.6.39-1.09,1.42-.15.37a14,14,0,0,0-1.12-2.25,7.88,7.88,0,0,0-1.27-1.22,13.7,13.7,0,0,1-.7-2.36l-.35-1.33L15,18.86,14.75,18a1.4,1.4,0,0,0-.36-.57l-1.11-1.08a5.3,5.3,0,0,1-.88-1L12,14.18c-.64-1.91-1-2.9-1-3a1.49,1.49,0,0,0-1-.5,2.92,2.92,0,0,0-1.15-.11,10.28,10.28,0,0,0-2,1.57,20.51,20.51,0,0,0-2,1.87,20.57,20.57,0,0,0-2.25,5.2c-.46,1.36-.85,2.66-1.2,3.9a36,36,0,0,0-.19,3.78l-.06,1.27a.65.65,0,0,1-.07.29c0,.08-.09.12-.14.12a.18.18,0,0,1-.15-.06.67.67,0,0,1-.1-.33L.58,26.71.5,25.31a15.59,15.59,0,0,1,.42-2.73c.24-1.18.47-2.14.7-2.89.33-1.12.74-2.33,1.21-3.61.39-1.06.64-1.68.75-1.88a24.54,24.54,0,0,1,1.84-2.31,25.72,25.72,0,0,1,2-2.24,6.71,6.71,0,0,1,1.32-.71c.32-.15.63-.28.91-.39l3.2-2.63a2.49,2.49,0,0,1,.79-.46q.4-.12.54.06a.6.6,0,0,1-.14.81Z"/><path class="cls-8" d="M10.61,13.23a2.94,2.94,0,0,0-.49-.15L9.58,13c-.33.23-.94.72-1.83,1.48A16.53,16.53,0,0,0,6.08,16,20.27,20.27,0,0,0,4,20.73C3.3,22.62,2.85,24,2.63,24.83l0,.61c-.37.33-.73.7-1.1,1.1a30.37,30.37,0,0,1,.17-3.26c.21-.85.65-2.23,1.33-4.15a20.17,20.17,0,0,1,2.17-4.86,18.78,18.78,0,0,1,2-1.8A15.17,15.17,0,0,1,9,11a2.88,2.88,0,0,1,1,.11,1.53,1.53,0,0,1,.78.37c.05.1.35,1,.91,2.79l.4,1.18a11.13,11.13,0,0,0,2.11,2.1,4.37,4.37,0,0,1,.65,1.58l.17.58L15.35,21l.46,1.89a1.47,1.47,0,0,0,.28.67,6.19,6.19,0,0,1,1.09,1,6,6,0,0,1,.49,1.05l.68,1.71L18.1,28l-.63-.65a7.57,7.57,0,0,0-.41-.93,5.28,5.28,0,0,0-.94-.9,1,1,0,0,1-.39-.54,10.89,10.89,0,0,1-.33-1.19l-.29-1.22-.33-1.26-.19-.61c-.11-.39-.22-.88-.33-1.45l-.13-.73-2-1.73a2.34,2.34,0,0,1-.66-.92l-.84-2.59Z"/><path class="cls-1" d="M51.19,19.17a18.71,18.71,0,0,1,.61,3,25.44,25.44,0,0,1,.36,3.05v.16l0,3.15q-.09.89-.75.87a.44.44,0,0,1-.41-.26,2.26,2.26,0,0,1-.11-.81,3.24,3.24,0,0,0-.07-.65c-1-.95-2-1.9-3-2.85a15.26,15.26,0,0,0-2.9-2.23,5,5,0,0,0-2.19-.34,4.27,4.27,0,0,0-1.53.28,6,6,0,0,0-1,1.07l-.62.68a.72.72,0,0,1-.41.23l-.27,0-.43-.18a12.85,12.85,0,0,0-1.6-.62,3.18,3.18,0,0,0-2,0,14.19,14.19,0,0,0-2.57,1.45,10.49,10.49,0,0,0-1.45,1.11A13.4,13.4,0,0,0,30,27.64l-1.24,2.45a.46.46,0,0,1-.41.19.4.4,0,0,1-.36-.2l-3.27-5.49a.37.37,0,0,1,0-.38A.38.38,0,0,1,25,24l1.39,0a2.66,2.66,0,0,1,.52-1.05,1.09,1.09,0,0,1,.47-.14h.67L29.23,22,31,20.74a13.87,13.87,0,0,0,2.45-2.38A19.61,19.61,0,0,0,34,16.45c.28-1,.55-2.13.8-3.24s.42-2.07.58-3.11a13.08,13.08,0,0,0,.19-1.82,2.65,2.65,0,0,0-.43-.85A18.72,18.72,0,0,0,34,5.77a1.83,1.83,0,0,1-.4-.8,1.07,1.07,0,0,1,.14-.88.78.78,0,0,1,.49-.33,1.24,1.24,0,0,1,.7.13,2.32,2.32,0,0,1,.59.41l1.18,1.13,1.12,1.09a1.79,1.79,0,0,0,.51.13l.59.13a18.41,18.41,0,0,1,1.68.82l1.6.79a7.86,7.86,0,0,0,1.44.31l.58.08a.87.87,0,0,1,.42.15,18,18,0,0,1,2,3.09l2.1,3.71a20.67,20.67,0,0,0,1.6,2.32l.87,1.12Z"/><path class="cls-6" d="M49.49,17.77l.68.91.55.85a19.1,19.1,0,0,1,.64,2.83,21.92,21.92,0,0,1,.39,2.89v1.58l0,1.6a1.16,1.16,0,0,1-.09.37.26.26,0,0,1-.26.14c-.07,0-.12-.1-.15-.29a1.91,1.91,0,0,1,0-.43v-.64l-.49-5.31v0a30.23,30.23,0,0,0-3-6.62,25.36,25.36,0,0,0-3.28-4.81,12.33,12.33,0,0,0-3-1.25c-1.66-.56-2.55-.84-2.65-.84a1.68,1.68,0,0,0-.91.19,1.7,1.7,0,0,0-.71.64A36.71,36.71,0,0,0,35.81,14c-.21.82-.44,2-.69,3.65a12.73,12.73,0,0,1-.27,1.5,11.41,11.41,0,0,1-1.8,1.43l-.82.61a2.42,2.42,0,0,0-.52.64,7.07,7.07,0,0,0-.41.73l-.16.29a1.28,1.28,0,0,1-.39.13c-.45.11-.81.21-1.09.31s-.85.71-1.44,1.77c-.39.71-.8,1.56-1.24,2.57l-1.92-3.23,1.66-.13.17-.47a1.38,1.38,0,0,1,.32-.58,1,1,0,0,1,.6-.11l.38,0,1.37-.92,1.66-1.14c.2-.15.67-.58,1.41-1.3a14,14,0,0,0,1.16-1.19,40.2,40.2,0,0,0,1.36-5.15,28.89,28.89,0,0,0,1-5.3,4.7,4.7,0,0,0-.81-1.37l-1-1.29A1.42,1.42,0,0,1,34,4.87a.79.79,0,0,1,0-.58c.08-.14.24-.16.49-.07a2.11,2.11,0,0,1,.66.44l1.17,1.19,1.08,1.09.61.1.84.18c.2.06,1.22.54,3.07,1.43L43.23,9a5.91,5.91,0,0,1,1,.32,31.36,31.36,0,0,1,2.94,4.51l2.28,3.94Z"/><path class="cls-7" d="M50.44,22.32l.45,5q-1.5-1.41-2.88-2.61a16.11,16.11,0,0,0-3-2.28,4.94,4.94,0,0,0-2.35-.32,4.35,4.35,0,0,0-1.64.34,5.32,5.32,0,0,0-1,1,2.91,2.91,0,0,1-1,.83,1.47,1.47,0,0,1-.65-.16l-1-.41a3.64,3.64,0,0,0-2.63-.07A20,20,0,0,0,32,25a10.58,10.58,0,0,0-1.54,1,15.37,15.37,0,0,0-1.18,2l-1,1.81-1-1.58c.71-1.75,1.09-2.71,1.17-2.88.46-1,.84-1.59,1.12-1.69a10.55,10.55,0,0,1,1.2-.29l.36-.1.21-.16.19-.33.33-.77a2.13,2.13,0,0,1,.44-.68l.36-.23.52-.32,1.29-.95a2.47,2.47,0,0,0,.62-.6l.13-.51.17-1.09L35.69,16a16,16,0,0,1,.36-1.81l.77-2.94a13.42,13.42,0,0,1,.42-1.42,1.34,1.34,0,0,1,.68-.48,1.8,1.8,0,0,1,.82-.14c.24,0,1.12.32,2.63.84a12.17,12.17,0,0,1,2.75,1.12,27.1,27.1,0,0,1,3.3,4.7,27.43,27.43,0,0,1,3,6.47Z"/><path class="cls-8" d="M49.71,26.21l-.19-2.16a27.26,27.26,0,0,0-3-6.29,26.3,26.3,0,0,0-3.18-4.53,15.41,15.41,0,0,0-2.48-1c-1.26-.44-2.11-.7-2.53-.81a1.22,1.22,0,0,0-.47.09.89.89,0,0,0-.36.21c-.07.19-.37,1.28-.89,3.28l-.23.9A25.37,25.37,0,0,0,36,18.55l-.11.84-.21,1.23a2.09,2.09,0,0,1-.17.56,2.26,2.26,0,0,1-.58.65L33.36,23l-.61.38-.24.15a25.44,25.44,0,0,1-2.9,2.43A13.93,13.93,0,0,0,28,29.35h0l-.67-1.06c.71-1.75,1.09-2.71,1.17-2.88.46-1,.84-1.59,1.12-1.69a10.55,10.55,0,0,1,1.2-.29l.36-.1.21-.16.19-.33.33-.77a2.13,2.13,0,0,1,.44-.68l.36-.23.52-.32,1.29-.95a2.47,2.47,0,0,0,.62-.6l.13-.51.17-1.09L35.69,16a16,16,0,0,1,.36-1.81l.77-2.94a13.42,13.42,0,0,1,.42-1.42,1.34,1.34,0,0,1,.68-.48,1.8,1.8,0,0,1,.82-.14c.24,0,1.12.32,2.63.84a12.17,12.17,0,0,1,2.75,1.12,27.1,27.1,0,0,1,3.3,4.7,27.43,27.43,0,0,1,3,6.47l.45,5-1.18-1.09Z"/><path class="cls-1" d="M5.75,27.69l-.14,0-.25-.18a.92.92,0,0,1-.22-.71,2.31,2.31,0,0,1,.53-.95,5.54,5.54,0,0,1,.63-.72l0-.05-.29-.79,0-.08a1.07,1.07,0,0,1-.11-.37A1,1,0,0,1,6,23.35a1,1,0,0,1,.59-.59,2,2,0,0,1,.82-.1l.55.06a2.77,2.77,0,0,1,.8.89l.13.05.16,0,.53-.25a2.39,2.39,0,0,1,.54-.34.83.83,0,0,1,.52,0c.26.07.49.32.68.76a1.65,1.65,0,0,1,.17.92,2.4,2.4,0,0,1-.19.5l-.33.63-.08.15,0,.16c1,.87,1.6,1.27,1.89,1.19l.56-.13a9.28,9.28,0,0,0,1.09-.36,12.1,12.1,0,0,0,1.44-.71,3.23,3.23,0,0,1,.29-.63,1.89,1.89,0,0,1,.86-.66,4.39,4.39,0,0,1,1.57-.23c.43,0,.81,0,1.14,0l.54.05-1.85,4-.27-.05-1.25-.41-.82.41-1.16.56-.49.26-.41.25a3.35,3.35,0,0,1-1.09.4,4,4,0,0,1-2.2-.71A12.48,12.48,0,0,1,9.1,28.23a1.18,1.18,0,0,1-.48.16,1.25,1.25,0,0,1-.67-.2,1.52,1.52,0,0,1-.46-.44l-.32-.49L7,27.62l-.12.13-1.12-.06Z"/><path class="cls-6" d="M5.77,27.31a.29.29,0,0,1-.17-.06.46.46,0,0,1-.14-.43.91.91,0,0,1,.16-.45L6,25.9l.46-.44.29-.26c0-.08-.06-.44-.34-1.08a2,2,0,0,1-.18-.58c0-.22.15-.4.46-.53l.67,0,.48.08.3.35.32.42a.65.65,0,0,0,.51.23l.69-.33a1.07,1.07,0,0,1,.42-.22l.41,0c.15,0,.29.23.43.57a1.31,1.31,0,0,1,.15.68,2.7,2.7,0,0,1-.24.58l-.27.54a.63.63,0,0,0,0,.53l.91.73q1,.7,1.53.57l.67-.23,1-.39,1.49-.63a1.33,1.33,0,0,1,.19-.44,2.17,2.17,0,0,1,1-.79,4.16,4.16,0,0,1,1.45-.19l.9,0-1.5,3.23-1.06-.56c-1,.51-1.77.89-2.36,1.13-.21.09-.57.27-1.09.54a2.34,2.34,0,0,1-.74.28A3.74,3.74,0,0,1,10.89,29a12.55,12.55,0,0,1-1.56-1.16s0-.08.07-.2l.11-.18-.38.27a.68.68,0,0,1-.29.17A1,1,0,0,1,8,27.8a1.75,1.75,0,0,1-.62-.62l-.18-.36-.51.54-1-.05Z"/><path class="cls-1" d="M10.46,24.91l-.58.36a2.19,2.19,0,0,1-.68.24A.29.29,0,0,1,9,25.45c-.1-.1-.11-.35,0-.74A2.42,2.42,0,0,1,9.19,24a1,1,0,0,1,.47-.39l.56,0a.67.67,0,0,1,.37.35.83.83,0,0,1,.05.47v.1a.87.87,0,0,1-.17.46Z"/><path class="cls-1" d="M10.2,23.59l-.52,0a1,1,0,0,0-.43.36,2.23,2.23,0,0,0-.21.73c-.07.38-.06.61,0,.69a.19.19,0,0,0,.13.05,2.45,2.45,0,0,0,.66-.24,2.48,2.48,0,0,0,.56-.34.75.75,0,0,0,.15-.43l0-.1a.81.81,0,0,0-.05-.44.59.59,0,0,0-.33-.31Zm-1.06.32a1,1,0,0,1,.5-.41l.6,0a.75.75,0,0,1,.37.31.89.89,0,0,1,.11.43l0,.26a.89.89,0,0,1-.18.49,2.32,2.32,0,0,1-.6.36,2.31,2.31,0,0,1-.71.26A.34.34,0,0,1,9,25.49c-.11-.11-.13-.38-.05-.79a2.2,2.2,0,0,1,.23-.79Z"/><path class="cls-9" d="M10.1,24.54a8.36,8.36,0,0,1-1,.76s-.05-.23,0-.55a2.12,2.12,0,0,1,.17-.7.83.83,0,0,1,.35-.32.51.51,0,0,1,.43,0,.41.41,0,0,1,.28.28.81.81,0,0,1-.09.34l-.16.23Z"/><path class="cls-10" d="M10.27,24.75a2.53,2.53,0,0,1-.57.35c-.34.17-.53.24-.57.2a8.36,8.36,0,0,0,1-.76l.16-.23a.81.81,0,0,0,.09-.34.61.61,0,0,1,0,.3l0,.27-.08.21Z"/><path class="cls-1" d="M5.66,26.74a.87.87,0,0,1,.41-.18.6.6,0,0,1,.49.12.53.53,0,0,1,.2.29l.38.59a.69.69,0,0,0,.29.16l.22.06-.1.21c-.11.22-.41.31-.92.28L6,28.19a.86.86,0,0,1-.48-.36.92.92,0,0,1-.15-.41.7.7,0,0,1,0-.39l0,0a.75.75,0,0,1,.18-.26Z"/><path class="cls-1" d="M5.68,26.77a.72.72,0,0,0-.17.23l0,.05a.63.63,0,0,0,0,.37.91.91,0,0,0,.14.4.89.89,0,0,0,.47.34l.58.08c.5,0,.79-.06.88-.26l.1-.18-.19-.05a.85.85,0,0,1-.31-.17A4.71,4.71,0,0,1,6.74,27h0l0,0a.58.58,0,0,0-.19-.27.55.55,0,0,0-.45-.1.79.79,0,0,0-.39.18Zm-.15,1.08a.93.93,0,0,1-.17-.53.7.7,0,0,1,.07-.3l0,0a.85.85,0,0,1,.19-.27.81.81,0,0,1,.42-.18.56.56,0,0,1,.48.1.66.66,0,0,1,.23.29l.39.62a.65.65,0,0,0,.28.14l.22.07,0,0h0L7.58,28c-.11.22-.43.32-1,.29L6,28.22a1,1,0,0,1-.51-.37Z"/><path class="cls-9" d="M5.65,27.12l.11-.18a.63.63,0,0,1,.33-.14.33.33,0,0,1,.35.12.26.26,0,0,1,.09.16l.16.26.25.36a.72.72,0,0,0,.37.21c-.86.13-1.42-.14-1.66-.79Z"/><path class="cls-10" d="M5.71,27.73a.64.64,0,0,1-.11-.31.59.59,0,0,1,0-.27l0,0c.24.65.8.92,1.66.79,0,0-.06.07-.13.1l-.58.06L6.09,28a.71.71,0,0,1-.38-.28Z"/><path class="cls-1" d="M7.32,23.52a.73.73,0,0,1,.19.58.59.59,0,0,1-.18.42L7,24.81l-.31.35a.83.83,0,0,0-.1.45l-.06.19h-.2A.86.86,0,0,1,6,25.57a1.2,1.2,0,0,1-.35-.92,2.05,2.05,0,0,1,.47-1.18.62.62,0,0,1,.24-.15,1.25,1.25,0,0,1,.31-.07.81.81,0,0,1,.66.27Z"/><path class="cls-1" d="M6.05,23.43a.66.66,0,0,1,.27-.17l.33-.07a.83.83,0,0,1,.72.29.88.88,0,0,1,.21.63.76.76,0,0,1-.21.47l-.3.27a3,3,0,0,0-.31.34,1,1,0,0,0-.09.44l0,.18,0,0H6.33a.88.88,0,0,1-.39-.25,1.27,1.27,0,0,1-.37-1,2.16,2.16,0,0,1,.48-1.22ZM7,24.77l.31-.3a.46.46,0,0,0,.16-.37V24a.72.72,0,0,0-.79-.72l-.29.06-.21.13a2.05,2.05,0,0,0-.46,1.14A1.18,1.18,0,0,0,6,25.5a.82.82,0,0,0,.35.23H6.5l0-.13a1,1,0,0,1,.11-.48A2.47,2.47,0,0,1,7,24.77Z"/><path class="cls-9" d="M7,24.27l-.44.4a.91.91,0,0,0-.14.87v0a.82.82,0,0,1-.28-.18,1.09,1.09,0,0,1-.28-.78A1.6,1.6,0,0,1,6,24a3.14,3.14,0,0,1,.26-.45.56.56,0,0,1,.41-.11.63.63,0,0,1,.51.2l.07.09a1,1,0,0,1-.26.55Z"/><path class="cls-10" d="M7.25,24.34a3.25,3.25,0,0,0-.67.62,1.5,1.5,0,0,0-.13.58.91.91,0,0,1,.14-.87l.44-.4a1,1,0,0,0,.26-.55.59.59,0,0,1,.07.39.35.35,0,0,1-.11.23Z"/><path class="cls-5" d="M7.23,26a1.29,1.29,0,0,1,.37-.89,1.21,1.21,0,0,1,.85-.41A1.54,1.54,0,0,0,8,25.88a.9.9,0,0,0,.58.55,2.39,2.39,0,0,0,.84.2L9.12,27a.68.68,0,0,1-.44.16,1.6,1.6,0,0,1-1-.33A1,1,0,0,1,7.23,26Z"/><path class="cls-1" d="M8.29,24.91c.23-.36.37-.53.41-.49l-.3.51a1.42,1.42,0,0,0-.22.91c0,.18.21.34.52.49a1.88,1.88,0,0,0,.78.2,1.39,1.39,0,0,0,.54-.12l.24-.11a1.07,1.07,0,0,1-.79.33,2.1,2.1,0,0,1-.85-.2c-.35-.15-.55-.33-.6-.55a1.35,1.35,0,0,1,.27-1Z"/><path class="cls-1" d="M16.33,32.48l.39-.18L21.39,43l-.58.07a7.12,7.12,0,0,0-.9.18,3.51,3.51,0,0,0-.62.4l-.47.31a2.42,2.42,0,0,1,.34.85,1.56,1.56,0,0,1,.06.7,1,1,0,0,1-.27.44.88.88,0,0,1-.4.24,8.44,8.44,0,0,0-1.29.37,5.84,5.84,0,0,0-.93.54l-.6.42-.24.23a1,1,0,0,1-.44.17,1.94,1.94,0,0,1-.72-.12l-.54.12-.57.14-.66.26-.28.14a.59.59,0,0,1-.32.08c-.1,0-.14-.13-.11-.31A2.31,2.31,0,0,1,12,47.6l.15-.31-1.31.07a2.52,2.52,0,0,0-.47.13l-.31.14-.27,0a.12.12,0,0,1-.05-.15,2.11,2.11,0,0,1,.14-.5,2.89,2.89,0,0,1,.71-1h-.56a1.65,1.65,0,0,0-.65.11c-.25.12-.32,0-.22-.32a2,2,0,0,1,.74-.87,4.07,4.07,0,0,1,.75-.46,3.37,3.37,0,0,1,.57-.22h.24l.9-.57a4.56,4.56,0,0,0,.72-.62l.34-.41.07-.33L13.1,42a2.92,2.92,0,0,1-.53-.52,4.31,4.31,0,0,1-.87-1.78,5.5,5.5,0,0,1,1-3.45,11.13,11.13,0,0,1,2.5-2.8c.91-.69,1.29-1,1.15-.94Z"/><path class="cls-6" d="M15.33,33.66a5.46,5.46,0,0,1,.84-.6l.33-.18,4.25,9.74a5.69,5.69,0,0,0-1,.2,1.77,1.77,0,0,0-.57.36,3.07,3.07,0,0,1-.6.44,3.31,3.31,0,0,0-.38.24L18,44l.2,0a1.21,1.21,0,0,1,.28.07.76.76,0,0,1,.18.38l.13.6a1.36,1.36,0,0,1-.65.44,7.54,7.54,0,0,1-.76.24,5.26,5.26,0,0,0-.81.25,4,4,0,0,0-.79.37l-.54.34a1.24,1.24,0,0,1-.46.17l-.36.54A10.82,10.82,0,0,1,13,46.81,7.39,7.39,0,0,1,11.64,46a1.69,1.69,0,0,1-.61-.83l0-.3,1.63-1a5.07,5.07,0,0,0,.78-.69,2.19,2.19,0,0,0,.35-.49l0-.2.29.09.76.06-.4-.09-.31-.12a1.45,1.45,0,0,1-.29-.14l-.17-.11a3.18,3.18,0,0,1-.7-.78,3.42,3.42,0,0,1-.7-1.69,5.16,5.16,0,0,1,.74-3.23,9.27,9.27,0,0,1,2.27-2.77Z"/><path class="cls-5" d="M18.14,45.53a1.36,1.36,0,0,0,.65-.44,1.31,1.31,0,0,1,0,.37.7.7,0,0,1-.34.36l-.4.15-.86.26a3.73,3.73,0,0,0-.76.4l-.74.46-.3.26a1,1,0,0,1-.45.2,1.53,1.53,0,0,1-.54-.11l.36-.54a1.24,1.24,0,0,0,.46-.17l.54-.34a4,4,0,0,1,.79-.37,5.26,5.26,0,0,1,.81-.25,7.54,7.54,0,0,0,.76-.24Z"/><path class="cls-1" d="M14.26,42.81c-.1-.06-.14-.1-.13-.12l.15,0,.3.1.4,0,.22,0L15,43h-.39a.91.91,0,0,1-.33-.13Z"/><path class="cls-5" d="M16.48,41.92a4.67,4.67,0,0,1-.83-2.72,4.74,4.74,0,0,1,1.92-3.85l3.18,7.27a5.69,5.69,0,0,0-1,.2,1.77,1.77,0,0,0-.57.36,3.07,3.07,0,0,1-.6.44h0a4.4,4.4,0,0,1-2.12-1.7Z"/><path class="cls-9" d="M11.47,44.51q.1,0,.18.09a.92.92,0,0,1,.1.37,2.51,2.51,0,0,1-.07.83H10.13a2.58,2.58,0,0,0-.58.13l-.29.12a.4.4,0,0,1,.05-.26,2.08,2.08,0,0,1,.66-.7,3,3,0,0,1,.91-.43l.59-.15Z"/><path class="cls-10" d="M10.78,45.5c.53,0,.82-.11.87-.22h0l-.05.42H10.12a1.88,1.88,0,0,0-.52.1,3,3,0,0,1,1.18-.31Z"/><path class="cls-1" d="M11.36,44.44l.08,0,.2,0a.64.64,0,0,1,.21.51v.32h-.2V45a.63.63,0,0,0-.12-.37c-.09-.06-.3,0-.64.11a3.47,3.47,0,0,0-.86.45,1.89,1.89,0,0,0-.66.72l.23-.08.15.16-.46.17H9.22a.07.07,0,0,1-.06-.06.45.45,0,0,1,.06-.31,2,2,0,0,1,.7-.76,3.64,3.64,0,0,1,1.44-.57Z"/><path class="cls-1" d="M10.13,45.9,9.75,46l-.15-.16a1.88,1.88,0,0,1,.52-.1H11.6l.05-.42h.2l-.07.54a.09.09,0,0,1-.1.08Z"/><path class="cls-9" d="M11.39,46.75a3.34,3.34,0,0,0-1.27.61l.12,0-.33.15a.79.79,0,0,1,.07-.37,2.14,2.14,0,0,1,.63-.87,6.44,6.44,0,0,1,.91-.65l.62-.36c.08,0,.2,0,.37.18a1.25,1.25,0,0,1,.38.58l0,.14-.3.24a1.22,1.22,0,0,1-.35.14l-.89.17Z"/><path class="cls-10" d="M11,47.16a5.81,5.81,0,0,0-.71.24l-.12,0a3.34,3.34,0,0,1,1.27-.61l.89-.17a1.22,1.22,0,0,0,.35-.14l.3-.24A2.48,2.48,0,0,1,13,47l-2,.15Z"/><path class="cls-1" d="M10,47.35h.08a4.34,4.34,0,0,1,.82-.29l1.93-.15a2,2,0,0,0-.07-.82,1.18,1.18,0,0,0-.32-.51c-.13-.13-.23-.2-.29-.2l0,0a9,9,0,0,0-1.48,1,1.93,1.93,0,0,0-.62.89v.08Zm.31.12-.4.17H9.86l0-.08a1,1,0,0,1,.08-.41,2.31,2.31,0,0,1,.65-.91,9.26,9.26,0,0,1,1.51-1l0,0a.25.25,0,0,1,.21,0,1.1,1.1,0,0,1,.38.31,1.47,1.47,0,0,1,.34.55,1.67,1.67,0,0,1,.11.7l-.06.25a.11.11,0,0,1-.1.09l-2,.15a3,3,0,0,0-.62.21Z"/><path class="cls-9" d="M13.55,46.25c.06,0,.21,0,.47.11a1.47,1.47,0,0,1,.56.43l0,.05-.12-.06a.41.41,0,0,1-.26.38l-.86.36a3.64,3.64,0,0,0-1.06.62l.06.06-.26.11a.44.44,0,0,1,0-.27,1.21,1.21,0,0,1,.39-.71q.84-.88,1.08-1.08Z"/><path class="cls-10" d="M14.75,47.38l-1.41.46a10.12,10.12,0,0,0-1,.36l-.06-.06a3.64,3.64,0,0,1,1.06-.62l.86-.36a.41.41,0,0,0,.26-.38l.12.06a.81.81,0,0,1,.14.54Z"/><path class="cls-1" d="M14.49,46.85a1.19,1.19,0,0,0-.47-.38.94.94,0,0,0-.42-.14L12.53,47.4a1.13,1.13,0,0,0-.36.65c0,.08,0,.11.12.07l1-.38.83-.25.49-.19c.05-.11,0-.26-.13-.45Zm-1-.68a.34.34,0,0,1,.19,0,1.41,1.41,0,0,1,.52.21,1.36,1.36,0,0,1,.47.39,1.21,1.21,0,0,1,.22.54.29.29,0,0,1-.05.24s-.06,0-.16.06l-.49.11-.81.25c-.28.09-.56.2-.85.32l-.36.15a.1.1,0,0,1-.13,0A.53.53,0,0,1,12,48a1.22,1.22,0,0,1,.42-.78c.6-.63,1-1,1.08-1.09Z"/><path class="cls-1" d="M24.51,13a.45.45,0,0,1,.24.16.37.37,0,0,1,.09.28l-.09,2.33c0,1.64,0,2.71,0,3.22a13.15,13.15,0,0,0,.58,2.39,15.62,15.62,0,0,0,1.1,2.66c.2.36.64,1.05,1.3,2.09l1.73,2.74a19.27,19.27,0,0,1,1.32,2.54,30.55,30.55,0,0,1,1.28,3.76,12.44,12.44,0,0,1,.41,4.71,5.18,5.18,0,0,1-1.84,3.47,6.66,6.66,0,0,1-4,1.36,12.4,12.4,0,0,1-5.45-.9,10.64,10.64,0,0,1-5.12-4.6,9.14,9.14,0,0,1-.95-6.72,18.87,18.87,0,0,1,2.57-5.9,17.32,17.32,0,0,0,2.14-7.8,17.68,17.68,0,0,0-.37-4.21l-.51-2.28c0-.06,0-.12.11-.19l.22-.16a.43.43,0,0,1,.42-.11L24.51,13Z"/><path class="cls-4" d="M16.92,39.8a11.77,11.77,0,0,0,5.39,2.66,6.84,6.84,0,0,0,5-.72,3.88,3.88,0,0,0,1,1.71,3.32,3.32,0,0,0,.75.46,7.12,7.12,0,0,1-2.42.51,12.28,12.28,0,0,1-4.85-.71,10,10,0,0,1-4.86-3.91Z"/><path class="cls-11" d="M15.78,31.66a8.53,8.53,0,0,1,1.65-2.95,3.88,3.88,0,0,1,3.27-1.39c1.51.12,2.84,1.27,4,3.48A15.23,15.23,0,0,1,26.48,37a18.3,18.3,0,0,0,.78,4.72,6.84,6.84,0,0,1-5,.72,11.77,11.77,0,0,1-5.39-2.66l-.4-.64a9.38,9.38,0,0,1-.74-7.5Z"/><path class="cls-5" d="M26.81,27.87a2.5,2.5,0,0,1,.53-1.54q1.92,3,2.61,4.31h0a3.18,3.18,0,0,1-2.2-.81,2.52,2.52,0,0,1-.91-2Z"/><path class="cls-6" d="M24.4,13.48v.33l0,2.79c0,.95,0,1.68.05,2.18l0,.25A14,14,0,0,0,25,21.57a13.59,13.59,0,0,0,1.08,2.71l2.16,3.44a26.1,26.1,0,0,1,2.16,3.88,31.21,31.21,0,0,1,1.29,3.82,11.78,11.78,0,0,1,.38,4.44,5.32,5.32,0,0,1-.89,2.39,4.63,4.63,0,0,1-1.79,1.51,2.89,2.89,0,0,1-.91-.51,3.94,3.94,0,0,1-1.07-2,22.58,22.58,0,0,1-.5-4,18.55,18.55,0,0,0-.54-3.33,15,15,0,0,0-1.16-3.22,9.34,9.34,0,0,0-1.76-2.47,4.26,4.26,0,0,0-2.67-1.36c-1.61-.12-3,.74-4.19,2.57A20.73,20.73,0,0,1,18,26.88,17.23,17.23,0,0,0,20.15,19,15.31,15.31,0,0,0,20,16.41a16.47,16.47,0,0,0-.56-2.85l.12-1.22v0l4.82,1.17Z"/><path class="cls-5" d="M24.4,13.48v.33l0,2.79c0,.95,0,1.68.05,2.18l0,.25.14.92A3,3,0,0,1,22,19.43,7,7,0,0,1,20.1,17.2a16.88,16.88,0,0,0-.64-3.64l.12-1.22v0l4.82,1.17Z"/><path class="cls-1" d="M32.39,33.72a12.58,12.58,0,0,1,1.85,2.76,9,9,0,0,1,1,4.14,6.65,6.65,0,0,1-.53,2.45,7.89,7.89,0,0,1-.53,1.12,4,4,0,0,0-.06.7A8.19,8.19,0,0,1,35.38,46l.33.4.24.29a1.05,1.05,0,0,1,.44.42,1.28,1.28,0,0,1,.08.54l.45.82a2.05,2.05,0,0,1,.2,1.08A1.14,1.14,0,0,1,37,50c-.08.19-.18.29-.27.3l-.16-.12-.09-.12a2.52,2.52,0,0,0-.51-.45l-.46-.17-.56-.19-.53,0v.34a2.31,2.31,0,0,1-.11.65,2,2,0,0,1-.27.53c-.11.15-.2.22-.27.2s-.11-.1-.22-.28a2.28,2.28,0,0,0-.3-.38l-.6-.38-.58-.33-.31-.11H31.3a3.92,3.92,0,0,1-.47,1.07c-.12.24-.21.36-.27.35s-.09-.06-.18-.18l-.12-.17a2.76,2.76,0,0,0-.38-.54l-.43-.38-.51-.44-.33-.11L28.38,49a.56.56,0,0,1-.17-.26,1,1,0,0,1-.05-.3A4.79,4.79,0,0,1,29,45.68l0-.56a5.69,5.69,0,0,1-1.92-1.62,4.78,4.78,0,0,1-1-2.41L26,39.8a4.35,4.35,0,0,1,.86-2.33,5.56,5.56,0,0,1,1.06-1.19l3-3.77-.11-.72.34.7,1.17,1.23Z"/><path class="cls-1" d="M33.29,21.18l0-.16a1.1,1.1,0,0,1,.38-.76l0,0a1.23,1.23,0,0,1,.52-.31A1,1,0,0,1,35,20a1.68,1.68,0,0,1,.67.83,1.06,1.06,0,0,1,0,1l-.2.39a1.31,1.31,0,0,0-.14.34,1.08,1.08,0,0,0,.19.29l.26.3.65-.12a.59.59,0,0,1,.59.25,3.08,3.08,0,0,1,.16.91,2.42,2.42,0,0,1,0,.95.55.55,0,0,1-.19.22l-.34.22-.3.12a.46.46,0,0,0-.23.12,7.62,7.62,0,0,0-.7,1,.71.71,0,0,1-.4.3l-.45.1a18.69,18.69,0,0,1-1,3.14,2.28,2.28,0,0,1-.79,1,1.84,1.84,0,0,1-1,.28,1.5,1.5,0,0,1-.82-.16,7.92,7.92,0,0,1-.88-.87l-.91-.94-.5-.36-.52-.34a3.9,3.9,0,0,0-.71-.39l-.35-.15-.27,0-.31.06-.17.05.32-.22c-.29,0-.44-.08-.44-.13s0-.05.11-.06h.12l-2.15-3.32c-.16.08-.26.08-.28,0a.13.13,0,0,1,0-.12l.09-.1c.05,0,.27-.17.64-.38A4.67,4.67,0,0,1,26,23.87a2.23,2.23,0,0,1,1.1,0,1.72,1.72,0,0,1,1,.71,2.82,2.82,0,0,1,.28,1.36l.36.2a1.48,1.48,0,0,1,.37.27l.13.14.62.71a4.58,4.58,0,0,0,.67.65,1.28,1.28,0,0,0,.72.23l.57,0,.12-.82a3.34,3.34,0,0,0,0-.9L31.48,26a1.8,1.8,0,0,1-.44-.21.89.89,0,0,1-.19-.7v-.34l-.13-.11a4.24,4.24,0,0,1-.68-.68,1.16,1.16,0,0,1-.15-.9.81.81,0,0,1,.38-.59l.2-.07.71-.35a.35.35,0,0,1,.34,0l.23.2a1.9,1.9,0,0,0,.23.21l.5.06.46-.73a5,5,0,0,0,.34-.67Z"/><path class="cls-6" d="M33.69,21.26l.06-.41a.57.57,0,0,1,.13-.32l.38-.28a.93.93,0,0,1,.8.12l.26.48c.15.36.17.62.06.79a1.86,1.86,0,0,0-.23.52,1.15,1.15,0,0,0-.11.5,1.05,1.05,0,0,0,.38.57l.33.25.4-.11a.54.54,0,0,1,.58.15,1.67,1.67,0,0,1,.17.82,1.54,1.54,0,0,1-.06.64l-.41.3a3.06,3.06,0,0,0-.53.37l-.46.55a3.58,3.58,0,0,0-.35.47.8.8,0,0,1-.49.3l-.36.06-.1.67a9.58,9.58,0,0,1-.47,1.63,8.81,8.81,0,0,1-.56,1.23,1.88,1.88,0,0,1-.54.5,1.63,1.63,0,0,1-.78.23,1,1,0,0,1-.63-.08,2.17,2.17,0,0,1-.51-.54A4.18,4.18,0,0,0,30,30l-.73-.6a10.13,10.13,0,0,0-.86-.67,4.43,4.43,0,0,0-1.64-.49l-.34,0H26.3l-2-3.26,1-.45a2.6,2.6,0,0,1,1.55-.25,2.3,2.3,0,0,1,.78.42,1.2,1.2,0,0,1,.33.56,2.47,2.47,0,0,1,.09.95l.3.17a2.41,2.41,0,0,1,.52.41l.63.68a7.36,7.36,0,0,0,.77.69,2.09,2.09,0,0,0,1.42.39.69.69,0,0,1-.31.36l-.36.25-.3.17a.34.34,0,0,0-.12.27,1.56,1.56,0,0,0,.16.6c.11.26.18.39.22.37l-.08-.25a1.77,1.77,0,0,1-.11-.68c0-.05,0-.09.1-.14l.28-.17.32-.18a1.63,1.63,0,0,0,.48-.52l.06-.13.1-.37.18-.83a2.71,2.71,0,0,0,0-.75l-.06-.28a3,3,0,0,0-.62-.52l-.24-.12a.68.68,0,0,1-.13-.46v-.37l0-.16-.4-.31a2.1,2.1,0,0,1-.54-.46.73.73,0,0,1-.14-.79l.24-.27.94-.31.2.18a.89.89,0,0,0,.34.27l.49.08.36,0a3.84,3.84,0,0,0,.52-.78,4,4,0,0,0,.46-.9Z"/><path class="cls-1" d="M32.22,23.76a.39.39,0,0,1-.31.37.41.41,0,0,1-.42-.05,1.91,1.91,0,0,0-.53-.36l-.23,0-.17,0c-.17,0-.29-.16-.35-.41a1.05,1.05,0,0,1,0-.5,1,1,0,0,1,.3-.51.82.82,0,0,1,.67-.21.6.6,0,0,1,.47.21l.05,0a1.63,1.63,0,0,1,.51.81,2.66,2.66,0,0,1,0,.67Z"/><path class="cls-1" d="M32.16,23.55l0-.45a1.61,1.61,0,0,0-.49-.77l-.05,0a.58.58,0,0,0-.43-.18.73.73,0,0,0-.61.19.88.88,0,0,0-.3.68l0,.26c.06.22.16.35.3.37l.17,0,.25,0a1.93,1.93,0,0,1,.48.31.46.46,0,0,0,.39.08.29.29,0,0,0,.29-.26v-.24Zm.09-.47a1.49,1.49,0,0,1,0,.79c-.09.24-.17.38-.26.42s-.19,0-.33-.12a2.25,2.25,0,0,0-.68-.39l-.38-.05c-.2,0-.33-.18-.41-.46a1.1,1.1,0,0,1,0-.54,1,1,0,0,1,.32-.54.94.94,0,0,1,.72-.23l.31.09.2.14.05,0a1.61,1.61,0,0,1,.52.84Z"/><path class="cls-9" d="M31.17,22.22a.47.47,0,0,1,.3.12l.24.27a1.18,1.18,0,0,1,.26.47,1.86,1.86,0,0,1,0,.79l-.11.21-.05,0a1.59,1.59,0,0,0-.59-.67l-.2-.05a.76.76,0,0,1-.31-.11l-.31-.32a.75.75,0,0,1,.26-.51.6.6,0,0,1,.52-.15Z"/><path class="cls-10" d="M30.61,23.42c-.06,0-.11-.07-.16-.17a.78.78,0,0,1-.06-.37l.31.32a.76.76,0,0,0,.31.11l.2.05a1.59,1.59,0,0,1,.59.67,2.84,2.84,0,0,0-.76-.55l-.21,0-.22,0Z"/><path class="cls-1" d="M34.84,20a.83.83,0,0,1,.47.56,1.12,1.12,0,0,1,0,.55.76.76,0,0,1-.12.37,4.61,4.61,0,0,1-1.3,1,.24.24,0,0,1-.21-.06,1.73,1.73,0,0,1-.22-.82,1.84,1.84,0,0,1,.08-1c.29-.68.72-.9,1.28-.65Z"/><path class="cls-1" d="M34.79,20.1a.68.68,0,0,0-.73,0,1.44,1.44,0,0,0-.39.56,2,2,0,0,0-.1.94,1.72,1.72,0,0,0,.16.77l.11,0a2.83,2.83,0,0,0,.7-.49l.58-.54.08-.2,0-.33,0-.28a.69.69,0,0,0-.41-.48Zm-1.3.49a1.2,1.2,0,0,1,.56-.73,1,1,0,0,1,1.38.76,1,1,0,0,1-.18.87,3.59,3.59,0,0,1-.78.78c-.36.28-.61.39-.74.34s-.26-.31-.32-.76a2.72,2.72,0,0,1,.08-1.26Z"/><path class="cls-9" d="M33.74,20.65a1.37,1.37,0,0,1,.38-.53l.63,0a.69.69,0,0,1,.32.29,1.49,1.49,0,0,1-.22.71,8.85,8.85,0,0,1-1.05,1.28c-.08,0-.13-.22-.16-.7a2.23,2.23,0,0,1,.1-1Z"/><path class="cls-10" d="M34.48,21.85a2.6,2.6,0,0,1-.68.53h0a8.85,8.85,0,0,0,1.05-1.28,1.49,1.49,0,0,0,.22-.71,1.05,1.05,0,0,1,.08.55.81.81,0,0,1-.1.35l-.57.56Z"/><path class="cls-1" d="M35,24.28l.35-.66a.65.65,0,0,1,.49-.23.7.7,0,0,1,.53.25.74.74,0,0,1,.2.67.79.79,0,0,1-.45.51l-.56.19a1.89,1.89,0,0,1-.67.13h-.16a1.9,1.9,0,0,1,.27-.85Z"/><path class="cls-1" d="M35,24.41a2.37,2.37,0,0,0-.26.68H35l.5-.09a3,3,0,0,0,.62-.24.68.68,0,0,0,.4-.46v-.14a.62.62,0,0,0-.18-.46.64.64,0,0,0-.48-.23.54.54,0,0,0-.44.2l-.39.75Zm-.4.81s0-.28.17-.71a3.24,3.24,0,0,1,.51-.94.71.71,0,0,1,.54-.24.83.83,0,0,1,.79,1,.85.85,0,0,1-.17.39l-.28.24a3.43,3.43,0,0,1-.83.22l-.73.06Z"/><path class="cls-9" d="M36.41,24a2.31,2.31,0,0,1-.56.57,3.69,3.69,0,0,1-1,.52s0-.23.28-.66a5.79,5.79,0,0,1,.43-.74.43.43,0,0,1,.29-.15.46.46,0,0,1,.44.18.46.46,0,0,1,.15.28Z"/><path class="cls-10" d="M36.13,24.67l-.64.22a2.24,2.24,0,0,1-.67.16,3.69,3.69,0,0,0,1-.52,2.31,2.31,0,0,0,.56-.57.75.75,0,0,1-.09.45.64.64,0,0,1-.19.26Z"/><path class="cls-5" d="M33.71,24.44a3.59,3.59,0,0,0-.39.39,1.15,1.15,0,0,0-.33.81,1.11,1.11,0,0,0,.16.45,1,1,0,0,1-.64-.44,1.38,1.38,0,0,1-.25-.8,1.32,1.32,0,0,1,.33-.9,1,1,0,0,1,.8-.37,1,1,0,0,1,.54.16,1.12,1.12,0,0,1,.4.41,1.89,1.89,0,0,0-.62.29Z"/><path class="cls-1" d="M33.71,24.44a1.5,1.5,0,0,1,.43-.22c.19-.08.3-.11.31-.09l-.26.14-.38.22a2,2,0,0,0-.42.51,1.1,1.1,0,0,0-.23.7,1.45,1.45,0,0,0,.54.89l.44.33c0,.07-.2,0-.53-.31a1.53,1.53,0,0,1-.62-1,1.15,1.15,0,0,1,.33-.81,3.59,3.59,0,0,1,.39-.39Z"/><path class="cls-6" d="M30.51,31.89l.12.3a3.37,3.37,0,0,0,.31.55l.93.93a12,12,0,0,1,1.68,2.58,10.6,10.6,0,0,1,1.08,3.2,6.94,6.94,0,0,1-.05,2.27,9.27,9.27,0,0,1-.43,1.62l-.29.79a4.41,4.41,0,0,0-.06.55.65.65,0,0,0,0,.36l.48.38a5.79,5.79,0,0,1,.7.68l.69.88.16.08a.49.49,0,0,1,.21.18.9.9,0,0,1,0,.64,1.12,1.12,0,0,1-.54.66l-.6.32c0-.29-.08-.41-.16-.37a.8.8,0,0,1-.74.1v.54l-1,.1-.51,0c-.21-.46-.37-.64-.5-.53a.52.52,0,0,1-.49.1.67.67,0,0,1-.41-.23l0,.65A7.19,7.19,0,0,1,29.39,49l-.2-.57a1.11,1.11,0,0,1-.38-.37,1.61,1.61,0,0,1-.2-.57,4.61,4.61,0,0,1,.69-1.68,2.16,2.16,0,0,0,0-.64l.28.06.66,0,.34,0-.33-.06-.61-.1-.35-.1h0a1.48,1.48,0,0,1-.48-.24,7.34,7.34,0,0,1-1.35-1.31,4.63,4.63,0,0,1-.95-2.1,7.35,7.35,0,0,1-.08-1.65,5.53,5.53,0,0,1,.75-2.48l.71-1,2.59-4.27Z"/><path class="cls-5" d="M34.75,48.49c.08,0,.13.08.16.37a4,4,0,0,1-.9.27v-.54a.8.8,0,0,0,.74-.1Z"/><path class="cls-5" d="M32,48.72c.13-.11.29.07.5.53-.5,0-1,0-1.43,0l0-.65a.67.67,0,0,0,.41.23.52.52,0,0,0,.49-.1Z"/><path class="cls-5" d="M28.61,47.52a1.61,1.61,0,0,0,.2.57,1.11,1.11,0,0,0,.38.37l.2.57c-.55-.15-.83-.36-.85-.65a3.69,3.69,0,0,1,.07-.86Z"/><path class="cls-9" d="M34.92,48.39l0,0a1.71,1.71,0,0,1,.44-.68,2.84,2.84,0,0,1,.41-.31c.1-.06.17-.05.23,0l.32.5.36.67a1.88,1.88,0,0,1,.18,1,.89.89,0,0,1-.08.34,1.19,1.19,0,0,0-.44-.65,1.76,1.76,0,0,0-.53-.36,3.72,3.72,0,0,1-.5-.2q-.35-.16-.36-.3Z"/><path class="cls-10" d="M34.81,48.84c-.06,0,0-.17.08-.43l0,0q0,.13.36.3a3.72,3.72,0,0,0,.5.2,1.76,1.76,0,0,1,.53.36,1.19,1.19,0,0,1,.44.65,3.17,3.17,0,0,0-.62-.54l-.69-.28-.63-.24Z"/><path class="cls-9" d="M33.27,47.59l.47.65a2.12,2.12,0,0,1,.42,1A3.21,3.21,0,0,1,34,50.36l-.15.26-.07-.09a1.15,1.15,0,0,0-.45-.86,2.13,2.13,0,0,0-.65-.44c-.33-.15-.52-.33-.57-.55a2.32,2.32,0,0,1,.39-.73A1.54,1.54,0,0,1,33,47.6Z"/><path class="cls-10" d="M32.69,49.23a2.13,2.13,0,0,1,.65.44,1.15,1.15,0,0,1,.45.86l-.31-.37a6.45,6.45,0,0,0-.76-.51,5.59,5.59,0,0,0-.68-.39s0-.07,0-.18a2.59,2.59,0,0,1,.1-.4c.05.22.24.4.57.55Z"/><path class="cls-9" d="M29.56,47.86a1.37,1.37,0,0,1,.33-.31q.2-.12.27,0l.46.55a2.8,2.8,0,0,1,.44.65,1.86,1.86,0,0,1-.18,1.12,4.5,4.5,0,0,1-.31.66l-.05-.08v0a1.26,1.26,0,0,0-.26-.69l-.4-.47-.34-.35-.29-.32a2.55,2.55,0,0,1,.33-.7Z"/><path class="cls-10" d="M29.86,49.23l.4.47a1.26,1.26,0,0,1,.26.69v0a5.76,5.76,0,0,0-.39-.54L29.18,49s0-.16.05-.4l.29.32.34.35Z"/><path class="cls-1" d="M35,48.31a1,1,0,0,0-.13.48l0,0,.18.07,1.08.43a3.68,3.68,0,0,1,.58.51.66.66,0,0,0,.09-.34,1.7,1.7,0,0,0-.17-.88L36.27,48,36,47.5a.09.09,0,0,0-.09,0c-.08,0-.25.1-.52.33a1.77,1.77,0,0,0-.38.53Zm0,.84-.18-.07a.29.29,0,0,1-.18-.24,1.22,1.22,0,0,1,.15-.64,1.94,1.94,0,0,1,.44-.62l.39-.31a.6.6,0,0,1,.34-.09.43.43,0,0,1,.28.16l.31.5.36.67a2,2,0,0,1,.2,1.05,1.1,1.1,0,0,1-.12.41l-.08.16-.1.06a.09.09,0,0,1-.11,0L36.52,50a2.61,2.61,0,0,0-.53-.46,8.57,8.57,0,0,0-1.05-.42Z"/><path class="cls-1" d="M32.07,49.22l0,0a5.39,5.39,0,0,1,.65.37,5.2,5.2,0,0,1,.72.48l.35.44a.61.61,0,0,0,.14-.26,2.84,2.84,0,0,0,.15-1,3,3,0,0,0-.82-1.55l0-.05-.07,0a.72.72,0,0,0-.27.08,1.47,1.47,0,0,0-.38.3,1.93,1.93,0,0,0-.35.65,1,1,0,0,0-.12.56Zm-.06.29a.3.3,0,0,1-.2-.22,1.35,1.35,0,0,1,.12-.72,2.12,2.12,0,0,1,.42-.74,1.45,1.45,0,0,1,.44-.35.78.78,0,0,1,.42-.11.39.39,0,0,1,.27.13l0,0a3.25,3.25,0,0,1,.87,1.72,3.29,3.29,0,0,1-.16,1.14.93.93,0,0,1-.22.36l-.11.09-.11,0-.1-.07-.07-.13a2.53,2.53,0,0,0-.31-.39,6.27,6.27,0,0,0-.66-.44,6.41,6.41,0,0,0-.62-.35Z"/><path class="cls-1" d="M30.23,47.67l-.07-.08a.12.12,0,0,0-.08,0,.41.41,0,0,0-.24.12,1.18,1.18,0,0,0-.25.25,1.87,1.87,0,0,0-.27.54c-.11.27-.14.45-.1.51l.42.39.49.48a5.69,5.69,0,0,1,.42.58,4.92,4.92,0,0,0,.37-.81,1.43,1.43,0,0,0,.09-.88,5,5,0,0,0-.78-1.06Zm-.85.09a1.3,1.3,0,0,1,.26-.27.69.69,0,0,1,.44-.2.34.34,0,0,1,.28.13l.07.08a4.93,4.93,0,0,1,.84,1.15,2,2,0,0,1-.14,1.17,5.6,5.6,0,0,1-.35.74l-.11.19-.12.07-.11-.06-.12-.19L29.93,50l-.88-.86c-.14-.12-.14-.38,0-.78a2.48,2.48,0,0,1,.31-.62Z"/><path class="cls-1" d="M30.17,45.61l-.4-.09c-.14-.05-.21-.08-.2-.11l.18,0,.37,0h1l-.37.09-.56,0Z"/><path class="cls-6" d="M23.52.24c.35,0,.64.23.87.74a5.2,5.2,0,0,1,.22.89l.18,1c0,.19.2.92.5,2.19a7.36,7.36,0,0,0,1,2.05l.41.72.12.39a3.33,3.33,0,0,1-.24,1.06,4,4,0,0,1,.1,1.3l.47,1.34.25.64.3.59a.26.26,0,0,0,.21.1c.08,0,.17.09.25.24.16.31,0,.87-.48,1.7l-.77,1.15a.67.67,0,0,1-.57.81l-1,.12a1.63,1.63,0,0,0-.48.2,1.47,1.47,0,0,1-.67.15,2.22,2.22,0,0,1-1-.33,1.8,1.8,0,0,1-.62-.46l-.46-.57-.62-.75-.85-.93-.77-.8a.71.71,0,0,0-.37-.24l-.18,0a3.68,3.68,0,0,1-.83-1.13,2.08,2.08,0,0,1-.28-.78,6,6,0,0,1,.08-.67q.09-.54.18-.87a4.69,4.69,0,0,0,.22-1.27,5.6,5.6,0,0,0-.38-1.53,14.77,14.77,0,0,0-1.06-2l-.63-.78-.74-.85A1.05,1.05,0,0,1,15.63,3a.65.65,0,0,1,.18-.48.92.92,0,0,1,.51-.11,1.31,1.31,0,0,1,.53.08,2.86,2.86,0,0,1,.66.54l1,1a16.18,16.18,0,0,0,2,1.78,1.29,1.29,0,0,0,1,.11,3.81,3.81,0,0,0,1-.41,1.14,1.14,0,0,0,.47-.83c0-.18,0-.53,0-1L23,2.22q-.07-1-.06-1.14a1.19,1.19,0,0,1,.12-.53.54.54,0,0,1,.45-.31Z"/><path class="cls-1" d="M25.12,14.56l.33.13.29,0H26l.13,0h.08s0,.08-.11.11l-.35.06a1.47,1.47,0,0,1-.68-.18,1.09,1.09,0,0,0-.29-.06H24.5A1.91,1.91,0,0,0,24,15c-.1.1-.17.11-.22.05s0-.12.14-.22l.3-.22a.88.88,0,0,1,.44-.17,1.37,1.37,0,0,1,.44.09Z"/><path class="cls-1" d="M25.13,15.72l-.32-.09-.25.07a.21.21,0,0,1-.22,0s0-.08.11-.15a.61.61,0,0,1,.23-.1.81.81,0,0,1,.27.09l.24.13s0,.06,0,.08l-.09,0Z"/><path class="cls-1" d="M27.7,14.42s0,.08-.05.14l-.13.15-.24.37c0,.07-.08.1-.13.09s-.07-.05,0-.1a4.13,4.13,0,0,1,.26-.39.76.76,0,0,1,.18-.18c.09-.07.14-.09.15-.08Z"/><path class="cls-1" d="M23.87,10.06l0-.08s0-.06,0-.07L24,10l.1.26.09.13,0,.12,0,.13c-.05,0-.08.06-.11.05s0-.11,0-.27L24,10.22l-.09-.16Z"/><path class="cls-1" d="M24.08,10.74s0,.16,0,.44l-.33,1-.19.25c-.1.11-.17.15-.2.13s0-.13.08-.28l.1-.12.09-.15.18-.43.17-.46q.11-.36.15-.33Z"/><path class="cls-1" d="M25.76,10l0,.11v.2l0,.35c0,.23,0,.34-.12.32s-.07,0-.07-.1v-.16l.08-.33c0-.26.07-.39.1-.39Z"/><path class="cls-1" d="M22.46,15.52l0,.39a.15.15,0,0,0,.11.16c.08,0,.15,0,.22-.09l.08.13a.46.46,0,0,1-.36.21c-.08,0-.15-.11-.19-.31a2.9,2.9,0,0,1,0-.75l.16.26Z"/><path class="cls-9" d="M22.56,16.1c-.08,0-.12-.23-.1-.58l.35.46-.15.11Z"/><path class="cls-9" d="M26.59,9.7l0,.19a3.45,3.45,0,0,1,0,.72,1.22,1.22,0,0,1-.15.41,1,1,0,0,1-.43.44,3,3,0,0,1,.15-.84,6,6,0,0,1,.39-.92Z"/><path class="cls-1" d="M37.76,10.39s.08,0,.15.06l.13.14A11.33,11.33,0,0,1,39.51,14a28.85,28.85,0,0,1,1,5.09,1.38,1.38,0,0,1,0,.41c0,.11,0,.17-.09.17s-.15-.18-.18-.56a26.13,26.13,0,0,0-1-4.83,15.67,15.67,0,0,0-1.42-3.56c-.11-.18-.15-.28-.1-.3Z"/><path class="cls-1" d="M39.82,11.69s.1.05.21.2l.19.27A20.17,20.17,0,0,1,41.48,21l0,.36q0,.3-.09.3s-.06-.09-.09-.26l-.05-.34a20.8,20.8,0,0,0-1.31-8.91c-.14-.31-.17-.47-.1-.5Z"/><path class="cls-1" d="M9.65,12.21l.09-.14c0-.06.08-.09.11-.08s.05.06.05.14l0,.19a13.75,13.75,0,0,0-.63,3.16,21.41,21.41,0,0,0-.1,4v.27c0,.13,0,.2-.06.2s-.07-.07-.1-.2l-.05-.26a19.6,19.6,0,0,1,0-4.19,8.3,8.3,0,0,1,.7-3Z"/><path class="cls-1" d="M8.65,13.89c0-.14.09-.21.14-.19s.06,0,.06.11V14a30.7,30.7,0,0,0-.74,4A26.13,26.13,0,0,0,7.9,22c0,.28,0,.42-.07.43s-.06-.06-.07-.18l0-.25a16.07,16.07,0,0,1,0-4.09,24.12,24.12,0,0,1,.87-4Z"/><path class="cls-9" d="M20.67,10a.23.23,0,0,1,.21,0l1.48,1.1.1.09a.43.43,0,0,1,.19.23l.1.21.15.36,0,.1h-.31l-.91-.17-.07,0-.77-.21c-.2-.07-.31-.15-.33-.25a2.22,2.22,0,0,1,0-.61l.07-.66a.28.28,0,0,1,.13-.21Z"/><path class="cls-9" d="M20.67,10a.23.23,0,0,1,.21,0l1.48,1.1.1.09a.43.43,0,0,1,.19.23l.1.21.15.36,0,.1h-.31l-.91-.17-.07,0-.77-.21c-.2-.07-.31-.15-.33-.25a2.22,2.22,0,0,1,0-.61l.07-.66a.28.28,0,0,1,.13-.21Z"/><path class="cls-7" d="M21.45,10.4h0l1,.77a.43.43,0,0,1,.19.23l.1.21.15.36,0,.1h-.31l-.84-.16a2,2,0,0,1-.31-1.1,2,2,0,0,1,0-.43Z"/><path class="cls-7" d="M26.15,11.49l-.18.09v-.13a3,3,0,0,1,.14-.85l.21-.54a1.5,1.5,0,0,1,.11.55,1.43,1.43,0,0,1-.29.88Z"/><path class="cls-8" d="M26.14,11.21a.17.17,0,0,1-.13-.09l.11-.52c.06-.17.13-.34.21-.52a1.19,1.19,0,0,1,.1.49,1,1,0,0,1-.09.45c-.05.13-.12.19-.2.19Z"/><path class="cls-1" d="M26.24,11.05q0,.21-.21.18a2.08,2.08,0,0,1,.12-.46.26.26,0,0,1,.09.28Z"/><path class="cls-8" d="M21.45,10.4h0l1,.77a.43.43,0,0,1,.19.23l.16.34-.65,0a1.23,1.23,0,0,1-.65-.33,1.89,1.89,0,0,1-.1-.63,2,2,0,0,1,0-.43Z"/><path class="cls-1" d="M21.78,11.88H21.6a2.11,2.11,0,0,1-.27-1.05,3,3,0,0,1,.05-.48h0c0,.07.05.1.13.1l0,.39a1.94,1.94,0,0,0,.3,1.05Z"/><path class="cls-1" d="M22.18,11.75a.25.25,0,0,1-.2-.09.31.31,0,0,1-.07-.2.31.31,0,0,1,.07-.21.24.24,0,0,1,.18-.07.18.18,0,0,1,.16.08.32.32,0,0,1,.08.2l0,.19-.17.1Z"/><path class="cls-9" d="M21.9,11.36a.19.19,0,0,1-.17-.08.23.23,0,0,1-.06-.16.28.28,0,0,1,.06-.18.21.21,0,0,1,.17-.08.23.23,0,0,1,.16.08.33.33,0,0,1,.06.19l-.06.16a.21.21,0,0,1-.16.07Z"/><path class="cls-9" d="M26.2,10.89l-.09-.07,0-.13a.24.24,0,0,1,0-.15s0-.06.08-.06l.08.07,0,.15,0,.13-.08.06Z"/><path class="cls-1" d="M20.84,10.06c-.12-.07-.2,0-.22.12l-.08.66a2.47,2.47,0,0,0,0,.58c0,.1.2.19.51.27l.62.15.89.18.21,0s0,0,0-.06l-.25-.54a.49.49,0,0,0-.16-.21l-.72-.57-.86-.6Zm-.15-.25a9.59,9.59,0,0,1,1,.66l.72.6.17.15a.54.54,0,0,1,.15.18l.37.79.05.12a.08.08,0,0,1-.05.1l-.06,0,0-.1a.2.2,0,0,0-.11-.07l-.18,0a4.73,4.73,0,0,1-.89-.14l-1.12-.27a.5.5,0,0,1-.26-.24.74.74,0,0,1-.12-.42,5.07,5.07,0,0,1,.05-.57l0-.38,0-.15,0-.13c-.13-.15-.19-.23-.18-.26s.17.05.45.21Z"/><path class="cls-1" d="M26.46,10.59a1.36,1.36,0,0,1-.41,1.05l-.11,0a1,1,0,0,0,.3-.43,1.39,1.39,0,0,0,.12-.57,1.33,1.33,0,0,0-.09-.49l.08-.14a1.61,1.61,0,0,1,.11.61Z"/><path class="cls-1" d="M26.62,9.89l0-.19a6,6,0,0,0-.39.92,3,3,0,0,0-.15.84,1,1,0,0,0,.43-.44,1.22,1.22,0,0,0,.15-.41,3.45,3.45,0,0,0,0-.72ZM24.38,1.22c-.18-.58-.44-.88-.79-.88a.51.51,0,0,0-.48.39,1.55,1.55,0,0,0-.07.69l.09,1.17L23.19,4A2.48,2.48,0,0,1,23,5.14a1.5,1.5,0,0,1-.53.49,2.29,2.29,0,0,1-.75.27l-.66,0,.28.12.34.18.27.21.34.3c.11.12.17.2.17.24s-.08,0-.24-.11l-.29-.2-.23-.17a1,1,0,0,0-.39-.24,1.12,1.12,0,0,1-.36-.14,2.34,2.34,0,0,1-.49-.33c-.63-.53-1.2-1-1.71-1.51L17.06,2.68a1,1,0,0,0-.6-.22.79.79,0,0,0-.59.11.56.56,0,0,0-.14.49.84.84,0,0,0,.14.46l.68.81.76,1a7.7,7.7,0,0,1,1.43,3.44,5.21,5.21,0,0,1-.09,1l-.17.62-.14.63a3.28,3.28,0,0,0-.07.56,1.47,1.47,0,0,0,.1.5,2.12,2.12,0,0,0,.31.62,7.13,7.13,0,0,0,.57.78l.14,0a.36.36,0,0,1,.19,0l.51.41a7.39,7.39,0,0,1,.79.81l1,1.13a6,6,0,0,1,.64.83,1.9,1.9,0,0,0,.59.49,2,2,0,0,0,1.07.39,1.27,1.27,0,0,0,.47-.09l.27-.14a1.88,1.88,0,0,1,.73-.16,2.33,2.33,0,0,0,.95-.18.71.71,0,0,0,.21-.36,1,1,0,0,1-.51.31,1.52,1.52,0,0,1-.86-.18l-.36-.13-.42-.06-.51.11a1.41,1.41,0,0,1-.62,0,1,1,0,0,1-.42-.25l-.24-.35a7.88,7.88,0,0,0-.79-1c-.61-.66-1-1.06-1.19-1.21a2.25,2.25,0,0,0-.48-.22L20,13.46a.47.47,0,0,1-.17-.26c0-.08-.05-.22-.08-.42a.91.91,0,0,1,0-.37c0-.09,0-.14.07-.14s.07.08.07.2a2.82,2.82,0,0,0,.16.79q0,.09.36.18a1.83,1.83,0,0,1,.51.22l.76.64a8.45,8.45,0,0,1,.82.86,10.11,10.11,0,0,1,.73,1l.27.18a1.16,1.16,0,0,0,.47.09l.36,0,.39-.05.42.05.41.11a3.34,3.34,0,0,0,.65.23c.14,0,.32-.11.55-.35a6.51,6.51,0,0,0,1.22-2,1.89,1.89,0,0,0,.19-.69.32.32,0,0,0-.16-.28l-.32-.24a2.61,2.61,0,0,1-.37-.68,6.51,6.51,0,0,1-.27-.76c-.08-.3-.19-.61-.31-.94a1.79,1.79,0,0,1-.33.65l-.21.19a.24.24,0,0,0-.12.18l0,.07h-.07a.76.76,0,0,1-.06-.32l.06-.47a2.48,2.48,0,0,1,.14-.54l.49-1.28a3,3,0,0,0,.19-1,1,1,0,0,0-.11-.5,2.18,2.18,0,0,0-.28-.43,5.09,5.09,0,0,1-.46-.69,6.77,6.77,0,0,1-.48-1A14.06,14.06,0,0,1,24.73,3c-.18-1-.29-1.54-.35-1.73Zm.17-.33.39,1.82.39,1.78A8.23,8.23,0,0,0,26,6.13l.52,1a3.9,3.9,0,0,1,.38.85,1.66,1.66,0,0,1,0,.48l-.09.38-.13.49.05.35a5.58,5.58,0,0,1,0,.92l.55,1.55.26.59a1.34,1.34,0,0,0,.26.39l.29.21a.44.44,0,0,1,.2.37A3.3,3.3,0,0,1,28,14.93a6.1,6.1,0,0,1-.87,1.39,1.36,1.36,0,0,1-.33.74,1.06,1.06,0,0,1-.62.26l-.8.09a2.14,2.14,0,0,0-.6.22,1.39,1.39,0,0,1-.62.16,2.12,2.12,0,0,1-.87-.24,2.64,2.64,0,0,1-.64-.4l-.47-.55-.71-.87L19.89,14a.8.8,0,0,0-.45-.26l-.25,0-.39-.45-.39-.51-.3-.55a1.46,1.46,0,0,1-.18-.53,9.23,9.23,0,0,1,.26-1.32,7.41,7.41,0,0,0,.24-1.63,4,4,0,0,0-.35-1.32A10.1,10.1,0,0,0,17.41,6a8.27,8.27,0,0,0-1-1.27l-.85-.92a1.15,1.15,0,0,1-.24-.83.82.82,0,0,1,.28-.63,1.12,1.12,0,0,1,.7-.21,1.15,1.15,0,0,1,.89.31l1.3,1.29,1.21,1.2a4.62,4.62,0,0,0,1,.77,1.42,1.42,0,0,0,.63.08,2.06,2.06,0,0,0,.71-.14,1.63,1.63,0,0,0,.55-.35,1.12,1.12,0,0,0,.29-.8v-1l0-.85-.11-1.53A1.17,1.17,0,0,1,23,.42.79.79,0,0,1,23.54,0a.81.81,0,0,1,.65.23,1.27,1.27,0,0,1,.36.65Z"/></g></g></svg>