<svg xmlns="http://www.w3.org/2000/svg" viewBox="0 0 46.06 46.94"><defs><style>.cls-1{fill:#0d131a;}.cls-1,.cls-10,.cls-11,.cls-12,.cls-2,.cls-3,.cls-4,.cls-5,.cls-6,.cls-7,.cls-8,.cls-9{fill-rule:evenodd;}.cls-2{fill:#5dc1cf;}.cls-3{fill:#50a8b4;}.cls-4{fill:#fff;}.cls-5{fill:#00a63c;}.cls-6{fill:#009233;}.cls-7{fill:#c94772;}.cls-8{fill:#e85382;}.cls-9{fill:#431e37;}.cls-10{fill:#91308c;}.cls-11{fill:#008982;}.cls-12{fill:#00736d;}</style></defs><title>Asset 48@</title><g id="Layer_2" data-name="Layer 2"><g id="Layer_1-2" data-name="Layer 1"><path class="cls-1" d="M34.78,29c.24-.08.4,0,.5.1l.18-.44q.61.9.51,4a17.68,17.68,0,0,1-1.32,6.36q-1.55,3.62-2.77,3.67l-.39,0-1.69-.1a5,5,0,0,1-1.64-.37l-2.05-3.12a5.86,5.86,0,0,1,1.15-2.05q1-1.47,2.49-3.21c1-1.22,2-2.26,2.84-3.13A8.15,8.15,0,0,1,34.78,29Z"/><path class="cls-2" d="M27.75,40.93a9.78,9.78,0,0,1,3.34-2.6,5.22,5.22,0,0,1,3.61-.72,15,15,0,0,1-.58,1.79A7.6,7.6,0,0,1,32.66,42a1.52,1.52,0,0,1-1,.41H31.5l-1.67-.12a5.89,5.89,0,0,1-1.56-.37,2.69,2.69,0,0,1-.46-.85l-.06-.14h0Z"/><path class="cls-3" d="M35.09,29.25a6.54,6.54,0,0,1,.37,3,21.42,21.42,0,0,1-.76,5.32,5.22,5.22,0,0,0-3.61.72,9.92,9.92,0,0,0-3.35,2.6h0a7.33,7.33,0,0,0-.6-1.11,1.48,1.48,0,0,0-.79-.66v0a5,5,0,0,1,.89-1.57c.64-.94,1.46-2,2.45-3.22s2.1-2.44,3-3.36a9.67,9.67,0,0,1,2-1.69c.2-.11.32-.12.37-.05Z"/><path class="cls-1" d="M34.9,31.74a1.19,1.19,0,0,1,.34.65v.07a8.55,8.55,0,0,1-1,2.5,13.08,13.08,0,0,1-1.76,2.17,7.93,7.93,0,0,1-2.34,1.54,14.11,14.11,0,0,1-3.66,1.19l.3,2.23q.18,1.65.18,2.46a1.11,1.11,0,0,1-.14.49.65.65,0,0,1-.32.43,7.29,7.29,0,0,1-2.36.54,4.55,4.55,0,0,1-2.06,0,11.31,11.31,0,0,1-3.25-3.52,16.3,16.3,0,0,1-2.37-4.94,11.32,11.32,0,0,1-1.82-.94,9.86,9.86,0,0,1-1.47-1.08,4.67,4.67,0,0,1-.84,1.79,3.53,3.53,0,0,1-.56.62c-.23.28-1.06.41-2.48.39l-2.07-.13a1.79,1.79,0,0,1-.89-.38,1.42,1.42,0,0,1-.38-.93,7.06,7.06,0,0,1,.06-2l.14-1,.09-.76a2.61,2.61,0,0,0,0-.8l-.07-.47A14,14,0,0,1,6,28.25a11.71,11.71,0,0,1,1.46-3.61A8.21,8.21,0,0,1,11.63,21a10.45,10.45,0,0,1,3.4-.77q1.34-.06,5.19,1.87,2.34,1.17,5.05,2.79c2.29,1.35,4.32,2.67,6.12,3.94a21.75,21.75,0,0,1,3.51,2.89Z"/><path class="cls-2" d="M11.86,21.27A9.27,9.27,0,0,1,15,20.49q1.93-.1,11.07,5.9,4.56,3,8.73,6.06a10.54,10.54,0,0,1-1,2.23,10.32,10.32,0,0,1-1.81,2.22,9.6,9.6,0,0,1-3.48,2,8.52,8.52,0,0,1-2.15.57c-.08,0-.14-.14-.18-.41l-.09-.74c0-.23-.09-.31-.21-.23s-.16.27-.11.56c.14.75.31,1.87.49,3.35a15.17,15.17,0,0,1,.23,3s-.06.1-.19.17a7.4,7.4,0,0,1-2.21.54l-1.87.07a3.64,3.64,0,0,1-1-.84,15.15,15.15,0,0,1-1.79-2.11,14.46,14.46,0,0,1-2.83-7,3.89,3.89,0,0,0-.2-1.05c-.1-.17-.16-.11-.19.18A9.83,9.83,0,0,0,16.38,37a11.22,11.22,0,0,1-3.77-2.65,10.48,10.48,0,0,1-3.25-6.52,2.38,2.38,0,0,0-.13-.63c-.06-.11-.11-.1-.15,0a6,6,0,0,0,.14,2.14,7.79,7.79,0,0,0,.7,2.14,13.94,13.94,0,0,0,2.91,3.72,3.87,3.87,0,0,1-.35,1.08,5,5,0,0,1-.72,1.13,1.46,1.46,0,0,1-.73.38A8.75,8.75,0,0,1,7.85,38l-.36-.07a1.58,1.58,0,0,1-.89-.41,1.27,1.27,0,0,1-.32-.78,5.92,5.92,0,0,1,.08-1.47l.2-1.3a6.47,6.47,0,0,0,0-1.2,26.67,26.67,0,0,1-.2-3.46,10.21,10.21,0,0,1,1.49-4.46,8.59,8.59,0,0,1,4-3.54Z"/><path class="cls-3" d="M13.87,34.15a8.75,8.75,0,0,0,2.4.76A9.83,9.83,0,0,0,16.38,37a10.89,10.89,0,0,1-3.06-2A11.59,11.59,0,0,1,9.9,30.27a8.1,8.1,0,0,0,4,3.88Z"/><path class="cls-3" d="M12.83,35.26a3.87,3.87,0,0,1-.35,1.08,5,5,0,0,1-.72,1.13l-.37.25A4.6,4.6,0,0,1,9.83,38c.85-.34,1.22-1.22,1.12-2.66a12,12,0,0,0-1.1-4,13.52,13.52,0,0,0,3,3.87Z"/><path class="cls-3" d="M11,21.7a9.06,9.06,0,0,1,2.43-1A9.28,9.28,0,0,1,15,20.49q1.93-.1,11.07,5.9,4.56,3,8.73,6.06a10.54,10.54,0,0,1-1,2.23,10.32,10.32,0,0,1-1.81,2.22,9.6,9.6,0,0,1-3.48,2,8.52,8.52,0,0,1-2.15.57c-.08,0-.14-.14-.18-.41l-.09-.74c0-.23-.09-.31-.21-.23s-.16.27-.11.56c.14.75.31,1.87.49,3.35a15.17,15.17,0,0,1,.23,3s-.06.1-.19.17L26,45.3a11.4,11.4,0,0,0-.56-4.08,6.17,6.17,0,0,0-3.67-3.77,28,28,0,0,0-2.06-8.68A12.13,12.13,0,0,0,11,21.7Z"/><path class="cls-1" d="M8,37.08c.11,0,.26.13.45.35a.92.92,0,0,1,.28.62,1.34,1.34,0,0,1-.25.63c-.15.23-.28.34-.38.34s-.27-.15-.5-.44a1.28,1.28,0,0,1-.35-.6c0-.1.09-.27.3-.52s.36-.38.45-.38Z"/><path class="cls-4" d="M8.39,37.67a.7.7,0,0,1,.15.36,1.07,1.07,0,0,1-.18.43c-.12.2-.21.3-.25.3s-.18-.1-.37-.29-.28-.35-.27-.44a1.84,1.84,0,0,1,.35-.6c.06-.09.11-.14.16-.15s.09,0,.16.07l.25.32Z"/><path class="cls-1" d="M9.36,38.24a1.3,1.3,0,0,1,.28-.59q.29-.46.45-.48c.1,0,.26.12.46.39s.3.47.27.58l-.16.51a.82.82,0,0,1-.31.42c-.11.06-.31,0-.58-.3a1.54,1.54,0,0,1-.41-.53Z"/><path class="cls-4" d="M10.09,37.41c.05,0,.15.08.3.28a1.25,1.25,0,0,1,.26.5l-.14.37c-.09.2-.17.31-.22.32s-.19-.06-.41-.25-.32-.32-.33-.39.07-.23.23-.46a1.54,1.54,0,0,1,.31-.37Z"/><path class="cls-1" d="M11.19,38a1.54,1.54,0,0,1,.16-.54,1.14,1.14,0,0,1,.46-.55c.18-.09.37.1.56.55a1.66,1.66,0,0,1,.18,1c0,.15-.27.12-.71-.06s-.65-.34-.65-.44Z"/><path class="cls-4" d="M11.8,37.09c.07,0,.19.15.34.54a1.88,1.88,0,0,1,.21.65s-.16,0-.44-.11-.46-.2-.48-.26a.87.87,0,0,1,.1-.45c.1-.21.19-.34.27-.37Z"/><path class="cls-1" d="M22.16,45.83a1.06,1.06,0,0,1,.26-.52.76.76,0,0,1,.4-.28.69.69,0,0,1,.45.25,1.17,1.17,0,0,1,.28.47,1.72,1.72,0,0,1-.18.67c-.15.36-.26.53-.33.52s-.27-.19-.51-.5-.38-.51-.37-.61Z"/><path class="cls-4" d="M22.42,45.88a.86.86,0,0,1,.12-.35c.08-.15.16-.23.25-.25s.21,0,.36.2a.8.8,0,0,1,.21.35l-.13.43a1,1,0,0,1-.19.34c-.05,0-.17-.07-.35-.27s-.28-.36-.27-.45Z"/><path class="cls-1" d="M24.69,44.79a1,1,0,0,1,.57.23c.27.18.41.35.4.5l-.11.7c-.07.31-.14.48-.22.5s-.36-.07-.7-.31-.53-.43-.56-.58a1.35,1.35,0,0,1,.23-.59q.25-.45.39-.45Z"/><path class="cls-4" d="M24.79,45.05c.05,0,.16,0,.34.16s.28.21.29.27l-.05.5c0,.28-.08.42-.12.45s-.22-.06-.5-.27-.41-.35-.41-.43a1,1,0,0,1,.18-.4c.13-.18.22-.27.27-.28Z"/><path class="cls-1" d="M26.41,44.18c.21-.08.46.15.75.67s.38.88.26,1.07-.25,0-.63-.08l-.73-.25-.21-.14a.43.43,0,0,1,0-.28,2.18,2.18,0,0,1,.23-.57.92.92,0,0,1,.33-.42Z"/><path class="cls-4" d="M26.51,44.43a1.36,1.36,0,0,1,.53.66c.13.29.19.48.16.56s-.19,0-.52-.09a1.84,1.84,0,0,1-.56-.24s0-.22.11-.52.2-.42.28-.37Z"/><path class="cls-1" d="M27.77,41.62s.11-.12.3-.21a.6.6,0,0,1,.45-.09.92.92,0,0,1,.34.44c.12.24.15.39.1.47l-.4.38a.87.87,0,0,1-.49.24c-.1,0-.18-.21-.25-.56a1.9,1.9,0,0,1-.05-.67Z"/><path class="cls-4" d="M28.42,41.48q.09,0,.21.27c.08.17.11.28.08.33l-.28.32c-.17.16-.27.23-.32.23s-.07-.13-.11-.4l0-.48s.07-.1.19-.18a.46.46,0,0,1,.26-.09Z"/><path class="cls-1" d="M29.92,42a1,1,0,0,1,.46-.28c.13,0,.29.08.48.31a1,1,0,0,1,.27.46,1.44,1.44,0,0,1-.33.54c-.24.31-.42.46-.55.45s-.29-.19-.46-.53-.22-.54-.16-.63a1.72,1.72,0,0,1,.29-.32Z"/><path class="cls-4" d="M30.41,41.9a1,1,0,0,1,.28.22c.14.15.2.25.19.33l-.3.49c-.19.24-.3.36-.35.36s-.14-.14-.26-.4-.16-.44-.12-.53a.78.78,0,0,1,.27-.31c.15-.13.24-.18.29-.16Z"/><path class="cls-1" d="M32.12,42c.21-.25.39-.37.53-.36s.3.23.33.63a1.19,1.19,0,0,1-.25,1c-.13.15-.31.08-.55-.2a1.12,1.12,0,0,1-.33-.63,1.25,1.25,0,0,1,.27-.4Z"/><path class="cls-4" d="M32.35,42.09c.14-.15.24-.2.29-.16a.62.62,0,0,1,.13.25l.06.33-.07.27a.84.84,0,0,1-.16.31c-.05,0-.15,0-.3-.25a1.41,1.41,0,0,1-.22-.42,1.63,1.63,0,0,1,.27-.33Z"/><path class="cls-1" d="M14.09,9.8l2,1.11L20.74,16,14,17.16l-2.67-1A16.32,16.32,0,0,1,8.71,15a10.1,10.1,0,0,1,1-.58l1.66-.92c-.43.15-1,.4-1.81.75l-1,.45a7.39,7.39,0,0,1-1-.72c-.59-.49-.86-.74-.82-.78l.92-.5a7.16,7.16,0,0,0,1.36-.9,14.87,14.87,0,0,0-1.82.67l-1,.41a4.08,4.08,0,0,1-.82-.62c-.48-.42-.7-.64-.66-.68a3.86,3.86,0,0,1,.73-.37l1.23-.58-1.56.29-1.07.17a1.1,1.1,0,0,1-.45-.2c-.2-.14-.3-.23-.3-.28s.18-.16.57-.35l1-.47H3.79c-.48,0-.7-.07-.65-.16a3.32,3.32,0,0,1,.67-.55l.62-.43.44.1-.3-.1c-.17-.07-.23-.11-.18-.13l.69-.23a3.19,3.19,0,0,1,.66-.18L7,8.83l-.42-.48-.31-.41c0-.09.29-.16,1-.21l1.16,0L9.1,8.89,9,8.26c0-.24-.05-.36,0-.39l.42,0A1.45,1.45,0,0,1,9.83,8a5.93,5.93,0,0,1,.49.8l-.23-.61C10,8,10,7.87,10,7.84a4.84,4.84,0,0,1,1.25.45,6.41,6.41,0,0,1,1.25.6l.33.85-.09-.4,0-.25a10.56,10.56,0,0,1,1.41.71Z"/><path class="cls-5" d="M20.32,15.88,14,16.94,9.21,15a27.61,27.61,0,0,0,2.89-1.68l.35-.27-.43.09a19.07,19.07,0,0,0-1.81.65c-.82.34-1.36.56-1.59.68L7.17,13.26l1.14-.63a6.34,6.34,0,0,0,1.26-1l.29-.28s-.16,0-.5.12l-1.69.6-1.35.52-1.13-1,1.15-.55,1.16-.59.32-.16c.15-.09,0-.11-.39,0l-3.24.57-.39-.24L5.42,9.8l.26-.11c.12-.07,0-.1-.32-.1l-1,0H3.44a4.2,4.2,0,0,1,1.05-.73L6,9.28l.44.17c.22.06.15,0-.22-.24a6.59,6.59,0,0,0-.81-.46L5,8.57l.74-.22,1.71,1c.05,0,0,0,0-.16A7.14,7.14,0,0,0,6.65,8L8.38,8a16.66,16.66,0,0,0,.83,1.5c.13.19.2.25.22.19V9.52c-.13-.72-.22-1.2-.25-1.42l.54.12,1.17,2q.15.19,0-.39l-.33-1-.23-.59,2,.83.84,2.18.08-.35L13,9.4a15.26,15.26,0,0,1,1.44.75q1,.55,1.53.93l4.39,4.8Z"/><path class="cls-1" d="M15.3,15.61,14.56,14l3.26,1.48,7.7,2.87-.1.13c-.61.75-1.25,1.48-1.92,2.21a10.8,10.8,0,0,1-2.87,2.51l0,0,0,0a14.14,14.14,0,0,0-4-.3H13.71a4.5,4.5,0,0,1-.28-.68L13,21.05l.15,1.87,0,.24a.14.14,0,0,1-.12.1,18,18,0,0,1-3.41.33,4.38,4.38,0,0,1,0-.85l0-1.18A4.57,4.57,0,0,0,9.37,23l0,.89a9.49,9.49,0,0,1-1.77.57,11.38,11.38,0,0,1-1.75.43,3.77,3.77,0,0,1,0-.71v-.87l-.42,1.21a2.55,2.55,0,0,1-.27.66l-1.39.29-1.32.17.46-.89.71-1.33A23.7,23.7,0,0,0,1.73,25,15.07,15.07,0,0,1,.25,26.25c-.06,0-.06-.31,0-.89a3.64,3.64,0,0,1,.12-.92,19.54,19.54,0,0,1,1.82-1.28c-.2.06-.64.23-1.31.5A3.14,3.14,0,0,1,0,24a5.93,5.93,0,0,1,.57-1.14,6.46,6.46,0,0,1,.71-1.18,5.11,5.11,0,0,1,.82-.3l1.37-.46L2.34,21l-.63,0a3.44,3.44,0,0,1,.59-1A3.12,3.12,0,0,1,3.24,19a17.71,17.71,0,0,1,2.92-.34,11.19,11.19,0,0,0-1.1-.31c-.48-.12-.71-.2-.71-.24a6,6,0,0,1,1.07-.91,7.68,7.68,0,0,1,1.18-.84l.66.08,1.15.22-.81-.32c-.29-.11-.41-.18-.37-.19l1.16-.61c.73-.4,1.13-.6,1.19-.62a2.72,2.72,0,0,1,.82.23l1.42.5-.77-.39q-.44-.21-.33-.27a9.88,9.88,0,0,1,1.44-.32l1.41-.22a13.27,13.27,0,0,1,1.73,1.19Z"/><path class="cls-5" d="M15,14.47l2.68,1.23,7.41,2.75c-.7.85-1.37,1.62-2,2.31A10.47,10.47,0,0,1,20.57,23a14,14,0,0,0-3.69-.36c-1,0-2.07,0-3.09.05L12.93,20c-.08-.24-.15-.36-.19-.36s-.07.14,0,.4c.12,1.18.19,2.18.21,3l-3.05.29a12.46,12.46,0,0,0,0-2.53q-.07-.41-.45,1.05a10.89,10.89,0,0,0-.36,1.78L6,24.49v-.33A7.18,7.18,0,0,1,6,23.3a8.19,8.19,0,0,0,.07-.92c0-.39,0-.58,0-.58a4.14,4.14,0,0,0-.19.52l-1,2.59-2.1.37,1.09-2.14.25-.28q.15-.22-.39.12a9.1,9.1,0,0,0-1.21.89L1.12,25.16l-.63.59c0-.28,0-.69.09-1.24l2.35-1.58.25-.17c.1-.1,0-.11-.35,0a16,16,0,0,0-2.39.77,15.2,15.2,0,0,1,1-1.65c1.55-.57,2.53-.91,2.93-1s.48-.16.49-.2l-.54,0-2.17.14q.33-.54.63-1a1.94,1.94,0,0,1,.55-.57L5,19l1.71-.15.38,0s-.09-.07-.35-.18a15.66,15.66,0,0,0-1.89-.68l1-.79.83-.58,1.17.23,1.55.28.5,0s-.13-.11-.44-.25l-1.7-.74,1.82-1,3.63,1.16c.23,0,.1-.08-.4-.35l-1-.59-.43-.28,2.15-.41,2.34,1.62L15,14.47Z"/><path class="cls-6" d="M15.86,16.29,15,14.47l2.68,1.23,7.41,2.75c-.7.85-1.37,1.62-2,2.31A10.47,10.47,0,0,1,20.57,23a8.18,8.18,0,0,0-1.93-.3,5.45,5.45,0,0,0-.42-2.7,3.62,3.62,0,0,0-2.32-1.83,3,3,0,0,0-.45-1.5,9.52,9.52,0,0,0-1.06-1.37l1.47,1Z"/><path class="cls-1" d="M45.07,11.44a4.52,4.52,0,0,1,1,.57,4.15,4.15,0,0,1-1,.41L43.54,13H45l.75.07a3.86,3.86,0,0,1-.7.76l-.8.75-1.05-.14-1.68-.27,1.48.61a7.62,7.62,0,0,1,.86.38l-1.11.92a7.37,7.37,0,0,1-1.2.85l-1.2-.75a10.33,10.33,0,0,0-1.86-1,12.61,12.61,0,0,1,2.2,1.62,6.17,6.17,0,0,1-1.21.6c-.78.33-1.2.5-1.27.51l-1.3-.84a9.78,9.78,0,0,0-2.09-1.13,19.49,19.49,0,0,1,1.49,1.48,6.12,6.12,0,0,1,1,1.13,2.32,2.32,0,0,1-.51.22l-.55.14-.59-.55a4.26,4.26,0,0,0-.91-.71l.72.84a3.39,3.39,0,0,1,.5.62,6.18,6.18,0,0,1-.76.54,2.9,2.9,0,0,1-.83.46l-.69-.66a4.46,4.46,0,0,0-1.17-.87l.78,1a4,4,0,0,1,.61.8l-3.26,1.05-6-2L27,13.71v0a13.57,13.57,0,0,1,2.38-1.53,7.5,7.5,0,0,1,1.93-.94s0,.31-.2.81l-.39,1.14.6-1.36a3.84,3.84,0,0,1,.34-.7q.14-.07,1.41-.45a4.63,4.63,0,0,1,1.31-.29l-.34.72c-.26.51-.43.87-.51,1.07L34.26,11a5.86,5.86,0,0,1,.48-.67,4.94,4.94,0,0,1,.95-.18l.87-.08-.67,1.52.83-.94.54-.59,1-.06a4.59,4.59,0,0,1,1,0,1.5,1.5,0,0,1-.12.52l-.3.77a14.45,14.45,0,0,1,1.85-1.39h0a7.24,7.24,0,0,1,1.49.29,4.28,4.28,0,0,1,1.09.33l-.41.52-.7.8,1.05-.57a3.71,3.71,0,0,1,.71-.34,5.19,5.19,0,0,1,1.09.5Z"/><path class="cls-5" d="M42.38,11.38a5.5,5.5,0,0,1-.67.75q-.24.19-.24.24s.13,0,.38-.07A23.24,23.24,0,0,0,44,11.17l1.56.81-1.24.49A12.87,12.87,0,0,1,43,13l-.59.13c-.09,0,0,.05.24.07l2.7.08-1.1,1-1.39-.17-2-.28c-.41-.05-.55,0-.4,0l.34.14a29.85,29.85,0,0,1,2.74,1.19,4.53,4.53,0,0,1-.89.73l-1,.65a21.37,21.37,0,0,0-3.65-1.78l-.4,0s.1.09.34.22l1.4.92a5.1,5.1,0,0,1,1,.78,3.43,3.43,0,0,1-.88.46l-1.14.49a10.4,10.4,0,0,0-3.76-2c-.5-.06-.7-.06-.61,0l.5.22a12.52,12.52,0,0,1,1.08,1,17.36,17.36,0,0,1,1.44,1.57,4,4,0,0,0-.62.25,5.78,5.78,0,0,0-.82-.65,9.6,9.6,0,0,0-1-.63c-.19-.09-.28-.12-.28-.09l.17.24.57.74.67.82-1.23.77-.87-.76a6.84,6.84,0,0,0-1.15-.77q-.28-.14-.3-.09l.13.28a7,7,0,0,0,.55.84l.76,1-2.89.93-5.75-1.93,2.24-5.45a20.91,20.91,0,0,1,3.81-2.21l-.34,1.25L30.27,14a1.13,1.13,0,0,0-.11.45c0,.05.13-.08.31-.4l.78-1.54.56-1.24,2.1-.6A13.92,13.92,0,0,0,33,12.85a3.4,3.4,0,0,0-.16.55l.35-.47c.3-.47.84-1.27,1.64-2.4l1.44-.21a7.12,7.12,0,0,0-.82,1.74c-.08.25-.11.37-.09.38l.27-.27,1.69-1.9,1.71,0-.27.64-.38.81-.15.39.31-.25L39.63,11a9.34,9.34,0,0,1,1.14-.83,12.55,12.55,0,0,1,2.19.52l-.58.74Z"/><path class="cls-6" d="M28.55,12.88a15,15,0,0,1,1.39,2.54,8.45,8.45,0,0,1,4.21,1,10.43,10.43,0,0,1,1.22.95l1.28,1.07-.36.15a5.78,5.78,0,0,0-.82-.65,9.6,9.6,0,0,0-1-.63c-.19-.09-.28-.12-.28-.09l.17.24.57.74.67.82-1.23.77-.87-.76a6.84,6.84,0,0,0-1.15-.77q-.28-.14-.3-.09l.13.28a7,7,0,0,0,.55.84l.76,1-2.89.93-5.75-1.93,2.24-5.45a10.11,10.11,0,0,1,1.42-.95Z"/><path class="cls-1" d="M19.41,19.49l-1.7,0c-1,0-1.41-.06-1.33-.12L18,18.08l-2.62-.83L15,17.11l.39-.07,4,.21L23,19.43l-2.39.71a10.18,10.18,0,0,1-2.31.57l.54-.6.53-.62Z"/><path class="cls-5" d="M18.3,18.12l.21-.13-.21-.13a7.73,7.73,0,0,0-1.14-.32l-.91-.24,1.53.05,1.57.12,3.15,1.88a18.61,18.61,0,0,1-3.26.86s0-.17.24-.44.31-.44.29-.48l-1.4-.1L17,19.14s.15-.17.55-.47l.78-.55Z"/><path class="cls-1" d="M24.59.71c.32-.13.5-.13.55,0a.9.9,0,0,1-.08.37,3.85,3.85,0,0,0-.19,1l.53-.51a1.85,1.85,0,0,1,.49-.36l.34,0c.06.05.06.14,0,.29A3.33,3.33,0,0,0,26,2.7a2.76,2.76,0,0,0,.59,1.92l.08.11-.12.07a24.59,24.59,0,0,1-2.26,1.08l-.94.34-.1,0L21.39,2.87l.52-1Q22.5.71,22.72.38c.19-.26.34-.39.45-.38s.16.14.13.4a6.08,6.08,0,0,0,0,1.08l.57-.37a4,4,0,0,1,.75-.4Z"/><path class="cls-7" d="M25.7,2.67a3.33,3.33,0,0,0,.59,2A15.81,15.81,0,0,1,23.35,6L21.66,2.87C22.49,1.32,22.91.61,22.92.76v.51a1.62,1.62,0,0,0,.05.49l.08.17.21-.16a4.91,4.91,0,0,1,.83-.51q.65-.34.63-.24l-.09.54-.07.65c0,.33.09.39.28.17a6.69,6.69,0,0,1,.61-.56c.3-.25.44-.34.4-.28a2,2,0,0,0-.09.44,4.23,4.23,0,0,0-.05.69Z"/><path class="cls-1" d="M21.64,2.74c.13-.05.23,0,.28.06l.46.63A3.11,3.11,0,0,1,22.81,5a3.38,3.38,0,0,1-.29,1.35A9.85,9.85,0,0,0,22,8l-.52,2.51c-.42,2.19-.76,3.73-1,4.61-.4,1.46-.81,2.3-1.21,2.51h-.45l-.41-.19a6.73,6.73,0,0,1-2.1-1.33,5.49,5.49,0,0,1-1.2-3.27Q15,10.7,17.88,6.71A27.66,27.66,0,0,1,20.13,4a5.3,5.3,0,0,1,1.51-1.26Z"/><path class="cls-1" d="M21.82,7.94l-.53,2.57c-.4,2.05-.72,3.52-.95,4.41-.4,1.51-.78,2.36-1.14,2.54a.26.26,0,0,1-.24,0l-.41-.19a6,6,0,0,1-2-1.27,5.24,5.24,0,0,1-1.16-3.13v-.24c0-1.16.64-2.73,1.92-4.69a24.43,24.43,0,0,1,3.34-4.12,6.53,6.53,0,0,1,.78-.68L21.74,3h0l.43.58A2.91,2.91,0,0,1,22.58,5a3.32,3.32,0,0,1-.28,1.28,9.07,9.07,0,0,0-.48,1.67Z"/><path class="cls-1" d="M28.78,6.94q3.79,5.37-.56,10a6.32,6.32,0,0,1-2.88,1.75,7.77,7.77,0,0,1-2.92.31,9.52,9.52,0,0,1-2.73-.66,4.39,4.39,0,0,1-1.47-.79,8.89,8.89,0,0,1-3.71-2.78,6.28,6.28,0,0,1-1.37-3.17Q12.85,9,15.37,6.37A15,15,0,0,1,18.48,3.8a4.46,4.46,0,0,0,1.3-1.14,1.77,1.77,0,0,0,.4-1l0-.46A.81.81,0,0,0,20,.84C19.92.72,19.9.64,20,.6s.19,0,.38.07a1.76,1.76,0,0,1,.69.58l.36.65.13-.52c.08-.23.17-.29.28-.18a6.38,6.38,0,0,1,.59,2.21l.13-.57q0-.12.33.33a10.5,10.5,0,0,1,.7,1.23,6.66,6.66,0,0,1,.73-1.47c.13-.22.24-.33.33-.34s.11.08.1.28a3.49,3.49,0,0,0,.17,1,3.9,3.9,0,0,1,.46-.82,4.79,4.79,0,0,1,.6-.69,1,1,0,0,1,.57-.28c.17,0,.22,0,.15.2l-.21.49a3.22,3.22,0,0,0-.11.76A3.78,3.78,0,0,1,26.83,3a3.88,3.88,0,0,1,.48-.36c.52-.35.7-.35.55,0a3.61,3.61,0,0,0-.42,1.84,8.16,8.16,0,0,0,1.34,2.45Z"/><path class="cls-8" d="M20.76,5.54c-1.14,1-1.92,1.78-2.32,2.18A7.21,7.21,0,0,0,16,13.06a5.78,5.78,0,0,0,.61,2.61,6.88,6.88,0,0,0,.84,1.12c-2.54-1.67-3.81-3.51-3.83-5.52v0a7.15,7.15,0,0,1,2.08-4.61,13.16,13.16,0,0,1,3.18-2.69,3.1,3.1,0,0,0,1.69-2l0-.58c0-.14,0-.19.06-.14a4.87,4.87,0,0,1,.55.74,2.26,2.26,0,0,1,.18.49c0,.15.08.18.11.1l.1-.53c0-.23.09-.32.13-.27a3.84,3.84,0,0,1,.46,1.34l0,.27c0,.52-.47,1.26-1.4,2.22Z"/><path class="cls-7" d="M20.87,6.63a33.72,33.72,0,0,0-2.49,2.82A7,7,0,0,0,17,13.51a9.06,9.06,0,0,0,.92,3.36A4.33,4.33,0,0,1,16.68,15a4,4,0,0,1-.31-1.75A7.71,7.71,0,0,1,17,10.51a7.89,7.89,0,0,1,1.44-2.23c.39-.42,1.12-1.14,2.19-2.14a6.38,6.38,0,0,0,1.68-2.46,1.78,1.78,0,0,1-.07.83,5.64,5.64,0,0,1-1.37,2.12Z"/><path class="cls-8" d="M28,16.76a5.53,5.53,0,0,1-2.77,1.57,8.54,8.54,0,0,1-2.81.2A12.18,12.18,0,0,1,19.61,18a3.41,3.41,0,0,1-1.22-.57h0l-.16-.3a7.05,7.05,0,0,1-.93-3.39,7.52,7.52,0,0,1,1.34-4.09A20.39,20.39,0,0,1,21,6.79a9.92,9.92,0,0,0,1.08-1.51c.5-.84.7-1.4.6-1.67a2.47,2.47,0,0,1,.36.52,4.23,4.23,0,0,0,.42.63c.17.19.27.25.3.2l0-.37A1.5,1.5,0,0,1,24.06,4a4.14,4.14,0,0,1,.45-.75,3.24,3.24,0,0,0,.29,1.15l.15.17L25,4.29a5,5,0,0,1,.38-.79,4,4,0,0,1,.69-.91l.22-.15a2.65,2.65,0,0,0-.16.66,4.13,4.13,0,0,0-.07.76c0,.21,0,.31.07.3L26.29,4a2.32,2.32,0,0,1,.52-.55c.29-.25.42-.32.39-.23a5,5,0,0,0-.16,1,2.65,2.65,0,0,0,.31,1.16,14.87,14.87,0,0,0,1.11,1.76,7.83,7.83,0,0,1,1.09,2.16A8,8,0,0,1,30,11.73a7.24,7.24,0,0,1-.47,2.58A7.39,7.39,0,0,1,28,16.76Z"/><path class="cls-7" d="M17.41,16.79A11.75,11.75,0,0,1,15,14.71a10.88,10.88,0,0,0,1.32.34,5.05,5.05,0,0,0,.61,1.15l.5.59Z"/><path class="cls-7" d="M29.77,10.06A7.51,7.51,0,0,1,30,11.73a7.24,7.24,0,0,1-.47,2.58A7.39,7.39,0,0,1,28,16.76a5.53,5.53,0,0,1-2.77,1.57,8.54,8.54,0,0,1-2.81.2A12.18,12.18,0,0,1,19.61,18a3.41,3.41,0,0,1-1.22-.57h0l-.16-.3a8.29,8.29,0,0,1-.71-1.74A11.56,11.56,0,0,0,25,15a7.26,7.26,0,0,0,4.76-5Z"/><path class="cls-2" d="M36.33,22c.13.09.12.72,0,1.88a29.9,29.9,0,0,1-.76,3.89,8,8,0,0,1,0,2.59,10.89,10.89,0,0,1-.72,2.83,5.58,5.58,0,0,1-1.37,2A17,17,0,0,1,31,36.94a9.1,9.1,0,0,1-4.68,1.18,11.74,11.74,0,0,1-6-1.32,7.52,7.52,0,0,1-4.15-4.86,1.42,1.42,0,0,1-.29-1.13,1.69,1.69,0,0,1,.43-.81,4.53,4.53,0,0,1,.21-1.93l.36-1.17-.22-.38a1.31,1.31,0,0,1-.17-.73,10.25,10.25,0,0,1-.38-2,5.08,5.08,0,0,1-.05-2,4.54,4.54,0,0,1,2.13-.26l2.13.16a6.29,6.29,0,0,1,1.3-.65,8.1,8.1,0,0,1,2-.62,8.91,8.91,0,0,1,3.38.18A7.19,7.19,0,0,1,29.68,22a9.73,9.73,0,0,1,4.42-.53,5.44,5.44,0,0,1,2.23.5Z"/><path class="cls-3" d="M21.65,21.12a8.1,8.1,0,0,1,2-.62,7.94,7.94,0,0,1,5.1.91,14.09,14.09,0,0,0-2.29,1.81c-.48.46-1.15,1.17-2,2.12Q21.88,22,18.93,23.09a1.66,1.66,0,0,0-.39-1,1.2,1.2,0,0,0-.82-.48l1.59.05,1,.1a6.29,6.29,0,0,1,1.3-.65Z"/><path class="cls-1" d="M16.64,32.4s.22,0,.65,0a2.24,2.24,0,0,1,.89.23l-.1.57-.17.52c-.07.2-.15.31-.24.32s-.34-.18-.6-.57a2.48,2.48,0,0,1-.43-1.07Z"/><path class="cls-4" d="M18,32.73l-.15.4c-.11.33-.19.5-.25.51s-.1-.06-.19-.16L17.08,33a1.52,1.52,0,0,1-.26-.62v0l.49,0a2.84,2.84,0,0,1,.68.29Z"/><path class="cls-3" d="M36.33,22c.13.09.12.72,0,1.88a29.9,29.9,0,0,1-.76,3.89,8,8,0,0,1,0,2.59,10.89,10.89,0,0,1-.72,2.83,7.56,7.56,0,0,1-1.7,2.36A5.15,5.15,0,0,1,31,36.94a5.09,5.09,0,0,0,1.79-1.63A7.32,7.32,0,0,0,34,32.66a10.13,10.13,0,0,0-1.25-7.36,5.69,5.69,0,0,1-.57-1.22q0-.09.48-.42a11.24,11.24,0,0,1,2.54-1.37c.69-.27,1.08-.37,1.16-.31Z"/><path class="cls-1" d="M31.38,34.52l-.29.33c-.11.11-.2.16-.28.13s-.14-.11-.24-.25L30,33.85l.1-.14L32,33.56l-.64,1Z"/><path class="cls-4" d="M30.31,33.86a4.57,4.57,0,0,1,1.36-.2c-.47.72-.74,1.06-.79,1l-.26-.35-.31-.49Z"/><path class="cls-1" d="M36.58,21.69c.15.11.17.81,0,2.08a16.76,16.76,0,0,1-.95,4.15,7.68,7.68,0,0,1-.12,4,6.39,6.39,0,0,1-1.89,3.23A22.58,22.58,0,0,0,35,32.3a8.6,8.6,0,0,0,.5-2.5,8.42,8.42,0,0,0-.11-1.43,4,4,0,0,0-.21-.9c0-.11,0-.18,0-.22s.08,0,.15,0l.23.24a26.08,26.08,0,0,0,.74-3.81,3.91,3.91,0,0,0,0-1.65,5.92,5.92,0,0,0-2.17-.47,9.5,9.5,0,0,0-4.36.52l-.07,0,0,0A6.17,6.17,0,0,0,27,20.86a9.57,9.57,0,0,0-3.22,0,8.36,8.36,0,0,0-2.45.81,9.76,9.76,0,0,0-1.55.92c-.26.18-.41.26-.46.23s0-.11.13-.26l.44-.42.27-.24-2-.15a4.38,4.38,0,0,0-2,.2c-.1.1-.12.44-.06,1.05a13.71,13.71,0,0,0,.52,2.43l.08-.08a20.12,20.12,0,0,1-.36-2.93.17.17,0,0,1,.14-.18c.16,0,.43.31.8,1a4.54,4.54,0,0,1,.62,1.44l.09-.05.34-.06c.16,0,.24,0,.24.11s-.1.14-.27.17a4,4,0,0,0-.8.38,3.33,3.33,0,0,0-.86.65c-.11.13-.12.4,0,.82l.17.59A5.15,5.15,0,0,0,16.39,29a9.49,9.49,0,0,0,0,1,1.37,1.37,0,0,0-.3,1.3,1,1,0,0,0,.88.8,8.92,8.92,0,0,1,1.67.53,9.72,9.72,0,0,1,2.3,1.21l0,0h0a3.11,3.11,0,0,0,.88.95,1.52,1.52,0,0,0,1,.43,8.48,8.48,0,0,0,2-.73h0a41.92,41.92,0,0,1,5.77-1l1.34-.17a1.33,1.33,0,0,0,.57-.21l.37-.29q.15-.12.21-.06s0,.11,0,.23l-.28.31a1.83,1.83,0,0,1-.64.29l-.43.06-.78.09a45.07,45.07,0,0,0-5.85,1,8.72,8.72,0,0,1-2.19.92,1.67,1.67,0,0,1-1.17-.54,4,4,0,0,1-.94-1.07A8.27,8.27,0,0,0,18.61,33a8,8,0,0,0-1.55-.44,1.72,1.72,0,0,1-.62-.22,7.54,7.54,0,0,0,4,4.35,10.24,10.24,0,0,0,5,1.25A16.42,16.42,0,0,0,31,36.75a1.29,1.29,0,0,1,.59-.14c.06,0-.11.15-.52.34a13.27,13.27,0,0,1-5.61,1.36A10.5,10.5,0,0,1,20.3,37a7.6,7.6,0,0,1-4.17-4.9,1,1,0,0,1-.51-1,1.72,1.72,0,0,1,.46-1.2,6.92,6.92,0,0,1,.43-2.71,1.78,1.78,0,0,1-.27-.84,1.05,1.05,0,0,1,.14-.72,10.21,10.21,0,0,1-.64-2.8c-.05-.77,0-1.2.18-1.32a4.42,4.42,0,0,1,2.26-.18l2.14.25a7.71,7.71,0,0,1,1.4-.67,8,8,0,0,1,2-.59,9.38,9.38,0,0,1,3.3.12,6.93,6.93,0,0,1,2.73,1.32,10.75,10.75,0,0,1,4.49-.59,5.93,5.93,0,0,1,2.38.46Z"/><path class="cls-9" d="M16.5,22.47v0a5,5,0,0,1,.61,1,6.4,6.4,0,0,1,.53,1.34,2.55,2.55,0,0,0-.78.45l-.22-1.36a14.09,14.09,0,0,1-.14-1.42Z"/><path class="cls-1" d="M17.45,26.66a1.07,1.07,0,0,1,.34.17A7.2,7.2,0,0,1,19.34,29a15.31,15.31,0,0,1,1.11,2.64l.11.44c0,.11,0,.16-.07.15l-.14-.09,0-.09a3,3,0,0,1-1.85-.49,8.22,8.22,0,0,1-1.66-1.08c-.11,0-.17-.09-.19-.18a.15.15,0,0,1,0-.14l.07,0a5,5,0,0,1,.06-2A2.1,2.1,0,0,1,17.35,27l-.22-.23c0-.08,0-.13,0-.17l.32,0Z"/><path class="cls-4" d="M16.91,29.57a5.16,5.16,0,0,1,.26-1.64c.15-.46.29-.73.41-.79.27.09.7.69,1.3,1.81a16.33,16.33,0,0,1,1.25,2.92,3.36,3.36,0,0,1-1.61-.51,9.66,9.66,0,0,1-1.55-1,5.79,5.79,0,0,1-.06-.79Z"/><path class="cls-1" d="M18.38,27.92h.15a16.76,16.76,0,0,1,1.07,2,14.82,14.82,0,0,1,.77,2l0,.08L19.61,32a3.56,3.56,0,0,1-1.38-.51h0l0,0a5.75,5.75,0,0,1-.4-1.78,2.48,2.48,0,0,1,.59-1.69Z"/><path class="cls-10" d="M18.08,29.79a3.63,3.63,0,0,1,.38-1.64,17.9,17.9,0,0,1,1,1.88,14.11,14.11,0,0,1,.71,1.87,3.61,3.61,0,0,1-1.81-.6,4.33,4.33,0,0,1-.27-1.51Z"/><path class="cls-1" d="M32.42,26.79c.17,0,.25,0,.24.11a.22.22,0,0,1-.13.19l-.34.15A2.42,2.42,0,0,1,32.81,29a4.44,4.44,0,0,1-.21,1.93c.24,0,.35.06.33.14l-.15.13-.45.11L27.16,32.4l-.2.07c-.11,0-.15-.07-.11-.25a5.81,5.81,0,0,1,.81-2,9.24,9.24,0,0,1,1.63-1.88,5.84,5.84,0,0,1,3.13-1.55Z"/><path class="cls-4" d="M29.41,28.83a9.47,9.47,0,0,1,1.41-1.08,3.59,3.59,0,0,1,1.09-.48,2.46,2.46,0,0,1,.39,1.13A7.81,7.81,0,0,1,32.44,30,3.82,3.82,0,0,1,32.33,31c-.6.08-2.09.41-4.47,1l-.61.14a3.66,3.66,0,0,1,.65-1.55,9.11,9.11,0,0,1,1.51-1.75Z"/><path class="cls-1" d="M30.5,27.69l.1-.06,0,.12a5.41,5.41,0,0,1,.3,3.69v.06h-.05l-3,.68L27,32.4v-.11a4.51,4.51,0,0,1,1.23-2.53,10.71,10.71,0,0,1,2.25-2.07Z"/><path class="cls-10" d="M30.5,27.92a9.59,9.59,0,0,1,.38,2.44,3.85,3.85,0,0,1-.11,1l-2.9.67-.66.16a4.49,4.49,0,0,1,1.19-2.33,10.61,10.61,0,0,1,2.1-1.93Z"/><path class="cls-1" d="M36,22.5l-.13.13-.06,0a3.88,3.88,0,0,1-.08,2,13.51,13.51,0,0,1-.44,1.9l-.14.29L35,26.7a5.47,5.47,0,0,0-.74-.93,8.44,8.44,0,0,0-1.35-1.2l-.19.12c-.08,0-.12,0-.15,0s0-.14.12-.26A12.43,12.43,0,0,1,34,23.37a5.65,5.65,0,0,1,1.51-.95l.49-.05s0,.06,0,.13Z"/><path class="cls-9" d="M35.38,24.68c-.1.7-.21,1.28-.32,1.74a7.71,7.71,0,0,0-.74-1,5.69,5.69,0,0,0-1.1-1,11.19,11.19,0,0,1,1.13-1,3.93,3.93,0,0,1,1.18-.69l0,.24a11.59,11.59,0,0,1-.17,1.7Z"/><path class="cls-1" d="M20.33,27.68c-.09-.2-.11-.31-.07-.36s.13,0,.25.25a6,6,0,0,1,.45.92,4.18,4.18,0,0,1,.29,1.23c0,.37,0,.49,0,.38L21,29.52l-.31-.91-.39-.93Z"/><path class="cls-1" d="M28,27.06c.12-.09.19-.11.22-.07s0,.11-.09.19a3,3,0,0,0-.69,1.05,8.3,8.3,0,0,0-.55,1.8c0,.23-.08.36-.13.39s-.07-.07-.06-.34a3.63,3.63,0,0,1,1.3-3Z"/><path class="cls-1" d="M21.27,33.54h.18a.72.72,0,0,1,.25.27l.14.32q0,.15,0,.15l-.16-.1-.34-.42a.25.25,0,0,1-.07-.23Z"/><path class="cls-1" d="M23.36,34.39c.05-.17.25-.34.6-.5.11,0,.17,0,.21,0s0,.13-.08.19l-.58.38-.2.08.05-.18Z"/><path class="cls-1" d="M19,29.06l.31.61.29.63a2.1,2.1,0,0,1-.14.64q-.11.27-.24.27c-.11,0-.2-.12-.28-.34a2.63,2.63,0,0,1-.11-.84,2.25,2.25,0,0,1,.17-1Z"/><path class="cls-1" d="M28.92,30.74a2,2,0,0,1-.25.74c-.12.19-.25.28-.37.25s-.21-.13-.26-.35a2.07,2.07,0,0,1,0-.79,1.91,1.91,0,0,1,.25-.73c.12-.2.24-.28.37-.26s.21.14.26.36a2,2,0,0,1,0,.78Z"/><path class="cls-1" d="M28.69,16.12c.83-.4,2-.89,3.6-1.46A30.55,30.55,0,0,1,35.9,13.5l.23,0c0,.05-.05.09-.19.12a37.71,37.71,0,0,0-3.69,1.28c-1.64.64-2.92,1.18-3.83,1.61l.27-.41Z"/><path class="cls-1" d="M39.4,13.23A56.41,56.41,0,0,0,33.9,15a51.29,51.29,0,0,0-6.26,2.59l.09-.3a46.87,46.87,0,0,1,6-2.49,44.4,44.4,0,0,1,5.63-1.67c.14,0,.22,0,.23,0s-.05.08-.2.11Z"/><path class="cls-1" d="M33.54,14.3A7.09,7.09,0,0,1,34,12.73c0-.09.06-.12.1-.11s0,.06,0,.14a11,11,0,0,0-.34,1.5l-.18,0Z"/><path class="cls-1" d="M31.15,15.21c.12-.61.24-1.13.37-1.57,0-.09.06-.12.1-.1s0,.07,0,.15a11,11,0,0,0-.26,1.41l-.22.11Z"/><path class="cls-1" d="M34.12,14.06a5.33,5.33,0,0,1,.17-.8c0-.06,0-.09.08-.08s.05.05,0,.12l-.12.72-.17,0Z"/><path class="cls-1" d="M35.65,14.28l.61.53c.05,0,.06.08,0,.11l-.12,0-.74-.58.22,0Z"/><path class="cls-1" d="M31.21,15.86l.18-.1c.19.14.45.34.75.61l.69.7c.05.06.06.1,0,.13s-.08,0-.13-.05L32,16.47l-.77-.61Z"/><path class="cls-1" d="M32.53,15.34l.19-.09a7.49,7.49,0,0,1,1.22,1.16c.05.06.07.11,0,.13s-.08,0-.13-.06a10.81,10.81,0,0,0-1.31-1.14Z"/><path class="cls-1" d="M16.61,16.5l.36.22c-1,.22-2.33.53-3.87.92-1.83.48-3.08.85-3.73,1.1H9.14s0-.09.18-.15c.72-.29,1.92-.68,3.61-1.16,1.5-.43,2.73-.74,3.68-.94Z"/><path class="cls-1" d="M6.3,20.41H6.08s0-.08.17-.14a39.53,39.53,0,0,1,4.64-1.61,53.24,53.24,0,0,1,5.26-1.3l.48.16q-2.28.45-5.53,1.36T6.3,20.41Z"/><path class="cls-1" d="M11.1,16.74c-.08,0-.1-.09-.08-.12l.15,0a8.24,8.24,0,0,1,1.24,1l-.18.08a10.07,10.07,0,0,0-1.13-1Z"/><path class="cls-1" d="M13,17.47l-.16.06L12.37,17c-.07-.06-.1-.1-.07-.13s.07,0,.14,0l.6.55Z"/><path class="cls-1" d="M7.75,19.79l.16-.06a6.48,6.48,0,0,0-.09.77c0,.09,0,.13-.06.14s-.06-.05-.06-.13a4,4,0,0,1,0-.72Z"/><path class="cls-1" d="M11.56,18.61c0,.3,0,.63,0,1a9.23,9.23,0,0,0,.05,1c0,.08,0,.12,0,.12s-.07,0-.08-.1a8.22,8.22,0,0,1-.11-1,7,7,0,0,1,0-1l.19-.05Z"/><path class="cls-1" d="M10.79,18.83a9.06,9.06,0,0,0-.08,1.71c0,.09,0,.14-.05.15s-.06,0-.07-.11a7.36,7.36,0,0,1,0-1.69l.19-.06Z"/><path class="cls-11" d="M23.54,22.88c.34-.33,1.35-.3,3,.08s2.56.8,2.6,1.27-.53,1.14-1.67,2.19S25.56,28,25.1,27.91s-.88-.85-1.33-2.35-.53-2.39-.23-2.68Z"/><path class="cls-12" d="M23.45,24.19c-.1-.71-.08-1.14.09-1.31s.57-.22,1.21-.19a11.27,11.27,0,0,1,2,.31,31.15,31.15,0,0,0-2.22,2.34,11.59,11.59,0,0,0-1.07-1.15Z"/><path class="cls-11" d="M23.36,27.7a2.18,2.18,0,0,1-.05,1.36c-.16.66-.32,1-.47,1s-.31-.25-.6-.78-.42-.91-.36-1.1.31-.34.75-.45l.73,0Z"/><path class="cls-11" d="M13.53,30.62l-.77,0a1.89,1.89,0,0,1-.44-.54,1.41,1.41,0,0,1-.29-.69,3.62,3.62,0,0,1,.32-.83,3.69,3.69,0,0,1,.52-.89,1.83,1.83,0,0,1,1-.35c.5-.06.78,0,.82.07a4.4,4.4,0,0,1,0,1.52,3.26,3.26,0,0,1-.31,1.48,1.57,1.57,0,0,1-.86.26Z"/><path class="cls-11" d="M12.11,26.46c0,.12-.15.26-.39.41a1,1,0,0,1-.49.2c-.09,0-.23-.19-.4-.51s-.23-.55-.14-.63.37-.07.8.08.64.31.62.45Z"/><path class="cls-11" d="M6.59,33.58v-.85L6.46,31.5c0-.51-.08-.95-.08-1.33A3,3,0,0,1,7.27,30c.09,0,.3.3.62.87A3.25,3.25,0,0,1,8.38,32,2.49,2.49,0,0,1,8,33c-.24.46-.42.71-.53.75a1.55,1.55,0,0,1-.89-.15Z"/><path class="cls-11" d="M22,38.69c.11,0,.51.25,1.2.82s1.06.91,1.1,1.06a1.79,1.79,0,0,1-.18.87c-.15.44-.27.68-.36.73a2.09,2.09,0,0,1-.64,0l-.62-.12a2.12,2.12,0,0,1-.44-.51,2.74,2.74,0,0,1-.38-.66,4.44,4.44,0,0,1,.06-1.18c.08-.66.17-1,.26-1Z"/><path class="cls-11" d="M21.56,42.61c.09,0,.32,0,.67.19s.55.29.57.4-.07.3-.27.56-.34.38-.43.4l-.4,0c-.18,0-.29-.12-.32-.21a1.71,1.71,0,0,1,0-.73c.05-.35.11-.54.18-.56Z"/><path class="cls-11" d="M32.61,39.89q-.07.15-.75.24c-.45,0-.68,0-.71-.08s.07-.34.3-.68.39-.51.5-.5.26.16.45.45.26.48.21.57Z"/><path class="cls-11" d="M34.12,39.4l0,.07-.68,0a1.68,1.68,0,0,1-.2-.87,3.43,3.43,0,0,1,0-.93l0-.07a3.38,3.38,0,0,1,1.43,0,15,15,0,0,1-.58,1.79Z"/><path class="cls-12" d="M35,36.42l-.29,1.19a3.38,3.38,0,0,0-1.43,0,3.25,3.25,0,0,1,.32-.66,1.29,1.29,0,0,1,.37-.47l.45-.05.58,0Z"/><path class="cls-1" d="M26.51,23.15c-1.67-.37-2.62-.4-2.84-.12s-.11,1.11.28,2.47.78,2.12,1.15,2.23,1.13-.37,2.23-1.46,1.59-1.7,1.63-2-.76-.76-2.45-1.12Zm2.84,1.15c-.05.41-.64,1.16-1.77,2.26s-2,1.67-2.55,1.52-1-1-1.47-2.56-.48-2.44-.19-2.79c.15-.19.56-.27,1.22-.26a11.27,11.27,0,0,1,2.07.29c1.88.44,2.77,1,2.69,1.54Z"/><path class="cls-1" d="M22,28.19a2.2,2.2,0,0,0,.32.95c.24.5.41.74.49.71s.23-.35.35-1,.14-1,0-1.07-.3-.06-.66.05-.54.23-.55.33Zm1.43-.63c.19.17.21.64.06,1.39s-.36,1.17-.6,1.25-.49-.2-.83-.83a2.46,2.46,0,0,1-.43-1.25c0-.19.31-.36.81-.53l1,0Z"/><path class="cls-1" d="M11.69,26.76c.22-.13.31-.23.28-.29s-.22-.22-.55-.34S10.89,26,10.8,26s0,.19.11.46.26.41.34.44.23,0,.44-.16Zm-.5.44c-.15,0-.31-.25-.5-.63s-.22-.64-.11-.76.42-.11.91.07.74.37.76.56-.12.32-.41.52-.51.29-.65.24Z"/><path class="cls-1" d="M12.25,28.4a4.2,4.2,0,0,1,.54-.94,3.14,3.14,0,0,1,1-.3c.52-.1.84-.09,1,0s.18.64.11,1.58a4.57,4.57,0,0,1-.32,1.66,1.39,1.39,0,0,1-.88.33,3,3,0,0,1-.9,0c-.13,0-.31-.23-.54-.58a2.17,2.17,0,0,1-.38-.8,3.65,3.65,0,0,1,.4-1Zm.26.12a3.3,3.3,0,0,0-.33.83,1.45,1.45,0,0,0,.26.63c.18.29.32.46.43.49a2.13,2.13,0,0,0,.74,0c.4,0,.63-.13.7-.23a4.24,4.24,0,0,0,.27-1.47c.06-.81.05-1.25,0-1.31l-.68,0a2.67,2.67,0,0,0-.94.3,4.28,4.28,0,0,0-.42.79Z"/><path class="cls-1" d="M6.81,30.21a2.89,2.89,0,0,0-.52.17V30a3.61,3.61,0,0,1,.57-.17l.49-.06c.15,0,.4.39.74,1.06a3.71,3.71,0,0,1,.48,1.19,3.81,3.81,0,0,1-.4,1c-.27.52-.49.8-.68.82l-.55-.06a2.19,2.19,0,0,1-.52-.18v-.37a1.52,1.52,0,0,0,.46.22l.5.07c.12,0,.28-.24.5-.67a2.62,2.62,0,0,0,.3-.84,3.28,3.28,0,0,0-.4-1c-.27-.54-.45-.83-.55-.86l-.41,0Z"/><path class="cls-1" d="M22.07,38.87c-.09,0-.15.3-.19.81a9.65,9.65,0,0,0,0,1.19,1.68,1.68,0,0,0,.31.53,2.69,2.69,0,0,0,.4.47l.59.14a1.24,1.24,0,0,0,.58,0,1.59,1.59,0,0,0,.32-.66,1.32,1.32,0,0,0,.1-.77,5,5,0,0,0-1-1c-.6-.5-.95-.73-1-.69Zm-.46.75c.07-.66.17-1,.31-1.07s.62.18,1.32.75a5.13,5.13,0,0,1,1.18,1.17,1.42,1.42,0,0,1-.1,1,2.5,2.5,0,0,1-.39.81c-.09.09-.33.12-.73.08a3.13,3.13,0,0,1-.78-.14,2.11,2.11,0,0,1-.49-.6,2.09,2.09,0,0,1-.38-.7,7.21,7.21,0,0,1,.06-1.25Z"/><path class="cls-1" d="M22.48,43.59c.11-.2.15-.32.13-.37a1.22,1.22,0,0,0-.46-.3,1.83,1.83,0,0,0-.53-.18c-.05,0-.09.14-.12.41a1.56,1.56,0,0,0,0,.66s.1.11.27.17l.33,0a1.27,1.27,0,0,0,.37-.43Zm.45-.44a1.22,1.22,0,0,1-.27.64,1.76,1.76,0,0,1-.42.48l-.55,0c-.27-.08-.42-.18-.44-.28a2.2,2.2,0,0,1,0-.87q.07-.6.24-.66a1.52,1.52,0,0,1,.83.24c.42.2.63.37.62.49Z"/><path class="cls-1" d="M32,39q-.09,0-.39.45c-.21.31-.29.49-.26.53l.59,0c.36-.06.54-.12.57-.19s0-.19-.2-.42S32,39,32,39Zm0-.28c.14,0,.32.21.55.55s.31.56.26.66-.35.25-.86.33-.83.06-.93-.06,0-.38.31-.83.53-.67.67-.65Z"/><path class="cls-1" d="M34.61,36.24l.67.08-.1.35-.56-.09a2.92,2.92,0,0,0-.6,0c-.07,0-.19.17-.36.49a3,3,0,0,0-.29.71,3,3,0,0,0,0,.89c0,.39.09.61.16.65l.27,0,.63-.12-.17.37a1.32,1.32,0,0,1-.94,0c-.13-.09-.21-.41-.25-1a4.57,4.57,0,0,1,0-.93,3.36,3.36,0,0,1,.33-.77c.22-.45.4-.68.55-.7a4.77,4.77,0,0,1,.69,0Z"/><path class="cls-1" d="M32.08,18.49l.2.32.23.39c.1.18.13.28.09.31h-.26l-.36,0,.35.13a.4.4,0,0,1,.21.13,1.64,1.64,0,0,1,.1.79c0,.45,0,.65-.17.59l-1.06-.4-1.09-.37a15.7,15.7,0,0,1,1.49,1.1l.27.23a.19.19,0,0,1,.05.23,13.37,13.37,0,0,1-1.31,2.21c-.05,0-.22-.18-.52-.52l-.7-.84.52,1.82a.83.83,0,0,1-.1.66,8.3,8.3,0,0,1-.95.87,4.1,4.1,0,0,1-.86.65l-.08-.83-.07-1.17-.33.67c-.13.27-.22.41-.28.42a5,5,0,0,1-1.21-.51c-.73-.36-1.09-.57-1.08-.65a6.79,6.79,0,0,1,.58-.87l.66-.91c-.09.1-.31.36-.64.79l-.46.54-.74-.43-.7-.48a3.71,3.71,0,0,1,.6-.72,14.4,14.4,0,0,1,1.11-1.11,5.24,5.24,0,0,0-1.08.85l-.72.64a5.13,5.13,0,0,1-1-.74,4.33,4.33,0,0,1-.88-.85,2.86,2.86,0,0,1,.58-.8c.38-.46.75-.85,1.09-1.19a10.8,10.8,0,0,0-1.44,1.25,9.34,9.34,0,0,1-1.09,1c-.08,0-.24-.21-.48-.62a2.17,2.17,0,0,1-.33-.75,2.56,2.56,0,0,1,.43-.67,5.92,5.92,0,0,1,1.21-1.19,4.09,4.09,0,0,1,4.39-.5l.15-.06a5.14,5.14,0,0,1,5.65.62Z"/><path class="cls-5" d="M31.25,20.5,29.71,20c-.36-.1-.53-.13-.53-.1s.15.13.47.29a10.65,10.65,0,0,1,1.2.8l1.06.89L31.29,23a3.17,3.17,0,0,1-.51.79,11.64,11.64,0,0,1-1.32-1.46l-.23-.24.06.34.36,1.36a6.77,6.77,0,0,1,.3,1.18l-.66.61-.91.77V25.12a5.62,5.62,0,0,0-.06-1c-.06-.09-.37.4-.94,1.47a18.11,18.11,0,0,0-1.82-1l.76-1.06.75-1,.24-.31c0-.08-.09-.05-.36.1a6.12,6.12,0,0,0-1.69,1.7l-1.07-.67.93-1a5.66,5.66,0,0,1,1-.9l.34-.19h-.38a4.1,4.1,0,0,0-2.32,1.53l-1.56-1.33c.19-.27.49-.63.89-1.09a7.43,7.43,0,0,1,1-1l.28-.21-.31,0a3.65,3.65,0,0,0-1.75,1,17.07,17.07,0,0,0-1.19,1.25l-.62-1a5.73,5.73,0,0,1,1.93-2,4.16,4.16,0,0,1,4-.22l.11,0a6.57,6.57,0,0,1,2.12-.51,4.8,4.8,0,0,1,3.3,1.08l.32.65-.24,0-.56,0-.43.05s.14.08.38.16a5.33,5.33,0,0,1,1,.45l0,.47a1.71,1.71,0,0,1,0,.54l-1.14-.4Z"/><path class="cls-1" d="M13.41,11.74l0,.22a25.77,25.77,0,0,0-2.88-1c-.14,0-.2-.08-.18-.13l.23,0c.77.22,1.71.54,2.81,1Z"/><path class="cls-1" d="M13.52,12.38l0,.24a32.84,32.84,0,0,0-5.1-2c-.13,0-.19-.08-.18-.13H8.5a33.18,33.18,0,0,1,5,2Z"/><path class="cls-1" d="M12.46,11.46l-.19-.05A9.72,9.72,0,0,0,12,9.91c0-.09,0-.14,0-.15s.07,0,.1.11a8,8,0,0,1,.33,1.59Z"/><path class="cls-1" d="M11.92,11.27l-.17,0a3.89,3.89,0,0,0-.09-.85q0-.09,0-.12l.09.09a2.76,2.76,0,0,1,.14.93Z"/><path class="cls-1" d="M11.86,11.74l.18.08-.68.59-.75.51c-.08,0-.12,0-.14,0s0-.07.08-.11a9.39,9.39,0,0,0,1.31-1.07Z"/><path class="cls-1" d="M27.91,20.3a3.51,3.51,0,0,0-1.53-2.2l.2-.14a3.66,3.66,0,0,1,1.57,2.35,7.47,7.47,0,0,1,.06,3.27c0,.16-.08.24-.12.23s-.06-.1,0-.26a7.58,7.58,0,0,0-.14-3.25Z"/><path class="cls-1" d="M28.51,22.2a4.69,4.69,0,0,0-1.66-4.41l.23-.08c1.3,1,1.83,2.47,1.58,4.52,0,.17-.06.25-.1.24s-.06-.1,0-.27Z"/><path class="cls-1" d="M27.51,19.14l.19.26a3,3,0,0,0-1.23.18,4.41,4.41,0,0,0-1.18.73c-.11.08-.18.11-.2.08s0-.08.09-.18a3.28,3.28,0,0,1,2.33-1.07Z"/></g></g></svg>