<svg xmlns="http://www.w3.org/2000/svg" viewBox="0 0 53 48.44"><defs><style>.cls-1{fill:#0d131a;}.cls-1,.cls-10,.cls-11,.cls-12,.cls-13,.cls-14,.cls-15,.cls-16,.cls-17,.cls-18,.cls-19,.cls-2,.cls-3,.cls-4,.cls-5,.cls-6,.cls-7,.cls-8,.cls-9{fill-rule:evenodd;}.cls-2{fill:#5dc1cf;}.cls-3{fill:#50a8b4;}.cls-4{fill:#fff;}.cls-5{fill:#dbdcdc;}.cls-6{fill:#00a63c;}.cls-7{fill:#009233;}.cls-8{fill:#c28600;}.cls-9{fill:#986a00;}.cls-10{fill:#e85382;}.cls-11{fill:#c94772;}.cls-12{fill:#fceef4;}.cls-13{fill:#d9ced4;}.cls-14{fill:#d7a400;}.cls-15{fill:#f9be00;}.cls-16{fill:#c6000b;}.cls-17{fill:#a30000;}.cls-18{fill:#922f00;}.cls-19{fill:#ed8599;}</style></defs><title>Asset 111@</title><g id="Layer_2" data-name="Layer 2"><g id="Layer_1-2" data-name="Layer 1"><path class="cls-1" d="M47.83,23.26A15.38,15.38,0,0,1,51.88,28,7.94,7.94,0,0,1,53,31.68,7.25,7.25,0,0,1,51.37,36a11.9,11.9,0,0,1-4,3.44,9.52,9.52,0,0,1,.78.93,1.5,1.5,0,0,1,.31.82.62.62,0,0,1-.1.29l-.17.27c-.41.8-1.78,1.3-4.12,1.49a23.75,23.75,0,0,1-5.29-.13,11.57,11.57,0,0,1-3.15-.87c-.2-.09-.75-.41-1.68-1a5.09,5.09,0,0,0-.87-.46,1.54,1.54,0,0,0-.85-.06,29,29,0,0,1-9.14.86,10.27,10.27,0,0,1-3-.88A14.6,14.6,0,0,1,17.34,39a18.79,18.79,0,0,1-6.23-6.58,8.61,8.61,0,0,1-.72-6.89A9.38,9.38,0,0,1,12.48,22a13.39,13.39,0,0,1,3.66-2.74,19,19,0,0,1,5-1.75,24.63,24.63,0,0,1,5.76-.49,46.09,46.09,0,0,1,13,2,24.9,24.9,0,0,1,8,4.17Z"/><path class="cls-2" d="M47.12,39.68a2,2,0,0,1,.64.85,1.28,1.28,0,0,1,.16,1.06c-.35.7-1.58,1.12-3.7,1.28a23.61,23.61,0,0,1-5.06-.17,14.23,14.23,0,0,1-3.2-.8,11.86,11.86,0,0,1-1.8-.92,7.09,7.09,0,0,0-.95-.5,2,2,0,0,0-1-.06,27.83,27.83,0,0,1-8.47.72,13.56,13.56,0,0,1-6.18-2.46,18.46,18.46,0,0,1-6.1-6.4,8.39,8.39,0,0,1-.73-6.67Q12,21.8,16.47,19.52A21.2,21.2,0,0,1,26.88,17.4q10.44.3,16.4,3.2a17.89,17.89,0,0,1,8.71,9q1.26,2.81-1.11,6.11A12.94,12.94,0,0,1,48.8,38a9.18,9.18,0,0,1-1.75,1.24c-.69.34-.94.52-.75.55a2.77,2.77,0,0,0,.82-.12Z"/><path class="cls-3" d="M17.54,38.68l-.75-.54a38.21,38.21,0,0,0,7.44-.81l7.38-1.65a37.85,37.85,0,0,0,1.57,4.8,1.86,1.86,0,0,0-1-.06,27.83,27.83,0,0,1-8.47.72,13.56,13.56,0,0,1-6.18-2.46Z"/><path class="cls-3" d="M47.72,34.05a2.68,2.68,0,0,0-.4-1.94,5.1,5.1,0,0,0-1.53-1.62,4.06,4.06,0,0,0-1.84-.8,1.35,1.35,0,0,0-1.39.56c.09-.14,0-.36-.1-.67a4.55,4.55,0,0,0-.78-1,9.82,9.82,0,0,0-3.47-2.24,12,12,0,0,0-5.66-.75,17.36,17.36,0,0,0-7.47,2.75,4,4,0,0,1-3.18.52,8.85,8.85,0,0,1-3.06-1.7q-.48-.39-3-2.64a17.88,17.88,0,0,0-3-2.32,14.68,14.68,0,0,1,5.92-3.59,23,23,0,0,1,8.13-1.16q10.44.3,16.4,3.2a17.89,17.89,0,0,1,8.71,9q1.26,2.81-1.11,6.11A12.94,12.94,0,0,1,48.8,38a9.18,9.18,0,0,1-1.75,1.24c-.69.34-.94.52-.75.55a2.77,2.77,0,0,0,.82-.12,2,2,0,0,1,.64.85,1.28,1.28,0,0,1,.16,1.06,2,2,0,0,1-1.28.86,10,10,0,0,1-2.28.41,3.81,3.81,0,0,0-.44-1.75,2.11,2.11,0,0,0-.78-.87c2.68-2.43,4.21-4.5,4.58-6.19Z"/><path class="cls-1" d="M46,41.82c.38.45.56.77.52,1a5.12,5.12,0,0,1-.29.86c-.18.38-.33.58-.48.57a3.33,3.33,0,0,1-1.26-.3,5.63,5.63,0,0,1-1.18-.68.24.24,0,0,1-.1-.13c0-.1,0-.23.17-.42.91-1.19,1.5-1.74,1.75-1.64a2.64,2.64,0,0,1,.87.77Z"/><path class="cls-4" d="M45.89,42.07q.47.57.42.78a1.88,1.88,0,0,1-.26.6c-.15.22-.27.34-.36.34a4.57,4.57,0,0,1-1.06-.24,2.64,2.64,0,0,1-1-.47,2.5,2.5,0,0,1,.45-.71,4.22,4.22,0,0,1,.85-.85c.13-.08.22-.12.27-.11a2.19,2.19,0,0,1,.72.66Z"/><path class="cls-5" d="M45.18,41.41a2.45,2.45,0,0,1,.72.66c.3.38.44.64.41.78a1.81,1.81,0,0,1-.23.53,6.54,6.54,0,0,0-.9-2Z"/><path class="cls-1" d="M48.93,40.77c.55.55.79.92.71,1.11-.15.37-.62.62-1.41.74a2.63,2.63,0,0,1-.79,0c-.23,0-.34-.1-.33-.2,0-.26.15-.72.32-1.37a5.41,5.41,0,0,1,.3-1q.38-.15,1.2.69Z"/><path class="cls-5" d="M47.48,42.19v-.1a3.46,3.46,0,0,1,.2-1,4,4,0,0,1,.3-.8,3.61,3.61,0,0,1,.7.7c.34.4.51.66.51.79h0c0,.08-.13.18-.37.28a2.19,2.19,0,0,1-.78.23c-.33,0-.51,0-.55-.15Z"/><path class="cls-1" d="M42.68,40l2.38-.19c.23,0,.34,0,.33.07s-.09.14-.26.21a9.77,9.77,0,0,1-2.3.21A9,9,0,0,1,40,40.08l0-.16a9.74,9.74,0,0,0,2.68.07Z"/><path class="cls-1" d="M42.86,27.54c0-.26.1-.39.17-.39s.1.13.09.39a9.12,9.12,0,0,1-1.25,4.57,7.77,7.77,0,0,1-3.75,3l-.1-.24a7.08,7.08,0,0,0,3.53-3.2,12.82,12.82,0,0,0,1.31-4.11Z"/><path class="cls-1" d="M24.27,15.49l.13.11-5.48,3.84q-.14.09-2.85,1c-1.83.58-2.78.86-2.86.85a5.84,5.84,0,0,1-.54-1.55l-.59-2.11-.69,4.18a13.91,13.91,0,0,1-2.56.66,4.17,4.17,0,0,1-.06-1.09V19.47L8,22.92l-.81.27c-.56.16-.87.22-.93.17a2.6,2.6,0,0,1-.25-1L5.76,21,5,23.7c-.71.36-1.11.5-1.2.43a1.53,1.53,0,0,1-.12-.66l-.07-1-.54,1.91a4.27,4.27,0,0,1-1.55.24,4.7,4.7,0,0,1,.39-1.18l.64-1.66L.27,24.07c-.14.14-.22.15-.23.06l0-.2L1.14,20.8l2.12-1.13-1.77.48,1.5-2,2.55-1.13-1.39.28c-.54.11-.82.14-.84.1a8.72,8.72,0,0,1,1.35-1.24A14,14,0,0,1,6.2,15l1.08-.08,1.58-.08a7.43,7.43,0,0,1-1.13-.47l-.21-.09a.8.8,0,0,1,.23-.14A16.8,16.8,0,0,1,16.66,12a11.29,11.29,0,0,1,7.61,3.47Z"/><path class="cls-6" d="M8.1,14.25a17.5,17.5,0,0,1,8.7-1.79A12.07,12.07,0,0,1,24,15.57l-5.44,3.66c-3.36,1.16-5.08,1.73-5.16,1.69a9.94,9.94,0,0,1-.63-1.78A16.57,16.57,0,0,1,12.16,17c0-.27-.07-.37-.13-.29a3.13,3.13,0,0,0-.25.83c-.15.66-.36,2-.62,4l-2.08.54L9,18.38c0-.31,0-.48-.06-.49s-.1.13-.2.47-.46,1.92-.94,4.35l-1.34.34c-.29-1.18-.48-2-.55-2.57-.05-.36-.1-.51-.13-.47l-.12.46-.85,3-.75.15-.12-.75c-.07-.45-.12-.79-.15-1a1.26,1.26,0,0,0-.08-.45s-.08.15-.17.43S3.2,23,2.87,24.15l-1,.15,1.08-3c.1-.26.1-.36,0-.31l-.2.17L.48,23.49,1.35,21c1.61-.89,2.62-1.43,3-1.61.66-.31.63-.39-.1-.24-.31.06-.7.16-1.15.29l-1,.28,1-1.31,1.52-.67,1.93-.86a2.11,2.11,0,0,0,.48-.25s-.18,0-.55,0l-1.22.2L4.19,17l2.12-1.79,1.49-.08L9.54,15c.21,0,.31,0,.32-.07s-.1-.08-.29-.18a4.38,4.38,0,0,0-.67-.24,7.06,7.06,0,0,1-.8-.3Z"/><path class="cls-7" d="M12.52,15.62c-.1,0-.26-.12-.46-.35l-.67-.73a2.24,2.24,0,0,0-2-.82,16.12,16.12,0,0,1,8-1.2A12.13,12.13,0,0,1,24,15.57l-5.26,3.55A8.35,8.35,0,0,0,16,16.73a7.61,7.61,0,0,0-3.49-1.11Z"/><path class="cls-1" d="M21.36,14.35l1.09,1-.43.11a9.54,9.54,0,0,0-1.33-.31A15.57,15.57,0,0,0,17.18,15,21.21,21.21,0,0,0,5.79,19.4l-.3.21c-.14.08-.08,0,.19-.34A14.76,14.76,0,0,1,12.24,15a18,18,0,0,1,9.12-.63Z"/><path class="cls-6" d="M21.87,15.15a17.89,17.89,0,0,0-6-.35A21.6,21.6,0,0,0,7,18.34,14.52,14.52,0,0,1,13.26,15a19.23,19.23,0,0,1,8.1-.39l.1.19a1.26,1.26,0,0,0,.41.38Z"/><path class="cls-7" d="M21.36,14.58l.1.19a1.26,1.26,0,0,0,.41.38,19.2,19.2,0,0,0-4-.48,16,16,0,0,0-5.22.86l-.36-.28a17.56,17.56,0,0,1,4.29-.86,20.49,20.49,0,0,1,4.74.19Z"/><path class="cls-6" d="M34.29,11.09l0,0,0,0a2.59,2.59,0,0,1,.46,1.39A2.62,2.62,0,0,1,34.46,14a5.27,5.27,0,0,1-2.94,2.13,15.41,15.41,0,0,1-6.28.64.66.66,0,0,1-.63-.43A1.93,1.93,0,0,1,25,14.85,8.58,8.58,0,0,1,26.66,13a10.64,10.64,0,0,1,2.93-1.86,5.59,5.59,0,0,1,4.7,0Z"/><path class="cls-7" d="M34.1,11.39a2.17,2.17,0,0,1,.38,1.23,2.23,2.23,0,0,1-.32,1.16,5,5,0,0,1-2.82,2,15.21,15.21,0,0,1-6.08.58c-.18,0-.29-.07-.32-.19s0-.64.39-1.19a8.25,8.25,0,0,1,1.56-1.77,10.28,10.28,0,0,1,2.78-1.77,5.28,5.28,0,0,1,4.43-.07Z"/><path class="cls-1" d="M29.29,6.58a2.1,2.1,0,0,1,1,1,13.33,13.33,0,0,1,1,4.15,12.61,12.61,0,0,1-.7,4.44,2.18,2.18,0,0,1-.89,1.07,5.28,5.28,0,0,1-1.81.79,7.39,7.39,0,0,1-2.91.15,3.89,3.89,0,0,1-2.59-1.37,6.85,6.85,0,0,1-1.18-5.59,13,13,0,0,1,.63-2.39A7.24,7.24,0,0,1,22.5,7.5a3.29,3.29,0,0,1,2-1.23,8.16,8.16,0,0,1,2.8-.22,5.6,5.6,0,0,1,2,.53Z"/><path class="cls-8" d="M30,7.75A12.68,12.68,0,0,1,31,11.9a11.26,11.26,0,0,1-.67,4.23,1.85,1.85,0,0,1-.8.91,5.2,5.2,0,0,1-1.65.7,7.08,7.08,0,0,1-2.76.17,3.34,3.34,0,0,1-2.39-1.28,7.18,7.18,0,0,1-1-5.35A13,13,0,0,1,22.23,9a6.46,6.46,0,0,1,.56-1.31,2.93,2.93,0,0,1,1.86-1.1,7.66,7.66,0,0,1,2.63-.18,5.15,5.15,0,0,1,1.79.45,1.78,1.78,0,0,1,.93.9Z"/><path class="cls-9" d="M30,7.75a13.4,13.4,0,0,1,.91,3.54,10.9,10.9,0,0,1-.25,3.54,34.44,34.44,0,0,0-4.68-3q-3.11-1.68-4.18-1.23a11.12,11.12,0,0,1,.52-1.84,6.11,6.11,0,0,1,.47-1.05,2.93,2.93,0,0,1,1.86-1.1,7.66,7.66,0,0,1,2.63-.18,5.15,5.15,0,0,1,1.79.45,1.78,1.78,0,0,1,.93.9Z"/><path class="cls-1" d="M28.59,9.52c.05,0,.23.18.56.58l.56.7c.37-.51.69-.91.95-1.2l.11-.13,0,.18c.11.6.23,1.13.35,1.58a4.62,4.62,0,0,1-.07,1.32l0,.55-.15.23-.31.74-.48,1.08-.09.18-.72-2.12-1,2-.87-1.57-1,1.53-1-1.36-.88,1.75-.88-1.93-.94,1.1-.17.16-.15-.19-1-1.49v0a14,14,0,0,1,.48-3.76l.05-.17.76,1,.46-.5c.26-.28.42-.41.48-.4a3,3,0,0,1,.33,1l.28,1.19.66-1.1a4.79,4.79,0,0,1,.62-.92q.07,0,.42.69l.42.83.45-.8a3,3,0,0,1,.44-.69c.05,0,.19.26.41.79l.41,1,.25-1.06a2.54,2.54,0,0,1,.27-.84Z"/><path class="cls-8" d="M30.66,9.86a12.66,12.66,0,0,1,.25,2.19l0,.48-.09.55s-.12.3-.29.78l-.39,1-.38-1.28a5.42,5.42,0,0,0-.34-1,7.73,7.73,0,0,0-.51,1l-.55,1.25-.46-1a3.44,3.44,0,0,0-.41-.79s-.19.3-.49.85l-.53,1-.58-.9c-.34-.52-.52-.76-.55-.74a8.52,8.52,0,0,0-.35.89l-.4,1-.44-1.13a6.1,6.1,0,0,0-.4-1s-.2.21-.51.67l-.55.8-1.1-1.39V13A13.74,13.74,0,0,1,22,9.67l.27.44.23.38.12.15s.07,0,.14-.07c.35-.35.59-.58.73-.69l.31,1.1a3.29,3.29,0,0,0,.38,1c.06,0,.29-.25.68-.84l.67-1,.4.73c.23.39.37.58.41.58s.19-.19.43-.55l.43-.69.5.91.4.77L28.67,10l1.06,1.05.06-.08.3-.41.57-.71Z"/><path class="cls-9" d="M22.9,10.44a6.55,6.55,0,0,1,.6-.56l.22.79-.82-.23Z"/><path class="cls-9" d="M22,9.67c.08.12.22.34.4.67l-.54-.08L22,9.67Z"/><path class="cls-9" d="M28.67,10l1.06,1.05.06-.08.3-.41.57-.71a12.66,12.66,0,0,1,.25,2.19l0,.48-.09.55-.22.6-.34.93L30,14.42a16.82,16.82,0,0,0-.57-1.85,7.33,7.33,0,0,0-.52,1.07c-.84-.61-1.49-1.06-1.94-1.35a17.32,17.32,0,0,0-2.07-1.16l.67-1,.4.73c.23.39.37.58.41.58s.19-.19.43-.55l.43-.69.5.91.4.77L28.67,10Z"/><polygon class="cls-8" points="30.11 14.88 29.98 14.42 30.24 14.61 30.11 14.88 30.11 14.88"/><path class="cls-1" d="M39.65,4.2l.18.23-12.95,2L14.32,3.28l1-1.08q1-1,1.5-1a2.93,2.93,0,0,1,.52.19l.67.28-.4-.44c-.14-.16-.17-.26-.09-.29A9.57,9.57,0,0,1,19.24.4,8.2,8.2,0,0,1,22.38.09Q24.12.31,27,3.62c.5-.85.87-1.44,1.1-1.77A4.18,4.18,0,0,1,29.72.29,6.52,6.52,0,0,1,32,0c.87,0,1.34.06,1.39.15s0,.24-.22.56l-.39.67A6.19,6.19,0,0,1,34.67.52a6.55,6.55,0,0,1,3.09,1.84A15.26,15.26,0,0,1,39.65,4.2Z"/><path class="cls-10" d="M37,2.2a15.41,15.41,0,0,1,2.22,2L26.9,6.06,14.84,3.14a6.93,6.93,0,0,1,.78-.83,2.78,2.78,0,0,1,1.09-.69c.31.09.88.3,1.73.63l.57.23L18,1.09A13.92,13.92,0,0,1,19.77.6,7.54,7.54,0,0,1,22.33.43a6.09,6.09,0,0,1,3,1.78,16.88,16.88,0,0,1,1.57,1.63L27,4l.13-.21.93-1.46A4.9,4.9,0,0,1,29.84.61,5.51,5.51,0,0,1,31.56.3,6,6,0,0,1,33,.39a4.54,4.54,0,0,0-.57.89l-.2.46-.15.45.4-.24.9-.55A5.32,5.32,0,0,1,34.52.82c.41,0,1.23.42,2.45,1.38Z"/><path class="cls-11" d="M38.07,3.1a11,11,0,0,1,1.12,1.08L26.9,6.06,15.61,3.33c1.76,0,3.14,0,4.13,0a18.86,18.86,0,0,1,4.14.67,7.73,7.73,0,0,0-1.42-2.49A3.74,3.74,0,0,0,20.91.42a6.08,6.08,0,0,1,1.42,0,6.09,6.09,0,0,1,3,1.78,16.88,16.88,0,0,1,1.57,1.63L27,4h0a1.35,1.35,0,0,0,.64.54,3,3,0,0,0,1.82-.06,9.7,9.7,0,0,0,1.74-.9,16.53,16.53,0,0,1,2.13-1.13,10.18,10.18,0,0,1,3-.75c.56.4,1.13.86,1.73,1.38Z"/><path class="cls-1" d="M29.11,2a2,2,0,0,1,.53.44,2,2,0,0,1,.25.35A.45.45,0,0,1,30,3c0,.08-.21.17-.54.28a3.47,3.47,0,0,1-1.09.16,2,2,0,0,1-1-.27l-.05,0,0,0a12.88,12.88,0,0,1,.87-1.26h0a1.26,1.26,0,0,1,.93.12Z"/><path class="cls-12" d="M29.44,2.37a1.79,1.79,0,0,1,.3.38.6.6,0,0,1,.09.24h0a.57.57,0,0,1-.24.13l-.53.15-.74.08a1.87,1.87,0,0,1-.9-.22q.43-.67.81-1.17A1.09,1.09,0,0,1,29,2a1.38,1.38,0,0,1,.48.33Z"/><path class="cls-1" d="M34,2.1c.06,0,.21,0,.42.1a5.38,5.38,0,0,1,1.3.92,3.54,3.54,0,0,1,1,1.61v.06l-2.21.34h0a2.7,2.7,0,0,1-1.08-.86,1.15,1.15,0,0,1-.13-1,2.52,2.52,0,0,1,.32-.74A1,1,0,0,1,34,2.1Z"/><path class="cls-13" d="M34,2.22c.05,0,.18,0,.41.14a5.14,5.14,0,0,1,1.23.91,3.32,3.32,0,0,1,.92,1.42l-2,.31a2.74,2.74,0,0,1-1-.82.82.82,0,0,1-.16-.53,1.64,1.64,0,0,1,0-.37,2.85,2.85,0,0,1,.31-.72A1,1,0,0,1,34,2.22Z"/><path class="cls-1" d="M33.3,1.23v.13a2.18,2.18,0,0,1-.27.72,1.25,1.25,0,0,1-.54.55l-.9,0a1.88,1.88,0,0,1-.74-.31.26.26,0,0,1-.14-.21,2.44,2.44,0,0,1,.12-.52c.1-.34.22-.52.36-.52l.34,0L32.67,1h.11l-.05.1a4.14,4.14,0,0,0-.34.66l.91-.52Z"/><path class="cls-12" d="M31.18,1.22l.35,0,1-.07c-.07.14-.14.28-.2.43l-.08.19-.15.45,1-.63a1.53,1.53,0,0,1-.25.53,1,1,0,0,1-.42.37,1.24,1.24,0,0,1-.76,0,1.65,1.65,0,0,1-.7-.25l-.13-.12A2.71,2.71,0,0,1,31,1.57c.08-.23.16-.35.22-.35Z"/><path class="cls-1" d="M24.1,1.08l.07,0-.07.06A10.8,10.8,0,0,1,22.81,2q-1,.56-1.2.48c-.14-.06-.25-.22-.35-.5a.9.9,0,0,1,0-.79,2.1,2.1,0,0,1,.49-.5,2.13,2.13,0,0,1,.8-.36h0a5.18,5.18,0,0,1,1.49.75Z"/><path class="cls-12" d="M21.68,2.27c-.09,0-.16-.15-.23-.35a1.14,1.14,0,0,1-.07-.38.51.51,0,0,1,.07-.28A1.37,1.37,0,0,1,21.9.81,1.91,1.91,0,0,1,22.6.5a4.55,4.55,0,0,1,1.3.64,10.71,10.71,0,0,1-1.26.75,2.48,2.48,0,0,1-1,.38Z"/><path class="cls-13" d="M23.16,1.61A9.39,9.39,0,0,0,21.85.85,1.83,1.83,0,0,1,22.6.5a4.55,4.55,0,0,1,1.3.64,8.13,8.13,0,0,1-.74.47Z"/><path class="cls-1" d="M19.07,1.13a1.38,1.38,0,0,1,.89.12.54.54,0,0,1,.1.5,1.77,1.77,0,0,1-.27.72c-.36.62-.79.84-1.28.68s-.8-.57-1-1.36l0-.14.78.3-.37-.49,0,0a2.09,2.09,0,0,1,1.08-.29Z"/><path class="cls-12" d="M19.2,1.26a1.22,1.22,0,0,1,.68.09s0,.18,0,.42a2.29,2.29,0,0,1-.32.73c-.28.43-.6.58-.95.46h0c-.35-.09-.61-.41-.79-1L19,2.48l-.78-1a2.5,2.5,0,0,1,1-.18Z"/><path class="cls-1" d="M26,5.31l.1.05V7.7l-.21,0a34.77,34.77,0,0,0-6.68.14,28.19,28.19,0,0,0-12.55,4l-.56.36c-.11.05-.15,0-.11-.29a20.51,20.51,0,0,1,.84-3.36,7.71,7.71,0,0,1,.74-1.85,4.53,4.53,0,0,1,.75-.4l1.35-.65L8.26,6c-.51.13-.75.16-.72.11a8.49,8.49,0,0,1,.78-1.18,5.24,5.24,0,0,1,1-1.2Q13,1.86,18.82,3a30.23,30.23,0,0,1,4.31,1.15A21.88,21.88,0,0,1,26,5.31Z"/><path class="cls-10" d="M25.75,5.57V7.29a25.84,25.84,0,0,0-7-.11A27.25,27.25,0,0,0,6.39,11.57a23.89,23.89,0,0,1,.78-2.72c.24-.75.47-1.39.67-1.91l1.32-.72,1.63-.92L11.25,5s-.08,0-.31,0l-1.28.27-1.39.31A8.5,8.5,0,0,1,9.54,4a20.11,20.11,0,0,1,9.89-.59,23,23,0,0,1,6.32,2.15Z"/><path class="cls-11" d="M22.42,4.19a22.57,22.57,0,0,1,3.33,1.38V7.29A25.21,25.21,0,0,0,20.83,7a6.48,6.48,0,0,0-1.34-2.26,7.26,7.26,0,0,0-2.07-1.61,22.57,22.57,0,0,1,5,1Z"/><path class="cls-1" d="M17.6,3h0l0,0,.74.94c.18.25.27.42.25.51l0,.07a19.89,19.89,0,0,1-4.35,1.23A7.35,7.35,0,0,1,13,4.93c-.72-.52-1-.86-1-1s.14-.17.33-.27L13,3.37a5.59,5.59,0,0,0,.94-.45v0h0A20.4,20.4,0,0,1,17.6,3Z"/><path class="cls-12" d="M17.51,3.16a5.09,5.09,0,0,1,.89,1.23,15.59,15.59,0,0,1-2,.63,10.66,10.66,0,0,1-2,.48,6.15,6.15,0,0,1-1.15-.74c-.59-.43-.88-.71-.88-.81h0s.1-.12.26-.2l.5-.22a6.69,6.69,0,0,0,.79-.38,21.11,21.11,0,0,1,3.64,0Z"/><path class="cls-1" d="M12.55,6.43q.58.13.9.24a.56.56,0,0,1,.4.39,1.37,1.37,0,0,1,0,.31,1.71,1.71,0,0,1-.1.53,1.41,1.41,0,0,1-.23.44v0h0a25.56,25.56,0,0,0-2.55.9l-.12.07L10,8.42c-.54-.63-.79-1-.76-1a3.52,3.52,0,0,1,1-.66,2.88,2.88,0,0,1,1.29-.47l1,.18Z"/><path class="cls-12" d="M13.42,8.27c-.86.26-1.66.55-2.42.86l-.61-.69a3.79,3.79,0,0,1-.8-1h0a3.16,3.16,0,0,1,.88-.57,2.64,2.64,0,0,1,1.11-.42l.93.18c.38.08.67.16.87.22a.43.43,0,0,1,.29.31.66.66,0,0,1,0,.25,1.6,1.6,0,0,1-.08.47,1.45,1.45,0,0,1-.21.39Z"/><path class="cls-1" d="M44.48,7a5,5,0,0,1,.15,1.79q-.06.12-.63-.18l-1.06-.55,1.27,1.24a4.59,4.59,0,0,1,.8.91,2.4,2.4,0,0,1-.16,1,2.74,2.74,0,0,1-.33.93c-.1.08-.51-.11-1.22-.58l.64.86a3.09,3.09,0,0,1,.34.5c0,.08-.31.3-.93.68a25.33,25.33,0,0,0-5.16-4Q32.12,6.1,27.13,7.56L27,7.6l-.05-.14a2.82,2.82,0,0,1-.18-1.17l.06-.66,0-.06,0,0a9.93,9.93,0,0,1,2.4-1.48,17.71,17.71,0,0,1,4.06-1.33,12.75,12.75,0,0,1,10.26,2A4.38,4.38,0,0,1,44.48,7Z"/><path class="cls-10" d="M42.48,11.09,43.83,13l-.36.36A26.05,26.05,0,0,0,37.79,9.1Q32,5.88,27.2,7.19a2.68,2.68,0,0,1-.11-.76,4.72,4.72,0,0,1,.05-.68,10,10,0,0,1,2.41-1.42,17.26,17.26,0,0,1,4-1.25,12,12,0,0,1,9.81,2.13A4,4,0,0,1,44,6.77a12,12,0,0,1,.25,1.5l-1.95-.84c-.32-.14-.49-.18-.5-.13s.1.18.31.41l2.54,2.62-.4,1.51c-.12-.08-.35-.2-.67-.37l-.74-.37a4.71,4.71,0,0,0-.45-.27c-.08,0,0,.05.11.26Z"/><path class="cls-11" d="M36.2,2.85a7.42,7.42,0,0,0-2.1,1.82,7.69,7.69,0,0,0-1.31,2.46,11.46,11.46,0,0,0-5.59.06,2.68,2.68,0,0,1-.11-.76,4.72,4.72,0,0,1,.05-.68,11.35,11.35,0,0,1,3.4-1.83A15.67,15.67,0,0,1,36.2,2.85Z"/><path class="cls-11" d="M42.28,7.43c-.32-.14-.49-.18-.5-.13s.1.18.31.41l.62.64a38.37,38.37,0,0,0-3.54-2.41,12.7,12.7,0,0,1,4.72.49,11.9,11.9,0,0,1,.34,1.84l-1.95-.84Z"/><path class="cls-1" d="M40.58,3.46l0,0v0a2.48,2.48,0,0,1-.09,1l-.2.66c0,.13-.4.28-1.07.44a3.2,3.2,0,0,1-1.82,0A2.91,2.91,0,0,1,36.63,5,2.18,2.18,0,0,1,36,4.29a.88.88,0,0,1,0-.17c0-.43.33-.89,1-1.39h0a12.54,12.54,0,0,1,3.53.74Z"/><path class="cls-12" d="M39.19,5.42a3.1,3.1,0,0,1-1.67,0,3,3,0,0,1-.75-.54c-.34-.3-.52-.5-.54-.61V4.12c0-.37.29-.78.88-1.23a12.18,12.18,0,0,1,3.33.7l0,.18a3.16,3.16,0,0,1-.11.71l-.19.63a2.61,2.61,0,0,1-1,.31Z"/><path class="cls-1" d="M40.88,8.48a1.4,1.4,0,0,1,.8.06,2.25,2.25,0,0,1,.43,1A4.85,4.85,0,0,1,42.37,11V11l-.08,0a2.23,2.23,0,0,0-1.53.29l0,0-1-.7v0a2.8,2.8,0,0,0,0-.75,3.08,3.08,0,0,1,0-.53.6.6,0,0,1,.14-.4,1.59,1.59,0,0,1,1-.43Z"/><path class="cls-12" d="M40,10.32l-.05-.49,0-.44A.52.52,0,0,1,40,9a1.27,1.27,0,0,1,.9-.35,1.12,1.12,0,0,1,.66.06,2,2,0,0,1,.39.79,5.34,5.34,0,0,1,.27,1.32,2.35,2.35,0,0,0-1.45.29l-.81-.59,0-.23Z"/><path class="cls-1" d="M34.46,4.53a4.11,4.11,0,0,1,.51.65c.27.4.39.66.37.78s-.3.29-.81.39a5.37,5.37,0,0,1-1.5.09h0l-.71-.76c-.47-.52-.7-.82-.68-.91a.13.13,0,0,1,.09-.11l1.36-.14a4.06,4.06,0,0,1,1.4,0Z"/><path class="cls-12" d="M34.82,5.27a1.59,1.59,0,0,1,.34.66c0,.09-.23.17-.65.25l-1.43.08-.37-.35-.59-.61c-.22-.24-.33-.4-.33-.47v0h0l1.28-.13a5.32,5.32,0,0,1,1.27,0,3.13,3.13,0,0,1,.47.61Z"/><path class="cls-13" d="M34.23,4.64l-.55.81a9,9,0,0,0-.52.81h-.08l-.37-.35-.59-.61c-.22-.24-.33-.4-.33-.47v0h0l1.08-.12,1.35,0Z"/><path class="cls-1" d="M31.73,2.3l-.12.52c-.41,1.5-.79,2.82-1.16,4-.12.42-.65.73-1.59,1a17.32,17.32,0,0,1-2.65.3L23.4,8c-1-.15-1.6-.44-1.78-.86a19.73,19.73,0,0,1-.91-2.67c-.27-1-.34-1.51-.2-1.49l1.08.14,1.11.16c.06-.33.13-.71.22-1.14A5.33,5.33,0,0,1,23.2,1c.05-.1.33.11.83.62l.91,1q.15-.21.75-.9l.67-.77c.05,0,.18.15.4.54l.45.82L28,1.5c.39-.4.6-.6.64-.59a2.38,2.38,0,0,1,.26.68l.31,1,.63-.76q.45-.54.54-.51c.06,0,.13.23.23.6l.19.76.41-.17a3.08,3.08,0,0,0,.42-.19c.09,0,.14,0,.14,0Z"/><path class="cls-14" d="M31.06,2.87,30,6.47c-.09.3-.5.57-1.22.8a10.12,10.12,0,0,1-2.59.43,10,10,0,0,1-2.71-.16c-.76-.16-1.21-.39-1.35-.7a29.44,29.44,0,0,1-1.26-3.65L23,3.65l.15-1a10.31,10.31,0,0,1,.21-1.1c0-.08.22.07.58.45l.75.82.23.29L25.1,3c.15-.17.55-.68,1.19-1.54,0-.05.18.16.46.62l.4.69,1.31-1.2a2.77,2.77,0,0,1,.31.8l.27.85.53-.61A4.31,4.31,0,0,1,30.18,2c.05,0,.13.17.23.56l.13.59.52-.23Z"/><path class="cls-1" d="M31.19,2.77l.23-.22-.09.31L30.25,6.55c-.13.39-.6.72-1.44,1a10.92,10.92,0,0,1-2.6.43,11.15,11.15,0,0,1-2.73-.15c-.88-.18-1.42-.47-1.59-.86a31.92,31.92,0,0,1-1.27-3.7l.25-.15a10.4,10.4,0,0,0,.92.87l.76.62.65-.79a5.36,5.36,0,0,1,.66-.73,7.1,7.1,0,0,1,.92.91L25.73,5l.42-1a2.91,2.91,0,0,1,.47-.92q.09,0,.42.63l.46.89.65-.87c.39-.51.61-.75.67-.73s.19.27.39.75l.35.85c.75-.89,1.29-1.49,1.63-1.82Z"/><path class="cls-15" d="M29.61,4.79c.23-.19.73-.7,1.52-1.52L30.65,4.8l-.56,1.7a2.27,2.27,0,0,1-1.21,1.09,6.33,6.33,0,0,1-2.63.69,6.81,6.81,0,0,1-2.8-.41,2.39,2.39,0,0,1-1.4-1,28.48,28.48,0,0,1-1.17-3.36,18.37,18.37,0,0,0,1.54,1.27c.08.07.15.11.21.09s.1-.06.17-.17.24-.3.56-.66l.56-.59.91,1c.58.59.89.89,1,.88s.2-.27.43-.81l.42-1,.41.76q.35.6.42.6t.63-.66l.62-.78.33.61.31.64q.06.16.09.18s.08,0,.16-.08Z"/><path class="cls-1" d="M38,14.67a35.89,35.89,0,0,1,3.54,1.13c.29.12.41.21.36.26l-.42.13-1.83.56,1.82-.3,1.07-.13a4.19,4.19,0,0,1,1.15.79,5.1,5.1,0,0,1,.91.83,3.64,3.64,0,0,1-.84.35l-1.39.47,1.74,0,1.2.06a2.64,2.64,0,0,1,.51.7,2.43,2.43,0,0,1,.38.73s-.21.1-.62.16l-1.19.19H45.7l.71,0a3.87,3.87,0,0,1,.66.69c.38.43.55.68.53.75s-.19.1-.51.13l-.94.1,1.12.09.6.08a3.7,3.7,0,0,1,.2,1.13,20.19,20.19,0,0,1,1.38,2.66,5,5,0,0,1-1.2-.4l-1.52-.62,1,1.89a9.62,9.62,0,0,1,.78,1.56l-1-.07a2.7,2.7,0,0,1-1-.25,5.27,5.27,0,0,1-.42-1L45.63,26l.16,1.26a2.58,2.58,0,0,1,.05.76,3.14,3.14,0,0,1-1.14-.24,4,4,0,0,1-1.14-.41l-.25-.66-.42-1.16L43,26.59c.05.37.06.56,0,.59A15.78,15.78,0,0,1,40.62,26v-.06L40,23.66l.06,1.5q0,.84-.06.87t-.69-.33l-.62-.39h-.78c-.5,0-.78-.07-.84-.16a6,6,0,0,1-.3-1.25l-.36-2v1.89a2.87,2.87,0,0,1-.08,1.06s-.47-.14-1.31-.43l-2.45-.83v-.15l-1-.36-.88-.31a.3.3,0,0,1-.25-.18,2.31,2.31,0,0,1,0-.74,9,9,0,0,0,0-1l0-1L30,21.34q-.3.86-.42.84a20.76,20.76,0,0,1-2.64-1.31l.5-2.43c-.74.68-1.38,1.22-1.91,1.62-.79.57-1.28.79-1.49.64A4.36,4.36,0,0,1,22.37,19a1.56,1.56,0,0,1-.05-1.25c.31-.84,1.21-1.53,2.69-2.06a8.3,8.3,0,0,1,3.78-.55l.54-.33a10.34,10.34,0,0,1,1.05-.53,6.73,6.73,0,0,1,3.19-.63,25.56,25.56,0,0,1,4.43,1Z"/><path class="cls-6" d="M42.47,16.59l1.61,1.27c-1.21.42-2,.72-2.43.89a2,2,0,0,0-.45.22l.49,0,3.47.1.62,1-1.29.22a8.56,8.56,0,0,0-1.35.3l-.38.17s.1.06.4.08,1.49.05,3.13.05l.82,1-2,.32a1.09,1.09,0,0,0-.43.14s.13.08.44.12l2.53.24.17,1-1-.15c-.68-.08-1-.09-1,0a2.81,2.81,0,0,0,1.07.26L48,24l.95,1.85-2.72-1,1.89,3.59-1.35-.22c-.55-1.48-.9-2.4-1.07-2.77s-.22-.38-.3-.36a5.56,5.56,0,0,0,0,1.12l.13,1.5-1.78-.51c-.5-1.4-.83-2.29-1-2.66s-.2-.46-.24-.47,0,.17,0,.53l.23,2.19-1.91-.93c-.63-2.54-1-3.59-1-3.14l-.06,1.44-.06,1.47L38.7,25a7.18,7.18,0,0,0-.27-2.3c-.06,0-.08.37-.06,1.13l0,1.16-1.08,0L37,23.17a19.33,19.33,0,0,0-.54-2.4c-.15-.49-.26-.7-.32-.63a2.74,2.74,0,0,0-.07.75c0,.31,0,1,0,2l0,1.63-3.37-1.3-.06-1.37a9.3,9.3,0,0,0-.13-1.59c-.06-.11-.07.33-.06,1.33v1.54l-1.73-.67c-.06-1.63-.09-2.78-.09-3.47v0h0a.87.87,0,0,0-.08-.31c-.05-.09-.11,0-.18.32v0a4.84,4.84,0,0,1-.35,1.17c-.18.51-.41,1.07-.67,1.7l-2.22-1.11.62-3-1.75,1.46c-1.19,1-1.82,1.4-1.92,1.34-1.36-.9-1.88-1.77-1.57-2.62.25-.69,1.38-1.3,3.37-1.84a23.18,23.18,0,0,1,2.91-.6l1.71-.79a7.67,7.67,0,0,1,3-.71,19.61,19.61,0,0,1,3.71.8A34.61,34.61,0,0,1,41.07,16c-1.52.44-2.51.76-3,.94s-.44.21-.42.25.18,0,.48,0l4.29-.64Z"/><path class="cls-7" d="M41.07,16c-1.52.44-2.51.76-3,.94s-.44.21-.42.25.18,0,.48,0l4.29-.64.65.52c-1.09.07-1.91.16-2.45.25a4,4,0,0,0-2.27,1.1Q32.12,16,27.89,21.08l-.71-.36.62-3-1.75,1.46c-1.19,1-1.82,1.4-1.92,1.34-1.36-.9-1.88-1.77-1.57-2.62.25-.69,1.38-1.3,3.37-1.84a23.18,23.18,0,0,1,2.91-.6l1.71-.79a7.67,7.67,0,0,1,3-.71,19.61,19.61,0,0,1,3.71.8A34.61,34.61,0,0,1,41.07,16Z"/><path class="cls-1" d="M43.94,22.71q.5.6.36.63T43.76,23a25,25,0,0,0-11.12-6.35A19.56,19.56,0,0,0,29,16.05H27.56l0-.16.28-.31a1.72,1.72,0,0,1,1-.34l.62-.05h0A18,18,0,0,1,37,17.09a21.32,21.32,0,0,1,7,5.62Z"/><path class="cls-6" d="M27.54,15.66A2.68,2.68,0,0,1,29,15.42a19.05,19.05,0,0,1,7.51,1.76,19.26,19.26,0,0,1,6.13,4.45,22.47,22.47,0,0,0-9-5,21.34,21.34,0,0,0-3.47-.7l-2-.07-.64,0c-.09,0-.08-.09,0-.17Z"/><path class="cls-7" d="M38.33,18.15l-.26,0a.23.23,0,0,0-.21.14,22.28,22.28,0,0,0-6.18-2.16,13.45,13.45,0,0,0-3.52-.31l-.64,0c-.09,0-.08-.09,0-.17A2.68,2.68,0,0,1,29,15.42a19.5,19.5,0,0,1,9.36,2.73Z"/><path class="cls-1" d="M.92,34.09A5.23,5.23,0,0,1,2.21,32.8c.64-.43,1.62-.39,3,.11A16.9,16.9,0,0,1,10.06,36c1.69,1.46,2.67,2.67,2.92,3.64l.26.33.35,1.41a2.07,2.07,0,0,1,0,.89,1.1,1.1,0,0,1-.48.59,6.85,6.85,0,0,1-1.13.56,7.46,7.46,0,0,1-2.21.35,22.64,22.64,0,0,1-3.16-.08q-4-.37-4.82-1.53a.81.81,0,0,1-.15-.45A3.2,3.2,0,0,0,1.84,41a1.64,1.64,0,0,0-.24-1.17c-.54-.8-.9-1.37-1.1-1.73A3.56,3.56,0,0,1,0,36.39a3.86,3.86,0,0,1,.92-2.3Z"/><path class="cls-2" d="M2.4,33.08q.81-.54,2.64.15a17,17,0,0,1,4.76,3q2.49,2.13,2.85,3.5l.06.27a5.78,5.78,0,0,1,.34,2.14,1,1,0,0,1-.39.48,9.78,9.78,0,0,1-.89.48,5.37,5.37,0,0,1-2,.31l-3.05-.1c-2.67-.25-4.23-.7-4.66-1.35-.17-.25-.06-.55.33-.89.11-.09.12-.25,0-.48a7.74,7.74,0,0,0-.55-.91A15.24,15.24,0,0,1,.63,37.5a3,3,0,0,1,.43-2.71,6.25,6.25,0,0,1,.76-1.11,3.35,3.35,0,0,1,.58-.6Z"/><path class="cls-3" d="M3.28,32.86A5.13,5.13,0,0,1,5,33.23a17,17,0,0,1,4.76,3q2.49,2.13,2.85,3.5l.06.27a5.78,5.78,0,0,1,.34,2.14,1,1,0,0,1-.39.48,9.78,9.78,0,0,1-.89.48,4.48,4.48,0,0,1-1.58.29,20.45,20.45,0,0,1-2.48,0,2.59,2.59,0,0,1-1.58-.59c-.57-.49-.39-1.14.53-1.92S7.48,38.8,6.37,37a23.57,23.57,0,0,0-1.59-2.24l-1.5-1.85Z"/><path class="cls-1" d="M4.83,40.47c0-.07,0-.08.18,0a19.09,19.09,0,0,0,2,.39A11.64,11.64,0,0,0,9.76,41c.23,0,.3,0,.23.07l-.18.1a7.46,7.46,0,0,1-2.67-.08,10,10,0,0,1-2.2-.53l-.11-.12Z"/><path class="cls-1" d="M3.26,42.16a1.36,1.36,0,0,1-.11.72l-.92.27A6.64,6.64,0,0,1,1,43.39c-.31,0-.49,0-.56-.1s-.09-.28,0-.6A3,3,0,0,1,1,41.56a2.85,2.85,0,0,1,.88-.89.79.79,0,0,1,.32-.1l.21,0a2.17,2.17,0,0,1,.9,1.55Z"/><path class="cls-4" d="M.75,43q-.18-.18.3-1a2.64,2.64,0,0,1,.86-1.05.29.29,0,0,1,.28,0,2.29,2.29,0,0,1,.64,1c.12.39.14.63.07.74a2.36,2.36,0,0,1-1,.32c-.64.12-1,.13-1.12,0Z"/><path class="cls-5" d="M2.4,41.1a2.26,2.26,0,0,1,.46.93c.09.32.1.52,0,.61a1.56,1.56,0,0,1-.63.23,4.79,4.79,0,0,1-1,.17A10.4,10.4,0,0,1,1.76,42a4.46,4.46,0,0,1,.64-.88Z"/><path class="cls-1" d="M4.68,44.77c-.33-.21-.41-.65-.23-1.32a3.39,3.39,0,0,1,.8-1.53,1.62,1.62,0,0,1,.69-.5.59.59,0,0,1,.57.2,4,4,0,0,1,1,1.53,1.31,1.31,0,0,1,.1.59,4.35,4.35,0,0,1-1.44.69c-.87.33-1.38.44-1.54.34Z"/><path class="cls-4" d="M6.13,41.72c.16,0,.4.27.71.71a2.33,2.33,0,0,1,.52,1.1,5,5,0,0,1-1.23.61,3.12,3.12,0,0,1-1.28.35c-.07,0-.1-.18-.08-.47a3.52,3.52,0,0,1,.17-.92c.27-.88.67-1.34,1.19-1.38Z"/><path class="cls-5" d="M6.15,41.72a2,2,0,0,1,.71.74,2.27,2.27,0,0,1,.5,1.07,3.66,3.66,0,0,1-.83.43,10.37,10.37,0,0,1-1.2.46A6.56,6.56,0,0,1,5.52,43a4.22,4.22,0,0,1,.63-1.32Z"/><path class="cls-1" d="M10.22,41.89a.63.63,0,0,1,.31-.17.57.57,0,0,1,.26,0,3.22,3.22,0,0,1,1,.63,1.9,1.9,0,0,1,.69.83,1.84,1.84,0,0,1-.36,1,4.65,4.65,0,0,1-.68,1,.54.54,0,0,1-.31.17,1.15,1.15,0,0,1-.4-.11,2.93,2.93,0,0,1-1.22-1l-.32-.57a1.7,1.7,0,0,1,.33-.87,4.29,4.29,0,0,1,.72-.93Z"/><path class="cls-4" d="M10.35,42.16c.15-.14.26-.19.35-.17a2.57,2.57,0,0,1,.84.57,1.7,1.7,0,0,1,.56.72c0,.15-.1.45-.4.9a2.88,2.88,0,0,1-.61.76c-.06,0-.21,0-.45-.19a3.9,3.9,0,0,1-.74-.54,1.16,1.16,0,0,1-.4-.52A1.43,1.43,0,0,1,9.74,43a2.94,2.94,0,0,1,.61-.84Z"/><path class="cls-5" d="M12.1,43.28c0,.14-.09.41-.35.83a4.61,4.61,0,0,1-.6.79A13.67,13.67,0,0,0,11,43.45,7.09,7.09,0,0,0,10.68,42h0a2.57,2.57,0,0,1,.84.57,1.7,1.7,0,0,1,.56.72Z"/><path class="cls-1" d="M3.06,37.24s-.05.09-.15.2a1.12,1.12,0,0,0-.32.46c0,.25.13.47.55.66.12,0,.15.1.1.13a.23.23,0,0,1-.11,0q-.72,0-.81-.51a.83.83,0,0,1,.12-.56.91.91,0,0,1,.4-.38c.15-.06.22-.08.22,0Z"/><path class="cls-1" d="M38.9,41.06c0-.05.07-.06.11-.05a1.9,1.9,0,0,1,.92.51A3.68,3.68,0,0,1,40.82,43a9.91,9.91,0,0,1-1,.63c-.74.38-1.2.46-1.39.24s-.08-.6.11-1.42a5.14,5.14,0,0,1,.4-1.34Z"/><path class="cls-5" d="M38.59,43.69a7.79,7.79,0,0,1,.2-1.13,12.37,12.37,0,0,1,.32-1.32l.67.53a1.9,1.9,0,0,1,.6,1c0,.11-.27.3-.87.55s-.9.36-.92.32Z"/><path class="cls-2" d="M39.9,32.14A11.62,11.62,0,0,1,40.53,35a14.69,14.69,0,0,1-2.17,8.36,3.54,3.54,0,0,0-.18.87,2.21,2.21,0,0,1-.45,1.09c-.74.89-2.55,1.4-5.44,1.51A8,8,0,0,1,28,46a2.77,2.77,0,0,1-1.63-2.25,7.26,7.26,0,0,0-.34-1.49c-.29-.93-.46-1.53-.52-1.77a5,5,0,0,1,.38-3.87,10.47,10.47,0,0,1,2.55-2.48,35.44,35.44,0,0,1,4.2-2.76,18.49,18.49,0,0,1,4.09-1.81c1.27-.33,2-.2,2.27.39l.86,2.19Z"/><path class="cls-3" d="M39,30l.86,2.19A11.62,11.62,0,0,1,40.53,35a14.69,14.69,0,0,1-2.17,8.36,2.86,2.86,0,0,0-.17.76,2.47,2.47,0,0,1-.3,1c-.49.81-1.71,1.34-3.67,1.59l-.64,0q-.53.15-.57,0A8.73,8.73,0,0,0,33.09,45a6,6,0,0,0-.31-1.53q3.87-.43,4.71-4.75a18.53,18.53,0,0,0-.52-8c-.34-1.37-.13-2,.64-1.83a2.2,2.2,0,0,1,.88.44A1.68,1.68,0,0,1,39,30Z"/><path class="cls-1" d="M38.88,30c-.18-.39-.22-.6-.11-.63s.23.13.42.47a12.74,12.74,0,0,1,1.49,6.34,13.73,13.73,0,0,1-2.17,7.22,1,1,0,0,0-.13.57,2.83,2.83,0,0,1-.15,1,2,2,0,0,1-.75.91q-1.33.91-5.19,1.08a8.82,8.82,0,0,1-4.52-.79,2.5,2.5,0,0,1-1.53-2.46,2.55,2.55,0,0,0-.23-.92l-.39-1a9.2,9.2,0,0,1-.5-2.78,5.67,5.67,0,0,1,.64-2.51l.32.11a6.87,6.87,0,0,0-.43,3A11.5,11.5,0,0,0,26.18,42l.25.89a3.66,3.66,0,0,1,.14.85,2.63,2.63,0,0,0,1.53,2.1,7.63,7.63,0,0,0,4.18.82c2.38-.09,4-.45,4.87-1.06a2,2,0,0,0,.71-.83A3.41,3.41,0,0,0,38,44a2.12,2.12,0,0,1,.17-.68,14.71,14.71,0,0,0,1.87-8.81A14.09,14.09,0,0,0,38.88,30Z"/><path class="cls-1" d="M29.45,42.69c-.21-.12-.31-.2-.32-.24s.14,0,.4.09a13.32,13.32,0,0,0,1.86.49,13.26,13.26,0,0,0,2.8.31q1.1,0,.81.12a2.28,2.28,0,0,1-1,.12,13.91,13.91,0,0,1-3.09-.37,6.29,6.29,0,0,1-1.49-.52Z"/><path class="cls-1" d="M26.29,43.21l.15,0a2.59,2.59,0,0,1,1,1.49,4.08,4.08,0,0,1,.2,1.12c0,.13-.17.23-.52.29l-1.35.14c-.92.05-1.42,0-1.52-.21s.1-.64.59-1.36A5.57,5.57,0,0,1,26,43.31a.66.66,0,0,1,.27-.1Z"/><path class="cls-4" d="M24.69,45.84a2.68,2.68,0,0,1,.53-1.1,4.2,4.2,0,0,1,1-1.13c.09-.06.14-.08.16-.06a2.78,2.78,0,0,1,.74,1.13,4,4,0,0,1,.31,1,5.83,5.83,0,0,1-1.35.19,5.24,5.24,0,0,1-1.34,0Z"/><path class="cls-5" d="M26.82,44.17a5.66,5.66,0,0,1,.4.89,3.41,3.41,0,0,1,.16.6,5.83,5.83,0,0,1-1.35.19,5.24,5.24,0,0,1-1.34,0h0a.46.46,0,0,1,0-.19,5.52,5.52,0,0,1,2.09-1.48Z"/><path class="cls-1" d="M31.72,45.81c.49-.58.8-.87.94-.87s.47.23,1,.7.78.8.79,1a2.42,2.42,0,0,1-.51,1q-.54.79-.78.81a2.23,2.23,0,0,1-.85-.37,5.65,5.65,0,0,1-1-.66.77.77,0,0,1-.31-.55,3.2,3.2,0,0,1,.72-1Z"/><path class="cls-4" d="M32.69,45.38a2.27,2.27,0,0,1,.74.54c.39.36.59.6.59.72a1.69,1.69,0,0,1-.41.81c-.27.4-.46.6-.56.61a1.43,1.43,0,0,1-.57-.28,5,5,0,0,1-.83-.6l-.22-.24,0-.08a3.07,3.07,0,0,1,.59-.8c.38-.43.61-.66.71-.68Z"/><path class="cls-1" d="M38.42,44.87c.4.61.55,1.05.46,1.31a.44.44,0,0,1-.21.22,1.13,1.13,0,0,1-.47.14,7.67,7.67,0,0,1-1.26,0c-.58-.06-.9-.17-1-.34l-.09-.26a2.41,2.41,0,0,1,.66-1.19,5.86,5.86,0,0,1,.79-.85.24.24,0,0,1,.18-.06l.11.06a4.21,4.21,0,0,1,.8,1Z"/><path class="cls-4" d="M38.58,46.17l-1.22,0c-.66-.06-1-.14-1.13-.26s.07-.42.46-.94.65-.78.77-.8.38.28.76.9.51,1,.36,1.06Z"/><path class="cls-5" d="M37.86,45.25a11.07,11.07,0,0,1,.56,1,4.67,4.67,0,0,1-1.23,0q-.84-.09-1-.24c-.06-.06,0-.24.17-.52a5.24,5.24,0,0,1,.57-.77,1.62,1.62,0,0,1,.89.59Z"/><path class="cls-1" d="M37.17,37.53a.68.68,0,0,1,.5.21.85.85,0,0,1,.27.54.69.69,0,0,1-.2.49.88.88,0,0,1-.8.28L36.82,39c-.06,0,0-.08.11-.09s.39-.15.53-.45.06-.55-.29-.73c-.13-.06-.17-.11-.12-.14l.12,0Z"/><path class="cls-1" d="M44.57,32.76a.15.15,0,0,1,.1,0,.53.53,0,0,1,.46.25,1,1,0,0,1,.24.62.9.9,0,0,1-.18.57.73.73,0,0,1-.72.33l-.11-.09c0-.07,0-.1.1-.11s.35-.18.48-.52a.62.62,0,0,0-.26-.85c-.12-.07-.16-.13-.11-.16Z"/><path class="cls-1" d="M49.2,28.66a.56.56,0,0,1,.46.22.88.88,0,0,1,.23.53.74.74,0,0,1-.18.51.75.75,0,0,1-.71.29l-.11-.08c0-.06,0-.09.09-.1s.35-.16.48-.46a.52.52,0,0,0-.25-.74c-.12-.06-.16-.11-.11-.14a.13.13,0,0,1,.1,0Z"/><path class="cls-1" d="M49,33.57a.64.64,0,0,1,.51.28,1.19,1.19,0,0,1,.26.71,1,1,0,0,1-.2.65.78.78,0,0,1-.79.37l-.12-.1c-.06-.08,0-.12.1-.12a.51.51,0,0,0,.28-.18,1.29,1.29,0,0,0,.26-.42.72.72,0,0,0-.29-1c-.14-.09-.18-.15-.13-.2l.12,0Z"/><path class="cls-1" d="M33.39,37.46a.71.71,0,0,1,.15.64.67.67,0,0,1-.3.48,1,1,0,0,1-.62.19l-.12-.05s0-.08.12-.12a.72.72,0,0,0,.56-.5q.1-.42-.51-.66l-.21-.12s.09,0,.25,0a1,1,0,0,1,.68.18Z"/><path class="cls-1" d="M37.13,32.62a.63.63,0,0,1,.19.4.56.56,0,0,1-.19.44.74.74,0,0,1-.51.22c-.09,0-.15,0-.17,0s0-.08.14-.12c.38-.16.52-.34.43-.55a.68.68,0,0,0-.48-.36c-.14,0-.18-.07-.13-.12l.13-.05a.78.78,0,0,1,.59.18Z"/><path class="cls-1" d="M26,22.44c2.08-.24,3.45-.18,4.13.16a.83.83,0,0,1,.39.6l0,.63a14.28,14.28,0,0,1-1.09,4.45,17.26,17.26,0,0,1,2.32,2.44,3.62,3.62,0,0,1,.82,2.1,5.47,5.47,0,0,1-.06.74,2.86,2.86,0,0,1-.18.71,7.18,7.18,0,0,1-1.32,2.19A4.25,4.25,0,0,1,29,37.54a35.85,35.85,0,0,0-4.84,2.06l-2.35,1.14c-.85.41-1.52.71-2,.91a10.82,10.82,0,0,1-4.93.3c-2.3-.24-3.85-.73-4.65-1.45a31,31,0,0,0-3.55-2.08c-1.65-.9-2.85-1.53-3.59-1.9a3.52,3.52,0,0,1-1.25-2.1A3.22,3.22,0,0,1,1.66,32,21.76,21.76,0,0,1,3.25,29.9,15.9,15.9,0,0,1,5.05,28a7.57,7.57,0,0,1-.83-1.94,8.42,8.42,0,0,1-.44-2.34,3,3,0,0,1,0-.32c.05-.35.16-.56.35-.63a7.71,7.71,0,0,1,3.79,0c1,.15,2,.37,3.12.64a13.63,13.63,0,0,1,4.85-.49,32.42,32.42,0,0,1,5.28.59A20.26,20.26,0,0,1,26,22.44Z"/><path class="cls-2" d="M29.85,23a.45.45,0,0,1,.25.2c.3.81,0,2.43-.93,4.86a1.21,1.21,0,0,0-.47-.15q-.22,0,.06.27l.33.3a10.28,10.28,0,0,1,2.72,3.43,2.66,2.66,0,0,1,.07,2.1,6.6,6.6,0,0,1-1.25,2,4.24,4.24,0,0,1-1.77,1c-.37.12-1,.38-1.91.79l-2.73,1.28c-2.18,1.05-3.7,1.75-4.53,2.09a10.22,10.22,0,0,1-5,.26,16.64,16.64,0,0,1-2.48-.52,5.26,5.26,0,0,1-1.58-.68,39.67,39.67,0,0,0-3.49-2c-2.19-1.18-3.4-1.84-3.65-2a3.38,3.38,0,0,1-1-1.8,4.14,4.14,0,0,1-.28-2,8.29,8.29,0,0,1,1.42-2.24,10.94,10.94,0,0,1,1.73-2c.4-.27.59-.48.58-.63s-.18-.09-.52.15a8.94,8.94,0,0,1-.94-2.17,5.43,5.43,0,0,1-.26-2.16q0-.32.18-.39A6.85,6.85,0,0,1,7,23.12c1.24.14,2.58.36,4,.64h0l.05,0a12.92,12.92,0,0,1,4.79-.49,33.18,33.18,0,0,1,5.24.59h.09a18.28,18.28,0,0,1,4.73-1,9.06,9.06,0,0,1,3.86.12Z"/><path class="cls-3" d="M6.17,36.71a1.65,1.65,0,0,1-1.25-.89l-.4-.71a3.12,3.12,0,0,0-.47-.58,3.34,3.34,0,0,0,1.46.53l.66.1a6,6,0,0,1,1.9,1.25l1.48,1.25-1.24-.41a14.66,14.66,0,0,0-2.14-.54Z"/><path class="cls-3" d="M11.05,23.76h0l.05,0a12.92,12.92,0,0,1,4.79-.49,33.18,33.18,0,0,1,5.24.59h.09a14.16,14.16,0,0,1,2.59-.7,23.12,23.12,0,0,1,2.95-.38,10.62,10.62,0,0,0-4.48,1.74,6.87,6.87,0,0,0-1.89,1.88,35,35,0,0,0-5.09,2.26c-2.46,1.32-4,2.51-4.7,3.59a3.79,3.79,0,0,1-.76-.38c-.56-.34-.94-.55-1.13-.65a3.92,3.92,0,0,0,.56-1.16l.34-1.27a3.29,3.29,0,0,1,1.16-2,11.41,11.41,0,0,0-2.46-2.18A20.65,20.65,0,0,0,5.48,23c.68,0,1.57.13,2.69.29s1.93.31,2.88.49Z"/><path class="cls-3" d="M14.7,37.56a11.48,11.48,0,0,0,2.87-1.25,16.26,16.26,0,0,1,2.19-1.15l2.36-.43A22,22,0,0,1,25,34.34a2.47,2.47,0,0,0,1.55-.67c.56-.46.82-.89.77-1.3a4,4,0,0,0-1.51-1.57A8.12,8.12,0,0,1,24,29a7.73,7.73,0,0,0-1.94-1.86,7.62,7.62,0,0,0,1.77-1c1-.65,1.54-1,1.67-1.08l2.31-1.27a6.93,6.93,0,0,1,2.26-.73l0,.05c.3.81,0,2.43-.93,4.86a1.21,1.21,0,0,0-.47-.15q-.22,0,.06.27l.33.3a10.28,10.28,0,0,1,2.72,3.43,2.66,2.66,0,0,1,.07,2.1,6.6,6.6,0,0,1-1.25,2,4.24,4.24,0,0,1-1.77,1c-.37.12-1,.38-1.91.79l-2.73,1.28c-2.18,1.05-3.7,1.75-4.53,2.09a10.22,10.22,0,0,1-5,.26,16.64,16.64,0,0,1-2.48-.52,5.26,5.26,0,0,1-1.58-.68A4.67,4.67,0,0,0,13,39a16.21,16.21,0,0,0,1.66-1.46Z"/><path class="cls-1" d="M29.43,23.65a.22.22,0,0,1,.15.23,6.81,6.81,0,0,1-.44,1.69L28.61,27c-.06.18-.14.28-.25.3a1.12,1.12,0,0,1-.55-.17q-1.95-1-2.43-1.26c-.15-.07-.24-.12-.26-.17s0-.12.08-.21a7.39,7.39,0,0,1,1.92-1.25,3.45,3.45,0,0,1,2.31-.6Z"/><path class="cls-16" d="M29.4,23.88A12.67,12.67,0,0,1,28.29,27l-1.19-.66a12.85,12.85,0,0,0-1.5-.7,8.38,8.38,0,0,1,2.1-1.36c.88-.43,1.44-.6,1.66-.51,0,0,0,0,0,.07Z"/><path class="cls-17" d="M29.36,23.81s0,0,0,.07a6.57,6.57,0,0,1-.51,1.71,3.56,3.56,0,0,0-1.15-.14,4.65,4.65,0,0,0-1.52.49,4.9,4.9,0,0,0-.62-.26,8.38,8.38,0,0,1,2.1-1.36c.88-.43,1.44-.6,1.66-.51Z"/><path class="cls-1" d="M8.46,25.82s-.05.09-.18.18L6.49,27.28c-.23.17-.38.22-.44.15l-.3-.56a6.24,6.24,0,0,1-.54-1.28C5,25,5,24.6,5.17,24.4s.36,0,.88.11a7.92,7.92,0,0,1,2.13,1.08l.28.23Z"/><path class="cls-16" d="M6.92,25.2a6.33,6.33,0,0,1,1.18.7,6.51,6.51,0,0,0-1,.6c-.21.15-.48.35-.81.62l-.1.07a4.8,4.8,0,0,1-.5-1A3.75,3.75,0,0,1,5.35,25a.29.29,0,0,1,.05-.19s.07,0,.15,0a4,4,0,0,1,1.37.48Z"/><path class="cls-17" d="M5.55,24.72a4.1,4.1,0,0,1,1.33.46,1.33,1.33,0,0,0-.6.88,8.91,8.91,0,0,0-.14,1.07,6.4,6.4,0,0,1-.49-1.06A3.57,3.57,0,0,1,5.35,25a.29.29,0,0,1,.05-.19s.07,0,.15,0Z"/><path class="cls-1" d="M5.57,35a12.66,12.66,0,0,1,3.33.37l3.4.86c.67.17,1.31.3,1.91.4a4.38,4.38,0,0,0,1.18.11l.41-.09A66,66,0,0,1,26.7,35h.21l-.1.19c-.44.86-1.76,2-4,3.27a28.12,28.12,0,0,1-2.63,1.38,7.24,7.24,0,0,1-1.9.64,17.86,17.86,0,0,1-3.53-.06,8.93,8.93,0,0,1-2.83-.53l-1.31-.87L8.42,37.58C7,36.66,6.07,36,5.6,35.67c-.31-.25-.46-.41-.44-.49s.06,0,.16-.09L5.57,35Z"/><path class="cls-18" d="M9.14,35.64c.6.12,1.73.39,3.37.81l1.86.46a3.21,3.21,0,0,0,1.07.11l.41-.09,6.64-1.37a30,30,0,0,1,4.29-.62,14,14,0,0,1-4.31,3.25,15.53,15.53,0,0,1-4.49,2,15.42,15.42,0,0,1-3.34-.12,9.08,9.08,0,0,1-2.54-.53c-.68-.39-1.78-1.1-3.29-2.11a20.33,20.33,0,0,1-3-2.2,14.4,14.4,0,0,1,3.3.37Z"/><path class="cls-1" d="M8.45,36.4a1,1,0,0,1-.12-.64,1.06,1.06,0,0,1,.15-.42c4.37,1,6.54,1.51,6.49,1.55l9-1.55A.56.56,0,0,1,24,36a3,3,0,0,1-.65.83,9.44,9.44,0,0,1-3.45,1.91,12.29,12.29,0,0,1-4.7.74h-.17a10.44,10.44,0,0,1-4.23-1.15,5.24,5.24,0,0,1-2.37-2Z"/><path class="cls-19" d="M8.68,35.55q1.21.24,3.54.84l2.07.5a3.35,3.35,0,0,0,1.15.13l.61-.13c3.29-.7,5.84-1.17,7.65-1.44a2.36,2.36,0,0,1-.79,1.26,9.1,9.1,0,0,1-3.22,1.85,11.42,11.42,0,0,1-4.46.7,9.8,9.8,0,0,1-4.12-1.18,5.49,5.49,0,0,1-2.34-1.93.91.91,0,0,1-.13-.44l0-.16Z"/><path class="cls-1" d="M10.45,31.83c.3.34.38.5.26.48l-.28-.14a1.69,1.69,0,0,1-.81.95,2,2,0,0,1-1.32.32,2,2,0,0,1-1.25-.72,4.49,4.49,0,0,1-.88-2.86c-.35-.07-.56-.16-.61-.25s.19-.12.78-.05a6.81,6.81,0,0,1,2,.58,6.8,6.8,0,0,1,2.07,1.69Z"/><path class="cls-4" d="M9.51,32.74A1.79,1.79,0,0,1,8.32,33,1.66,1.66,0,0,1,7,32.14a4.8,4.8,0,0,1-.57-2.24,7.39,7.39,0,0,1,3.75,2,1.53,1.53,0,0,1-.7.8Z"/><path class="cls-1" d="M9.72,31.2l0,0v.14a1.51,1.51,0,0,1-.56.72.93.93,0,0,1-.76.15,1.07,1.07,0,0,1-.7-.62,2.83,2.83,0,0,1-.25-1.56L7.59,30l.11,0a7.87,7.87,0,0,1,2,1.18Z"/><path class="cls-16" d="M8.53,32a1,1,0,0,1-.61-.65,2.72,2.72,0,0,1-.17-1,7,7,0,0,1,1.78,1,1.32,1.32,0,0,1-.43.54.7.7,0,0,1-.57.11Z"/><path class="cls-4" d="M9.1,31c-.09.25-.22.37-.38.36s-.34-.28-.41-.82A7,7,0,0,1,9.1,31Z"/><path class="cls-1" d="M6.88,28.8a4.23,4.23,0,0,1,.91-.63,3.27,3.27,0,0,1,1.08-.44c.53-.06.54,0,.06.17a4,4,0,0,0-.92.5L7.14,29c-.22.14-.36.18-.41.12s0-.16.15-.31Z"/><path class="cls-1" d="M10.4,28.82c0-.35,0-.5,0-.43a1.34,1.34,0,0,1,.19.56,7.77,7.77,0,0,1,.14,1,5,5,0,0,1,0,.91c0,.22-.07.33-.17.33s-.16-.09-.16-.28l0-.89-.06-1.2Z"/><path class="cls-1" d="M21.84,27.1a.94.94,0,0,1,.64-.12c.12,0,.18.06.19.12s0,.1-.16.12l-.32.06a.59.59,0,0,0-.24.06c-.26.15-.53.69-.8,1.61l-.45,1.78c-.07.27-.12.38-.15.34a2.51,2.51,0,0,1,0-.36A7.63,7.63,0,0,1,20.87,29a3.21,3.21,0,0,1,1-1.86Z"/><path class="cls-1" d="M24,27.17a4.87,4.87,0,0,1,.84.45,3.6,3.6,0,0,1,.71.61c.2.21.28.32.26.33l-.4-.24a13.8,13.8,0,0,0-1.53-.93c-.17-.07-.26-.15-.26-.25s.12-.08.38,0Z"/><path class="cls-1" d="M25.69,28.77a.63.63,0,0,1,.48.12c.08.09,0,.15-.34.17a5.63,5.63,0,0,1-.58,3.16,2.12,2.12,0,0,1-1.23,1,2.17,2.17,0,0,1-1.56-.16,2.71,2.71,0,0,1-1.25-1.05c-.26.29-.41.41-.42.34a1.74,1.74,0,0,1,.33-.7,6.3,6.3,0,0,1,1.95-1.93,5.19,5.19,0,0,1,2.62-1Z"/><path class="cls-4" d="M21.42,31.81a9,9,0,0,1,2.37-2q1.34-.79,1.74-.69v.15a6.22,6.22,0,0,1-.42,2.48,2,2,0,0,1-1.21,1.19,1.94,1.94,0,0,1-1.33-.12,2.72,2.72,0,0,1-1.15-1Z"/><path class="cls-1" d="M22.79,31.49a1.16,1.16,0,0,1-.59-.78l.14-.23a9,9,0,0,1,1.75-1.09l.08,0h.1a2.14,2.14,0,0,1,.14,1.39,1.18,1.18,0,0,1-.69.84,1.06,1.06,0,0,1-.93-.08Z"/><path class="cls-16" d="M23.1,31.32a.71.71,0,0,1-.33-.22,1.7,1.7,0,0,1-.26-.38,9.85,9.85,0,0,1,1.62-1.1,2.86,2.86,0,0,1,.08.63,1.13,1.13,0,0,1-.27.77,1,1,0,0,1-.39.27l-.45,0Z"/><path class="cls-4" d="M23.53,30c0,.46,0,.72-.23.78s-.33-.05-.45-.31l.68-.47Z"/><path class="cls-1" d="M6.1,36.61a2.81,2.81,0,0,1-.65-.83L5,35H6.05q1.07,0,1,.12L6.64,36c-.25.44-.43.64-.54.61Z"/><path class="cls-4" d="M5.35,35.19l.79,0c.41,0,.61,0,.59.06a6.11,6.11,0,0,1-.34.62c-.18.28-.28.41-.32.4a5.64,5.64,0,0,1-.72-1.11Z"/><path class="cls-1" d="M27.4,34.93a2,2,0,0,1-.34.92c-.26.47-.46.71-.6.7s-.32-.26-.6-.77L25.48,35l.95-.14c.64-.08,1-.06,1,0Z"/><path class="cls-4" d="M27.22,34.94a3.21,3.21,0,0,1-.39.83c-.2.31-.33.45-.4.43s-.19-.16-.33-.39a3.91,3.91,0,0,1-.37-.7l1.49-.17Z"/><path class="cls-1" d="M10.83,37c.05,0,.1.23.15.67a3.22,3.22,0,0,1,0,.71c0,.07-.12.12-.26.15a.63.63,0,0,1-.41,0,.49.49,0,0,1-.18-.27c-.05-.13-.07-.22,0-.27a4,4,0,0,1,.35-.54c.2-.27.32-.4.36-.4Z"/><path class="cls-4" d="M10.78,37.24a2,2,0,0,1,.07.53c0,.33,0,.5,0,.52a.68.68,0,0,1-.2.06l-.23,0c-.08,0-.13-.16-.13-.35l.25-.39c.15-.24.23-.35.25-.34Z"/><path class="cls-1" d="M12.3,37.72a2,2,0,0,1,.16.77,2.72,2.72,0,0,1,0,.78s-.13.08-.31.09a.64.64,0,0,1-.48-.1A.62.62,0,0,1,11.5,39a.37.37,0,0,1,0-.29,4.57,4.57,0,0,1,.37-.53c.25-.31.39-.46.44-.44Z"/><path class="cls-4" d="M12.2,38a2.89,2.89,0,0,1,.07.59,2.1,2.1,0,0,1,0,.59l-.19,0a.41.41,0,0,1-.27-.07.51.51,0,0,1-.16-.41l.27-.4q.25-.36.27-.33Z"/><path class="cls-1" d="M20.81,38.45a2.92,2.92,0,0,1,.08-.71c.07-.41.13-.62.18-.62s.19.13.38.41l.31.49a.27.27,0,0,1,0,.29.53.53,0,0,1-.27.26.54.54,0,0,1-.42,0c-.14,0-.22-.09-.25-.16Z"/><path class="cls-4" d="M21.58,38.08a.38.38,0,0,1-.16.32l-.23,0L21,38.36s0-.19,0-.52a2.08,2.08,0,0,1,.1-.52s.09.1.24.35l.22.41Z"/><path class="cls-1" d="M19.38,39.28c-.09-.06-.11-.33-.05-.81s.14-.75.24-.79.17.11.36.36a3.09,3.09,0,0,1,.39.66.37.37,0,0,1,0,.27.62.62,0,0,1-.24.29.63.63,0,0,1-.41.09,1,1,0,0,1-.27-.07Z"/><path class="cls-4" d="M20.15,38.71a.47.47,0,0,1-.2.39l-.26.06-.19,0a1.87,1.87,0,0,1,.05-.59,2.89,2.89,0,0,1,.1-.58s.1.1.25.35l.25.4Z"/><path class="cls-1" d="M3.83,34.46a1,1,0,0,1-.06-.37c0-.2,0-.3.1-.29s.1.09.14.24a1.24,1.24,0,0,0,.11.28l.12.17A1.48,1.48,0,0,0,5,34.9L6.57,35a12.74,12.74,0,0,1,2.91.3c.59.13,1.39.36,2.39.68l1.56.48a6.25,6.25,0,0,0,1.47.25,8.5,8.5,0,0,0,1.49-.24l2.81-.58a65.08,65.08,0,0,1,7.72-1.15,5.59,5.59,0,0,0,1.8-.38,1.81,1.81,0,0,0,.89-.67c.14-.23.25-.31.35-.23s.08.2,0,.36a2.65,2.65,0,0,1-1.11.94,7.86,7.86,0,0,1-1.87.33q-1.89.16-7,1.11c-3.12.59-4.8.87-5,.86a14.17,14.17,0,0,1-3.18-.75c-1-.32-1.79-.55-2.35-.67a12.79,12.79,0,0,0-2.85-.3,7.35,7.35,0,0,1-1.84-.13A1.6,1.6,0,0,1,4,34.73a.73.73,0,0,1-.17-.27Z"/><path class="cls-1" d="M12.72,35.36a.19.19,0,0,1-.12-.22c0-.09.11-.13.25-.1a.86.86,0,0,1,.32.13l.31.31c.11.13.12.21,0,.25h-.17a3.55,3.55,0,0,0-.62-.38Z"/><path class="cls-1" d="M15.67,35.63a1.25,1.25,0,0,1,.35-.32,1.86,1.86,0,0,1,.43-.13c.18,0,.28,0,.29.12s-.08.19-.24.22a1.5,1.5,0,0,0-.43.16.58.58,0,0,0-.19.11l-.2,0c-.11,0-.12-.07,0-.2Z"/><path class="cls-1" d="M25.53,15a5.87,5.87,0,0,1,2.83.47l.1.06-.59,1.65a13,13,0,0,0-2.08-.21,3.64,3.64,0,0,1,1.07.58,1.06,1.06,0,0,0,.26.17c.06,0,.08.15.05.32l-.09,1.1a4.88,4.88,0,0,1-.17,1.07c-.07.17-.12.25-.15.25a.76.76,0,0,1-.08-.2,1.88,1.88,0,0,0-.58-.69,3.42,3.42,0,0,0-1.38-.78c.62.53,1.27,1.14,2,1.84l-1.32,1.13a5.9,5.9,0,0,1-1.51,1.1,2.26,2.26,0,0,1-.67-.53l-.94-.89L23,22.63a2.93,2.93,0,0,1,.41.83c0,.13-.39.34-1.13.64l-.89.72q-.91.69-1.05.6a3.31,3.31,0,0,1-.63-.71l-.83-1.06.48,1.45a4.7,4.7,0,0,1,.28,1c0,.09-.18.26-.52.5l-.75.51a1.15,1.15,0,0,1-.38.19c-.08,0-.14,0-.19-.13l-.69-1.33c.09.35.23.83.42,1.45a6.3,6.3,0,0,1-1.36,1s-.1-.25-.25-.67l-.41-1.19.11,2.1a2.9,2.9,0,0,1-.73.35c-.49.21-.77.29-.82.25s-.09-.21-.14-.52l-.14-.93.08,1.15a1.46,1.46,0,0,1,0,.58,6.35,6.35,0,0,1-2.07.44A4.22,4.22,0,0,1,12,28.47l.45-1.77c-.16.16-.55.58-1.18,1.28s-.9.89-1,.87-.22-.4-.42-1.14l-.26-1.09.8-.82-.69.54c-.45.33-.7.48-.75.43a2.31,2.31,0,0,1,.08-.84l.15-.76,1.92-1.39-1.37.62c-.5.23-.78.32-.82.26s.09-.44.4-1.16l.49-1.07L11.51,21l-.92.48c-.36.19-.56.27-.58.23a19.74,19.74,0,0,1,1.79-2.5L14,18.6l-.75-.1-.56-.13c-.08,0-.11-.06-.1-.13l.06-.08A15.13,15.13,0,0,1,14,17l0,0,.86-.08,1.43-.14-1.25-.22L15,16.46c0-.06,0-.13.19-.23l1.42-1A9.37,9.37,0,0,1,18,14.3a5.2,5.2,0,0,1,2.11.21,11,11,0,0,1,2.52,1,6.85,6.85,0,0,1,2.93-.6Z"/><path class="cls-6" d="M25.47,17.05a4.1,4.1,0,0,1,1.44.83l-.07.82-.13,1.13a4.47,4.47,0,0,0-1-.83,3.81,3.81,0,0,0-1.46-.61l-.35,0s.06.11.26.25a14.39,14.39,0,0,1,1.08,1l1,1-.89.73a6.25,6.25,0,0,1-.81-.54c-.53-.38-.83-.56-.9-.52s.15.26.64.68l.75.64-1.17.95-2-1.77c-.26-.22-.4-.33-.44-.32s0,.17.24.48.73,1.25,1.36,2.48l-.86.43-.43-.65c-.3-.43-.48-.63-.53-.61s.07.26.34.72l.39.7-1.58,1.14c-1-1.23-1.53-1.92-1.71-2.08l-.29-.25c-.06,0,0,.12.07.37s.43,1.34.89,2.9L18,26.94l-.47-1-.6-1.27c-.14-.27-.22-.41-.25-.41s0,.14,0,.41a10.4,10.4,0,0,0,.24,1.27c.12.55.24,1,.33,1.28l-.92.66-.38-1.11c-.22-.64-.38-1.06-.47-1.25a2.16,2.16,0,0,0-.22-.43c-.05,0-.06.14,0,.48l.15,2.79-1.08.41c-.27-1.52-.45-2.43-.53-2.72s-.12-.34-.18-.35-.08.13-.07.38l.09,3.12-1.46.32a28.34,28.34,0,0,0,.8-3.6c0-.07-.41.29-1.16,1.07l-1.32,1.4L9.91,26.7l.82-.8.86-.9c.16-.19.23-.3.2-.34s-.13,0-.32.11-.5.34-1.11.79l-1,.76.14-1c1.55-1.08,2.45-1.73,2.69-1.94s.25-.25.23-.28-.14,0-.35.06-.6.22-1.29.51L9.4,24.2,10,22.58c1.25-1.1,2-1.78,2.36-2l.45-.38s-.18,0-.59.17a6,6,0,0,0-.88.38L10.8,21,12,19.4l1.28-.33,1.55-.42c.21-.08.31-.15.31-.2s-.12-.07-.34-.05l-.82,0-1-.18a13.86,13.86,0,0,1,1.21-1l1.68-.16,1.34-.16c.2,0,.31-.07.31-.13s-.1-.1-.31-.13l-.94-.19-.65-.16c.19-.12.64-.45,1.36-1A8.07,8.07,0,0,1,18,14.55a6.64,6.64,0,0,1,3.07.54,12.09,12.09,0,0,1,1.55.71,6.29,6.29,0,0,1,2.76-.59,6,6,0,0,1,2.73.4l-.35,1.1-1.37-.07a18.07,18.07,0,0,0-1.91,0c-.4,0-.57.08-.51.14a1.11,1.11,0,0,0,.51.12,4.82,4.82,0,0,1,1,.17Z"/><path class="cls-7" d="M24.51,16.62c-.4,0-.57.08-.51.14a1.11,1.11,0,0,0,.51.12,4.82,4.82,0,0,1,1,.17,4.1,4.1,0,0,1,1.44.83l-.07.82-.13,1.13a4.47,4.47,0,0,0-1-.83,3.81,3.81,0,0,0-1.46-.61l-.35,0s.06.11.26.25a14.39,14.39,0,0,1,1.08,1l1,1-.89.73a6.25,6.25,0,0,1-.81-.54c-.53-.38-.83-.56-.9-.52s.15.26.64.68l.75.64-.87.72a6.77,6.77,0,0,0-3.5-2.93,5.16,5.16,0,0,0-4.57.43c-.54-1.36-1.35-2.08-2.42-2.15l.5-.37,1.68-.16,1.34-.16c.2,0,.31-.07.31-.13s-.1-.1-.31-.13l-.94-.19-.65-.16c.19-.12.64-.45,1.36-1A8.07,8.07,0,0,1,18,14.55a6.64,6.64,0,0,1,3.07.54,12.09,12.09,0,0,1,1.55.71,6.29,6.29,0,0,1,2.76-.59,6,6,0,0,1,2.73.4l-.35,1.1-1.37-.07a18.07,18.07,0,0,0-1.91,0Z"/><path class="cls-1" d="M22.12,15.51h0l.74.11.21-.06q.12,0-.39.3a18.23,18.23,0,0,0-3.55,1.94,19.28,19.28,0,0,0-5.61,6.13l-.12.22s0-.07,0-.26a4.3,4.3,0,0,1,.55-2,11.81,11.81,0,0,1,1.74-2.6,10.6,10.6,0,0,1,6.46-3.8Z"/><path class="cls-6" d="M22.4,15.78a12.65,12.65,0,0,0-4.07,2.14,16.26,16.26,0,0,0-4.69,5.44,7.81,7.81,0,0,1,.87-2A12.89,12.89,0,0,1,16.29,19a10.13,10.13,0,0,1,5.83-3.29l.25,0c.13,0,.14,0,0,.07Z"/><path class="cls-7" d="M22.12,15.69l.25,0c.13,0,.14,0,0,.07a11.28,11.28,0,0,0-2.25,1,16.9,16.9,0,0,0-2.95,2.1,1.69,1.69,0,0,0-.52-.26,11.64,11.64,0,0,1,2.45-1.84,8.57,8.57,0,0,1,3-1Z"/><path class="cls-1" d="M43.5,12.88c0,.15-.23.47-.77.94s-.84.66-.93.57l-.84-1,.21.65a1.46,1.46,0,0,1,.1.66c-.05.13-.35.3-.92.51s-.87.27-.91.18a2.2,2.2,0,0,0-.33-.48l-.51-.63v.89a1.71,1.71,0,0,1-.06.57,6.07,6.07,0,0,1-1.74.1,12.63,12.63,0,0,1-3.09-.32,1.49,1.49,0,0,1-.38-.12,1.24,1.24,0,0,1-.27-.55,8.23,8.23,0,0,0-1.18-2.23A13.46,13.46,0,0,0,30,10.55a9.16,9.16,0,0,0-2-1.46,2.19,2.19,0,0,0-1.61-.33l-.2,0c-1.35-.66-3.14.37-5.39,3.07a29.62,29.62,0,0,0-3,4.24H15.48l-.18-1.15-.3.35-.19.36-.17.31c-.08,0-.3,0-.64-.15l-1.48-.51-1.16-.37c-.19-.06-.31-.13-.35-.22a.92.92,0,0,1,.08-.57l.23-.69.22-.73a7.5,7.5,0,0,0-.81,1,3.74,3.74,0,0,1-.68.8c-.12.06-.56-.13-1.31-.57A3.69,3.69,0,0,1,7.52,13c0-.08.19-.37.68-.86a19.41,19.41,0,0,1,1.94-1.72,20.59,20.59,0,0,1,6.09-3.5,12.73,12.73,0,0,1,5.56-.79A9.4,9.4,0,0,1,26.25,8a8.3,8.3,0,0,1,5.23-1.41,14.75,14.75,0,0,1,6.06,1.68,21.94,21.94,0,0,1,4.22,2.83c1.13,1,1.71,1.56,1.74,1.81Z"/><path class="cls-10" d="M41.79,14l-.35-.52a6,6,0,0,0-.75-.84c-.3-.28-.46-.39-.48-.31s0,.21.19.48a3.92,3.92,0,0,1,.28.7l.28,1a4,4,0,0,1-1.37.52l-.66-1q-.59-.83-.63-.72a5,5,0,0,0-.08,1l0,1.08-1.92.09a8,8,0,0,1-2.59-.36,8.22,8.22,0,0,0-1.14-2.37,13,13,0,0,0-1.9-2.25A10,10,0,0,0,28.39,8.9a4,4,0,0,0-2.16-.52q-2.32-.92-5.48,2.75a26.21,26.21,0,0,0-3.12,4.57H15.77a7.2,7.2,0,0,1-.18-1l0-.41c0-.05-.11,0-.27.16l-.49.51a1.73,1.73,0,0,0-.32.54,25.7,25.7,0,0,1-3.16-1c.31-1,.54-1.76.69-2.18s.13-.45.11-.46l-.35.22a6.56,6.56,0,0,0-.88.77,6.73,6.73,0,0,0-1,1.18,4.86,4.86,0,0,1-1.17-.49A5.45,5.45,0,0,1,8.06,13,27.68,27.68,0,0,1,11,10.43a19.89,19.89,0,0,1,5.44-3.07,14.26,14.26,0,0,1,5.39-.92,8.28,8.28,0,0,1,4.3,1.69l.18.08A9.21,9.21,0,0,1,30.61,7a13.27,13.27,0,0,1,6.52,1.6,23.25,23.25,0,0,1,4,2.56A19.78,19.78,0,0,1,43.17,13a2.08,2.08,0,0,1-.64.6l-.74.43Z"/><path class="cls-11" d="M32.24,7a7.17,7.17,0,0,0-3.5,2.06,4.21,4.21,0,0,0-2.51-.71,2.74,2.74,0,0,0-1.66-.09A5.26,5.26,0,0,0,23.1,6.65a8.64,8.64,0,0,1,3,1.48l.18.08A9.42,9.42,0,0,1,32.24,7Z"/><path class="cls-11" d="M38.07,9.07a23,23,0,0,1,3.34,2.32A16.59,16.59,0,0,1,43.17,13a2.15,2.15,0,0,1-.65.61,27.41,27.41,0,0,0-4.45-4.54Z"/><path class="cls-11" d="M18.55,14.15c-.35.56-.66,1.07-.92,1.55H16a14,14,0,0,1,4.36-4.08,25.41,25.41,0,0,0-1.8,2.53Z"/><path class="cls-1" d="M31.11,8.19c-.49-.33-.73-.55-.73-.66a1,1,0,0,1,0-.42.54.54,0,0,1,.24-.32h0a12.62,12.62,0,0,1,4.05.63l.07,0-.09.19a6.43,6.43,0,0,1-.47.93,1.75,1.75,0,0,1-.92.78c-.25.07-1-.31-2.22-1.15Z"/><path class="cls-12" d="M30.77,6.94a12,12,0,0,1,3.8.6l0,0a4.68,4.68,0,0,1-.44.83,1.63,1.63,0,0,1-.83.68A.88.88,0,0,1,32.84,9a6.68,6.68,0,0,1-.91-.47,10.48,10.48,0,0,1-1-.64c-.24-.18-.37-.3-.38-.35V7.44a.58.58,0,0,1,.21-.5Z"/><path class="cls-13" d="M30.77,6.94l1.67.11-.88.18a3.4,3.4,0,0,0-.95.36l0-.06V7.44a.58.58,0,0,1,.21-.5Z"/><path class="cls-1" d="M33.86,11.11a2.82,2.82,0,0,1,1.55-.33c.37.08.65.52.86,1.32a2.94,2.94,0,0,1,.12,1.55c-.1.27-.47.49-1.11.65l-.93.15c-.31.06-.86-.23-1.66-.87h0l-.6-1.19a4,4,0,0,1,1.78-1.27Z"/><path class="cls-12" d="M34,11.24a2.68,2.68,0,0,1,1.38-.3c.07,0,.18.17.34.45a4.05,4.05,0,0,1,.33.81,2.73,2.73,0,0,1,.14.84,1.45,1.45,0,0,1-.07.49c-.14.37-.68.61-1.64.7l-.13,0c-.24.05-.7-.19-1.39-.74l-.49-.8-.17-.3A3.91,3.91,0,0,1,34,11.24Z"/><path class="cls-1" d="M38.73,10.2a5.47,5.47,0,0,1,1.44.91.13.13,0,0,1,0,.12,3,3,0,0,1-1.1.63,5,5,0,0,1-1.17.4c-.15,0-.44-.22-.85-.64a2.69,2.69,0,0,1-.68-.91.81.81,0,0,1,.14-.67,1.14,1.14,0,0,1,.63-.48,4.17,4.17,0,0,1,1.59.64Z"/><path class="cls-12" d="M39.89,11.18c0,.09-.33.25-.9.5a3.8,3.8,0,0,1-1.06.35c-.1,0-.35-.18-.72-.56a2.57,2.57,0,0,1-.65-.84.7.7,0,0,1,.13-.55.63.63,0,0,1,.38-.32,4.37,4.37,0,0,1,1.46.6,5.69,5.69,0,0,1,1.36.82Z"/><path class="cls-1" d="M20.43,6.33h.11l0,.09-.26,1c-.14.54-.25.83-.32.86a4.79,4.79,0,0,1-1.34,0,4.24,4.24,0,0,1-1.39-.2l-.08-.07L17.05,8a2.58,2.58,0,0,1,.51-.71l.51-.59.17-.11,1.14-.18,1.05-.07Z"/><path class="cls-12" d="M20.31,6.46l-.18.77L20,7.77c-.05.17-.1.27-.16.3a4.29,4.29,0,0,1-1.22,0,4.1,4.1,0,0,1-1.2-.17A3.51,3.51,0,0,1,18,7.1l.22-.27a13.37,13.37,0,0,1,2.09-.37Z"/><path class="cls-1" d="M15.22,9.82A8.59,8.59,0,0,1,17.05,9c.13,0,.39.5.77,1.43a6.4,6.4,0,0,1,.55,1.74c0,.28-.58.53-1.73.74s-1.75.24-1.85.09l-.72-.94c-.44-.6-.66-1-.63-1.07s.65-.59,1.78-1.17Z"/><path class="cls-12" d="M13.7,11.05c0-.14.55-.46,1.55-1A8.8,8.8,0,0,1,17,9.27a4.7,4.7,0,0,1,.66,1.3,6.06,6.06,0,0,1,.5,1.55h0l-.09.11a1.86,1.86,0,0,1-.52.23,7.26,7.26,0,0,1-1.61.33c-.57.06-.88.06-.93,0l-.39-.45c-.6-.67-.9-1.09-.9-1.25v0Z"/><path class="cls-1" d="M19.94,9.2a1.64,1.64,0,0,1,.34-.39,3.66,3.66,0,0,1,1.33-.25c.81,0,1.33.12,1.55.5l0,.06-.05,0a10.74,10.74,0,0,0-1.79,1.52l0,0h0l-.93-.12-.84-.11c-.16,0-.24-.07-.26-.13a.06.06,0,0,1,0-.08l.19-.29.47-.76Z"/><path class="cls-12" d="M20.45,8.92a3.58,3.58,0,0,1,1.13-.22A1.71,1.71,0,0,1,23,9a12.08,12.08,0,0,0-1.68,1.46l-.82-.1-.95-.15L19.7,10a4.82,4.82,0,0,1,.75-1.07Z"/><path class="cls-5" d="M32.83,45.45a4.51,4.51,0,0,1,.73.6c.31.29.46.49.46.59a1.33,1.33,0,0,1-.28.63,4.37,4.37,0,0,1-.53.68,8.69,8.69,0,0,0,0-1.29,3.58,3.58,0,0,0-.36-1.21Z"/></g></g></svg>