<?xml version="1.0" encoding="utf-8"?>
<!-- Generator: Adobe Illustrator 24.3.0, SVG Export Plug-In . SVG Version: 6.00 Build 0)  -->
<svg version="1.1" id="Layer_1" xmlns="http://www.w3.org/2000/svg" xmlns:xlink="http://www.w3.org/1999/xlink" x="0px" y="0px"
	 viewBox="0 0 720 720" style="enable-background:new 0 0 720 720;" xml:space="preserve">
<style type="text/css">
	.st0{fill-rule:evenodd;clip-rule:evenodd;fill:#211714;}
	.st1{fill-rule:evenodd;clip-rule:evenodd;fill:#7C9DD1;}
	.st2{fill-rule:evenodd;clip-rule:evenodd;fill:#6F9ABB;}
	.st3{fill-rule:evenodd;clip-rule:evenodd;fill:#F1D4A1;}
	.st4{fill-rule:evenodd;clip-rule:evenodd;fill:#5A7ABB;}
	.st5{fill-rule:evenodd;clip-rule:evenodd;fill:#ADD3E1;}
	.st6{fill-rule:evenodd;clip-rule:evenodd;fill:#7E9DD1;}
	.st7{fill-rule:evenodd;clip-rule:evenodd;fill:#E2F1E6;}
	.st8{fill-rule:evenodd;clip-rule:evenodd;fill:#E4B476;}
	.st9{fill-rule:evenodd;clip-rule:evenodd;fill:#AB5C3A;}
	.st10{fill-rule:evenodd;clip-rule:evenodd;fill:#C9652B;}
	.st11{fill-rule:evenodd;clip-rule:evenodd;fill:#BFCCC4;}
	.st12{fill-rule:evenodd;clip-rule:evenodd;fill:#E4B575;}
	.st13{fill-rule:evenodd;clip-rule:evenodd;fill:#B4BFB8;}
	.st14{fill-rule:evenodd;clip-rule:evenodd;fill:#FFFFFF;}
	.st15{fill-rule:evenodd;clip-rule:evenodd;fill:#201614;}
	.st16{fill-rule:evenodd;clip-rule:evenodd;fill:#211715;}
	.st17{fill-rule:evenodd;clip-rule:evenodd;fill:#727CBA;}
	.st18{fill-rule:evenodd;clip-rule:evenodd;fill:#251E1E;}
	.st19{fill-rule:evenodd;clip-rule:evenodd;fill:#272021;}
	.st20{fill-rule:evenodd;clip-rule:evenodd;fill:#282122;}
	.st21{fill-rule:evenodd;clip-rule:evenodd;fill:#221816;}
	.st22{fill-rule:evenodd;clip-rule:evenodd;fill:#231815;}
	.st23{fill-rule:evenodd;clip-rule:evenodd;fill:#DD807D;}
	.st24{fill-rule:evenodd;clip-rule:evenodd;fill:#B95864;}
	.st25{fill-rule:evenodd;clip-rule:evenodd;fill:#FDFEFF;}
	.st26{fill-rule:evenodd;clip-rule:evenodd;fill:#B95763;}
	.st27{fill-rule:evenodd;clip-rule:evenodd;fill:#AA5B3B;}
</style>
<g>
	<path class="st0" d="M129.89,267.21c-3.42-9.54-1.48-18.45,3.79-26.89c1.91-3.06,4.41-5.55,7.16-7.8c1.07-0.88,1.58-1.79,1.65-3.21
		c0.8-15.53,1.47-31.08,4.13-46.45c0.25-1.46-0.54-1.66-1.46-2.08c-10.93-5.02-18.76-13.23-24.42-23.68
		c-1.14-2.09-1.86-4.35-2.19-6.7c-0.4-2.91,0.62-4.09,3.53-4.14c1.99-0.03,3.97-0.01,6.45-0.01c-0.99-0.78-1.72-1.34-2.43-1.93
		c-19.24-15.83-33.45-35-39.51-59.57c-0.35-1.41-0.53-2.86-0.7-4.3c-0.37-3.09,0.49-4.28,4.19-5.89c-2.19-2.55-4.49-4.96-6.49-7.6
		c-5.26-6.98-10.29-14.11-12.95-22.6c-1.64-5.22-0.56-6.86,4.79-7.34c18.07-1.61,35.22,2.44,52.05,8.47
		c29.64,10.61,52,30.02,68.3,56.68c1.22,1.99,1.94,2.31,4.05,1.07c12.57-7.34,26.32-11.31,40.58-13.65
		c15.93-2.61,31.96-3.99,48.12-2.75c17.29,1.33,34.38,3.54,50.16,11.47c1.69,0.85,3.34,1.79,4.93,2.64
		c12.31-34.5,38.13-54.61,71.1-67.08c13.19-4.98,26.53-9.52,40.71-10.74c4.43-0.38,8.87-1.09,13.33-0.33
		c3.17,0.54,4.27,1.78,4.21,4.95c-0.13,6.69-2.52,12.79-5.19,18.78c-1.5,3.37-3.31,6.6-5.01,9.94c5.1-0.03,5.99,0.74,5.79,5.86
		c-0.44,11.8-3.9,22.87-8.46,33.64c-9.06,21.41-22.2,40.01-38.93,56.09c-1.55,1.49-1.88,2.5-0.82,4.54
		c3.87,7.47,6.28,15.47,7.49,23.8c0.45,3.1,0.18,6.21-0.36,9.24c-0.97,5.51-4.65,8.24-11.02,8.5c-3.63,0.15-7.21-0.49-10.87-0.7
		c3.16,17.24,3.3,34.39,0.29,51.77c3.92-1.63,7.73-3.01,11.88-2.92c0.71,0.02,1.16-0.47,1.65-0.87c5.6-4.5,11.94-7.61,18.66-9.99
		c1.48-0.53,2.7-1.27,3.86-2.37c10.01-9.54,25.95-6.75,30.77,5.91c1.84,4.81,4.59,8.62,7.6,12.94c2.86-8.85,7.01-16.61,12.67-23.56
		c11.71-14.39,26.81-22.16,45.28-23.71c12.81-1.07,25.34,0.3,37.34,4.67c26.12,9.5,41.61,29.28,39.77,60.03
		c-0.61,10.17-2.51,19.82-7.97,28.54c-0.91,1.45,0.05,1.91,0.85,2.58c4.89,4.13,9.18,8.8,13.17,13.8
		c12.31,15.45,16.09,33.26,14.77,52.52c-0.07,1.03-0.7,2.04,1.13,2.37c22.1,3.93,34.87,18.02,41.71,38.5
		c2.93,8.78,4.06,17.89,4.64,27.07c1.85,29.35-4.22,56.97-18.55,82.65c-7.64,13.7-18.53,24.67-30.42,34.72
		c-24.67,20.86-53.15,34.21-83.93,43.25c-22.73,6.68-45.96,7.93-69.41,7.62c-1.44-0.02-2.89-0.33-4.33-0.52
		c-1.78-0.23-2.67,0.36-2.09,2.28c4.43,14.68,6.48,29.82,8.41,44.97c0.22,1.69,1.12,3.02,2.14,4.34
		c4.97,6.42,9.33,13.21,12.23,20.86c0.88,2.32,1.41,4.68,1.77,7.12c0.33,2.12-0.26,2.75-2.48,2.41c-10.16-1.52-20.24-3.5-30.27-5.7
		c-1.7-0.37-2.41,0.02-3.19,1.43c-2.52,4.53-5.3,8.9-8.47,13.03c-3.02,3.93-3.39,4.01-7.96,2.36c-9.1-3.3-17.53-7.96-25.94-12.65
		c-2.99-1.67-5.71-1.91-9.02-1.04c-9.32,2.43-18.73,4.48-28.11,6.64c-3.64,0.84-4.33,0.26-4.65-3.41
		c-0.31-3.45-0.48-6.91-0.29-10.36c0.27-4.95-1.2-9.24-4.1-13.24c-6.2-8.56-12.68-16.87-19.91-24.59
		c-5.6-5.98-11.08-12.06-16.55-18.15c-0.68-0.76-1.33-1.03-2.3-1.09c-17.86-1.22-35.37-4.19-52.11-10.82
		c-1.39-0.55-2.14-0.02-3.1,0.79c-8.46,7.13-12.16,16.79-14.49,27.15c-1.44,6.4-2.47,12.86-2.82,19.41
		c-0.15,2.88-1.4,4.36-4.38,4.86c-8,1.34-15.97,0.78-23.94-0.03c-18.67-1.88-37.4-3.01-56.15-1.89
		c-10.71,0.64-21.14,3.52-31.66,5.58c-0.71,0.14-1.43,0.27-2.14,0.4c-2.13,0.4-2.97-0.68-2.61-2.6c0.41-2.21,1.09-4.38,1.73-6.82
		c-5.66,0.77-11.25,1.31-16.88,1.46c-1.27,0.03-2.54,0.16-3.82,0.18c-3.11,0.04-3.61-0.69-2.3-3.56
		c5.98-13.05,14.87-23.69,26.88-31.55c2.37-1.55,2.98-3.02,2.68-5.67c-2.6-23.3,0.52-45.9,8.84-67.76
		c3.87-10.17,9.29-19.53,16.23-27.95c0.9-1.09,1.26-1.87,0.47-3.3c-7.39-13.43-10.6-28.13-12.9-43.11
		c-3.12-20.32-3.88-40.74-2.84-61.24c0.11-2.1-0.5-2.98-2.43-3.73c-35.64-13.82-66.63-34.72-93.47-61.84
		c-5.65-5.7-10.48-12.1-15.09-18.66c-0.62-0.88-1.14-1.75-2.38-2.06c-10.43-2.6-12.28-11.11-11.38-18.92
		c0.3-2.58,0.7-5.28,2.79-7.23c0.72-0.67,0.44-1.5,0.41-2.3c-0.19-4.84,0.45-9.61,1.2-14.38c1.16-7.44,4.9-13.65,9.33-19.45
		c3.84-5.02,9.19-6.15,15.19-4.83c0.79,0.18,1.61,0.43,2.4,0.38c20.65-1.19,40.46,3.31,60.12,8.83c0.61,0.17,1.22,0.33,1.84,0.48
		C129.54,267.5,129.62,267.39,129.89,267.21z"/>
	<path class="st1" d="M296.55,330.95c-7.55,1.28-15.19,1.71-22.8,1.95c-25.24,0.83-50.16-1.08-74.19-9.63
		c-14.2-5.05-27.79-11.34-39.72-20.72c-11.29-8.88-20.82-19.28-26.78-32.55c-5.54-12.34-3.15-25.08,6.98-34.02
		c3.4-3.01,4.46-6.17,4.62-10.3c0.53-13.17,1.52-26.3,3.29-39.39c4.44-32.75,19.4-59.02,46.96-77.78
		c14.3-9.73,30.37-14.57,47.21-17.27c14.03-2.25,28.16-3.53,42.39-2.7c18.3,1.07,36.42,3.1,53.2,11.4c5.55,2.75,5.45,2.66,4.42,8.74
		c-2.52,14.8-2.89,29.49,2.99,43.73c0.83,2.01,1.86,3.93,2.8,5.89c1.01,2.57,1.11,5.31,1.52,8c1.52,9.97,4.56,19.43,9.23,28.4
		c6.57,12.64,11.85,25.77,14.14,39.94c0.45,2.78,1.08,5.54,0.92,8.38c-0.15,2.11-1.65,2.39-3.29,2.35
		c-4.3-0.09-8.54,0.46-12.65,1.59c-5.88,1.63-11.6,3.72-15.93,8.36c-3.4,3.64-2.68,6.15,2.21,7.14c8.08,1.63,15.87-0.04,23.58-2.33
		c1.71-0.51,3.37-1.43,5.26-0.96c1.53,2.14,1,4.63,0.7,6.85c-1.51,11.3-4.43,22.12-11.83,31.23c-3.36,4.15-7.52,7.41-11.75,10.53
		c-13.77,10.15-29.03,17.26-45.52,21.74C301.91,330.24,299.19,330.42,296.55,330.95z"/>
	<path class="st2" d="M681.1,429.24c0.95,6.58,1.03,13.2,0.91,19.83c-0.37,21.27-5.75,41.31-14.87,60.42
		c-6.98,14.62-17.3,26.57-29.27,37.33c-26.09,23.43-56.76,38.01-90.21,47.39c-14.89,4.18-30.06,6.24-45.48,6.59
		c-7.72,0.18-15.44,1-23.17,0.04c-1.51-0.18-2.05-0.47-1.03-1.91c6.11-8.67,8.31-18.66,9.69-28.92c0.58-4.32,3.78-6.73,7.99-6.12
		c10.56,1.53,21.05,0.5,31.53-0.81c15.84-1.98,30.53-7.3,44.25-15.34c2.74-1.6,5.24-3.62,7.81-5.49c0.6-0.44,1.76-0.95,1.11-1.83
		c-0.65-0.89-1.48,0.04-2.09,0.5c-8.18,6.24-17.4,10.51-26.92,14.25c-10.08,3.97-20.64,5.66-31.33,6.82
		c-8.26,0.9-16.52,0.87-24.79,0.04c-2.01-0.2-2.35-0.59-1.19-2.35c2.66-4.03,4.99-8.26,7.02-12.63c0.79-1.71,1.86-2.25,3.67-2.53
		c22.32-3.46,43.71-9.62,62.37-22.93c14.6-10.42,26.71-23.3,36.14-38.61c2.1-3.41,3.48-7.2,4.89-10.94
		c0.22-0.58,0.54-1.17-0.43-2.24c-9.12,21.16-23.95,37.47-42.27,50.6c-18.47,13.23-39.86,18.87-62.32,22.6
		c1.07-2.64,1.96-4.89,2.89-7.12c4.92-11.88,7.08-24.39,8.47-37.07c1.56-14.22,1.67-28.51,1.71-42.79
		c3.8-5.99,7.59-11.97,10.31-18.57c8.02-19.53,12.44-39.73,11.19-60.94c-0.69-11.71-2.08-23.35-4.41-34.87
		c-2.56-12.66-5.04-25.34-7.46-38.02c-2.62-13.68-1.58-27.18,3.44-40.25c3.89-10.14,11.15-17.07,21.26-20.58
		c11.64-4.04,23.62-5.08,35.64-1.44c14.45,4.37,23.88,13.44,26.48,28.77c0.38,2.25-0.09,4.5,0.1,6.75
		c-1.79,17.57-15.52,38.8-39.69,42.54c-19.14,2.96-35.61-15.43-33.07-32.08c0.86-5.63,2.31-10.73,6.4-14.96
		c6.95-7.18,16.12-6.44,23.06-2.65c0.7,0.38,1.36,0.83,2.24,1.04c-0.53-1.56-1.81-2.4-3.17-3.14c-11-5.93-23.61-1.24-28.34,10.55
		c-7.5,18.68,4.19,39.66,24.02,42.97c1.54,0.26,2.11,0.99,2.58,2.3c2.24,6.31,3.11,12.89,3.83,19.48
		c2.35,21.55,0.9,42.88-4.68,63.82c-5.75,21.57-16.39,40.52-31.67,56.84c-0.61,0.65-2.18,1.46-1.34,2.25
		c1.03,0.96,1.77-0.72,2.43-1.39c18.08-18.11,28.94-40.07,34.29-64.89c3.16-14.63,4.51-29.49,3.76-44.45
		c-0.53-10.61-1.24-21.24-4.62-31.45c-0.51-1.54-0.28-1.97,1.43-2.04c4.58-0.18,9-1.35,13.2-3.11c2.06-0.86,3.06-0.31,4.26,1.32
		c4.59,6.24,7.57,13.23,9.78,20.58c0.27,0.92,0.37,1.9,1.37,2.76c0.76-1.62-0.02-2.89-0.27-4.11c-1.46-7.25-4.5-13.84-8.99-19.67
		c-1.64-2.13-1.64-3.25,0.83-4.25c4.8,3.29,7.45,8.34,10.56,12.99c7.73,11.56,11.82,24.43,13.55,38.12
		c0.16,1.29,0.58,2.45,1.11,3.61c-12.17,2.67-21.3,9.72-28.28,19.76c-8.47,12.19-10.12,25.7-5.81,39.51
		c3.9,12.46,14,18.71,26.1,22.03c1.73,0.48,3.53,0.67,5.3,0.99c-1.73,2.89-1.19,6.2-1.49,9.3c-1.87,19.38-5.19,38.43-13.19,56.33
		c-3.49,7.81-7.86,15.16-13.94,21.4c5.48-2.19,11.07-4.03,15.99-7.34c0.38-0.25,0.74-0.54,1.14-0.75c0.68-0.35,1.41-1.24,2.14-0.44
		c0.63,0.69,0.02,1.56-0.37,2.26c-0.98,1.74-2.01,3.46-3.22,5.06c-0.6,0.79-1.32,1.5-1.8,2.76c3.62-0.84,6.82-2.27,9.97-3.73
		c11.32-5.28,22.25-11.26,32.01-19.15c21.69-17.54,34.01-40.36,38.08-67.8c0.86-5.85,1.7-11.7,1.66-17.63
		C679.85,431.21,679.94,429.99,681.1,429.24z"/>
	<path class="st3" d="M343.42,346.82c-0.78,38.8,30.16,71.7,63.73,77.37c4.19,0.71,8.31,0.94,12.23-1.13
		c1.3,0.43,2.07,1.46,2.77,2.52c3.04,4.55,5.46,9.43,7.6,14.46c0.41,0.96,0.18,1.97,0.56,2.89c-1.16,5.59-2.59,11.15-3.38,16.79
		c-0.42,3.03-1.69,4.4-4.41,5.59c-23.67,10.36-48.35,16.71-73.98,19.81c-25.09,3.05-50.21,4.38-75.45,3.57
		c-8.27-0.27-16.53-1.03-24.79-1.49c-1.43-0.08-2.07-0.49-2.19-2.02c-0.56-7.07-1.32-14.13-1.84-21.2
		c-1.72-23.57-1.1-47.11,1.06-70.63c0.87-9.43,2.46-18.74,4.82-27.92c0.52-2.01,1-4.07,2.63-5.57c1.38-0.84,2.85-0.28,4.27-0.24
		c24.71,0.69,49.04-1.69,72.78-8.9c3.49-1.06,6.85-2.45,10.25-3.73C341.15,346.6,342.25,345.9,343.42,346.82z"/>
	<path class="st4" d="M385.45,529.1c8.59-5.59,18.17-8.22,28.25-8.93c4.74-0.33,9.03,1.8,13.09,4.12
		c9.68,5.53,16.46,13.97,22.42,23.06c10.07,15.34,16.27,32.38,21.58,49.84c5.15,16.92,8.54,34.14,10.46,51.69
		c0.26,2.39,1.23,4.46,2.75,6.41c5.52,7.05,10.27,14.57,12.91,23.22c1.22,4,0.95,4.18-3.06,3.51c-9.04-1.5-18.07-3.14-26.97-5.3
		c-2.57-0.63-3.75,0.19-4.91,2.32c-2.65,4.88-5.71,9.5-9.08,13.93c-1.21,1.6-2.34,1.83-4.15,1.16c-8.55-3.17-16.69-7.21-24.52-11.84
		c-4.53-2.68-8.98-4.09-14.04-1.87c-0.43-1.92,0.43-3.74,0.36-5.66c-0.55-14.59-3.56-28.65-8.81-42.25
		c-3.78-9.79-9.14-18.8-13.85-28.13c-5.39-10.67-9.27-21.82-10-33.78c-0.86-13.92-0.11-27.68,7.16-40.21
		C385.26,529.98,385.41,529.56,385.45,529.1z"/>
	<path class="st5" d="M612.74,276.84c-0.95-2.94-0.43-6.05-1.17-9.06c-3-12.08-10.48-20.17-21.93-24.51
		c-13.59-5.15-27.31-4.32-40.61,0.9c-12.02,4.72-18.43,14.41-21.47,26.68c-3.23,13.05-2.77,26.02,0.17,39.03
		c3.54,15.7,6.59,31.52,8.97,47.44c1.74,11.67,2.72,23.53,1.68,35.3c-1.85,21.1-7.54,41.14-18.7,59.37
		c-0.91,1.49-1.63,3.27-3.48,3.99c-0.95-16.39-3.29-32.54-7.71-48.38c-6.7-24.06-15.82-47.01-30.49-67.45
		c-0.86-1.2-0.89-2.15-0.34-3.48c5.53-13.52,9.07-27.58,11.25-42c0.14-0.94,0.19-1.87,1.22-2.57c5.29-3.57,7.89-10.79,6.03-17.04
		c-1.42-4.77-3.66-8.97-9.04-10.35c-0.34-0.09-0.83-0.22-0.95-0.48c-1.46-3.12-2.91-6.24-4.24-9.42c-0.58-1.38,0.36-2.65,0.81-3.89
		c7.22-20.04,19.97-35.2,40.73-41.3c23.4-6.88,46.28-4.28,66.94,9.39c15.41,10.2,23.13,25.02,22.94,43.68
		C613.31,267.42,613.85,272.17,612.74,276.84z"/>
	<path class="st5" d="M444.87,80.3c1.38-0.28,1.8-1.29,2.41-2.01c4.75-5.64,9.42-11.35,13.03-17.82c0.58-1.05,1.38-1.59,2.52-1.85
		c2.97-0.69,3.9-0.11,3.88,2.94c-0.03,4.38-0.63,8.7-1.65,12.96c-5.66,23.77-17.28,44.42-32.86,63.01
		c-4.22,5.03-8.71,9.8-13.49,14.29c-1.49,1.4-1.74,2.4-0.75,4.36c4.68,9.23,8.28,18.81,8.05,29.39
		c-0.17,7.87-3.01,10.45-10.89,10.62c-8.81,0.18-16.82-2.59-24.65-6.15c-11.14-5.06-21.91-10.75-30.68-19.51
		c-14.37-14.37-18.88-31.98-17.1-51.78c2.95-32.9,21.57-55.24,48.58-71.53c19.17-11.56,40.16-18.65,62.34-21.97
		c4.5-0.67,9.05-0.98,13.61-0.74c3.37,0.18,4.2,1.14,3.84,4.46c-0.73,6.69-3.03,12.9-6.01,18.86c-5.3,10.6-11.61,20.57-18.85,29.96
		C445.68,78.49,444.89,79.05,444.87,80.3z"/>
	<path class="st3" d="M419.41,518.88c-12.27-1.65-23.25,2.16-33.88,7.79c-16.75,8.86-29.66,21.71-39.72,37.6
		c-1.51,1.01-3.29,1.09-4.98,1.2c-10.16,0.67-20.33,0.86-30.51,0.66c-1.54-0.03-3.07-0.32-4.54-0.81
		c-14.12-5.65-27.44-12.85-40.64-20.35c-3.81-2.16-6.04-4.92-7.52-8.98c-5.21-14.23-8.53-28.89-10.71-43.84
		c-0.32-2.22-0.33-3.23,2.71-2.97c42,3.6,83.75,1.61,125.16-6.4c16.56-3.2,32.38-8.83,47.85-15.49c0.99-0.43,1.99-0.84,3.34-1.41
		c-0.17,2.29-0.38,4.3-0.46,6.33c-0.34,8.58,0.05,17.08,3.13,25.25c0.19,0.49,0.11,1.08,0.16,1.62c0.47,6.56-1.53,12.4-5.18,17.74
		C422.65,518.23,421.51,519.63,419.41,518.88z"/>
	<path class="st5" d="M681.1,429.24c-1.14,3.89-0.62,7.94-1,11.9c-2.21,22.73-9.01,43.65-23.64,61.53
		c-9.37,11.45-20.78,20.5-33.73,27.63c-7.17,3.95-14.41,7.72-22.14,10.47c-0.6,0.21-1.2,0.41-1.79,0.64
		c-0.68,0.26-1.53,0.73-2.02,0.1c-0.6-0.78,0.4-1.24,0.83-1.75c2.29-2.71,4.17-5.68,6.24-9.56c-6.89,5.11-14.1,7.71-21.58,9.97
		c1.62-1.88,3.28-3.75,4.85-5.67c7.62-9.28,12.42-19.99,15.85-31.38c2.93-9.73,4.99-19.66,6.41-29.7
		c0.89-6.27,1.25-12.61,1.75-18.93c0.1-1.3,0.11-2.37,1.77-2.38c6.1,0.36,12.17,0.35,18.09-1.53c11.12-3.55,17.19-11.31,18.93-22.66
		c0.68-4.45,0.76-8.93-0.61-13.24c-1.98-6.26-5.83-11.05-12.44-12.58c-6.04-1.39-11.3,0.69-15.49,5.27
		c-2.88,3.15-3.87,8.31-2.3,11.49c0.49-0.01,0.59-0.34,0.57-0.72c-0.29-6,2.77-10.92,8.32-13.41c5.25-2.35,10.76-1.26,15.01,2.98
		c5.53,5.52,6.12,12.44,5.05,19.55c-2.23,14.77-11.96,22.73-27.96,23.15c-3.52,0.09-7.09,0.12-10.52-1
		c-6.14-1.81-10.25-6.26-13.44-11.34c-5.33-8.49-6.91-17.87-6.11-27.95c0.86-10.82,4.82-20.21,10.84-28.98
		c1.39-2.04,2.97-3.88,4.77-5.55c8.74-4.88,18.29-5.76,27.96-4.98c23,1.86,38.81,18.55,44.7,41.23
		C679.75,417.54,681.23,423.26,681.1,429.24z"/>
	<path class="st3" d="M249.54,360.44c-8.23,30.1-8.63,60.86-7.78,91.73c0.29,10.54,1.07,21.07,2.3,31.55
		c0.27,2.29-0.02,3.17-2.7,2.87c-25.49-2.88-50.15-9.28-74.45-17.28c-1.35-0.44-1.82-1.12-2.01-2.47
		c-2.59-18.81-2.8-37.71-2.13-56.64c0.03-0.84,0.1-1.53,0.9-2.1c10.06-7.13,15.76-17.45,20.36-28.43
		c7.26-17.31,10.24-35.54,10.89-54.22c0.01-0.45,0.07-0.9,0.11-1.49c1.58,0.21,2.98,0.73,4.33,1.41c1.49,0.93,2.39,2.4,3.42,3.76
		c9.54,12.61,21.74,21.67,36.59,27.13c2.38,0.88,4.75,1.78,7.21,2.42C247.73,358.98,248.91,359.28,249.54,360.44z"/>
	<path class="st1" d="M84.02,360.5c-12.55-10.19-23.74-21.64-32.91-35.35c4.75-1.17,9.38-1.5,13.79-2.88
		c3.39-1.06,6.75-2.18,9.83-3.98c0.85-0.5,1.98-0.83,2.03-2c0.06-1.33-1.12-1.78-2.07-2.27c-10.3-5.22-20.48-10.68-31.09-15.24
		c-1.72-0.74-2.23-1.62-2.25-3.41c-0.07-7.45,0.98-14.68,3.77-21.61c0.19-0.48,0.27-1.09,0.83-1.24
		c3.24,10.25,10.43,16.69,19.99,20.83c2.67,1.16,5.5,1.88,8.36,2.44c3,0.59,3.97-0.3,3.33-3.24c-2.18-10.03-4.34-20.06-6.74-30.04
		c-0.58-2.43,0.17-2.57,2.2-2.65c11.94-0.45,23.48,2.27,35.13,4.19c7.01,1.15,13.8,3.18,20.56,5.31c1.11,0.35,2.14,0.65,2.75,1.93
		c8.74,18.19,22.77,31.31,39.92,41.39c6.28,3.69,12.93,6.66,19.64,9.46c1.13,0.47,2.1,0.78,2.04,2.4
		c-0.7,17.36-3.23,34.37-9.36,50.72c-0.48,1.28-1,2.54-1.51,3.8c-0.4,1.91-1.48,1.51-2.55,0.68c-2.01-1.56-3.96-3.21-5.9-4.86
		c-14.22-12.1-31.14-17.76-49.19-20.74c-9.77-1.61-19.55-1.58-29.34-0.08c-3.68,0.56-6.74,2.1-8.93,5.2
		C85.8,360.01,85.36,361.16,84.02,360.5z"/>
	<path class="st6" d="M355.13,384.42c-5.45-10.12-9.05-20.81-9.85-32.33c-0.5-7.31,1.57-14.02,5.32-20.24
		c5.69-9.44,12.04-18.38,19-26.95c9.35-11.5,18.1-23.48,27.81-34.7c0.83-0.96,1.64-1.93,2.4-2.83c6.32,9.09,15.19,13.53,25.8,14.97
		c1.17,0.16,2.34,0.33,3.51,0.47c3.25,0.37,4.09-0.52,3.25-3.62c-0.57-2.1-1.24-4.19-2-6.22c-3.06-8.16-5.61-16.53-9.87-24.19
		c-0.63-1.14-0.17-1.62,0.6-2.22c5.3-4.12,11.25-6.98,17.52-9.28c1.72-0.63,1.56,0.39,1.52,1.45c-0.17,4.54-0.32,9.09-0.5,13.63
		c-0.31,7.57,0.35,15.08,1.14,22.59c0.11,1.08,0.14,2.34,1.25,2.86c1.12,0.52,1.8-0.59,2.54-1.19c8.16-6.58,15.97-13.52,22.46-21.82
		c1.91-2.44,3.75-4.93,5.04-7.76c0.61-1.32,1.14-1.41,2.05-0.24c3.64,4.69,6.84,9.62,8.92,15.24c0.5,1.35,0.47,2.07-1.2,2.06
		c-2.29-0.03-4.21,1-6.02,2.27c-8.49,5.95-16.93,11.98-24.98,18.52c-0.97,0.78-2.28,1.45-1.99,2.99c0.29,1.51,1.72,1.77,2.91,2.12
		c10.82,3.2,21.78,5.03,33.08,3.33c1.67-0.25,2.51-0.17,2.06,1.99c-1.21,5.87-2.01,11.82-3.65,17.6c-1.63,0.7-2-0.84-2.65-1.63
		c-1.39-1.7-2.71-3.44-4.81-4.33c-2.91-1.24-5.74-1.37-8.68,0.08c-8.1,3.97-16,8.32-23.52,13.29
		c-14.06,9.29-28.72,17.56-43.19,26.17c-9.76,5.82-19.49,11.76-28.42,18.86c-5.84,4.64-10.53,10.27-14.25,16.73
		C357.15,383.12,356.8,384.53,355.13,384.42z"/>
	<path class="st4" d="M355.13,384.42c1.82-1.03,2.19-3.08,3.16-4.67c6.28-10.3,15.63-17.2,25.49-23.64
		c12.39-8.09,25.26-15.35,37.99-22.85c8.12-4.78,15.91-10.12,23.92-15.09c7.17-4.45,14.51-8.63,22.16-12.24
		c3.99-1.88,9.56-0.12,12.56,3.89c0.85,1.13,1.4,2.53,2.87,3.08c-3.92,16.57-10.64,32.03-18.58,47.02
		c-9.28,17.51-20.5,33.71-33.12,48.94c-3.43,4.14-7.39,7.76-11.51,11.23c-4.41,3.71-9.39,2.95-14.29,1.87
		C383.32,417.02,366.95,403.75,355.13,384.42z"/>
	<path class="st5" d="M158.36,146.31c-5.42,9.79-9.03,20.23-10.85,31.26c-0.3,1.82-0.98,1.82-2.32,1.15
		c-11.09-5.58-19.06-14.08-23.99-25.46c-0.04-0.08-0.04-0.18-0.07-0.27c-1.45-4.65-1.12-5.22,3.59-4.81
		c3.65,0.31,7.54-0.12,10.7,2.48c0.42,0.34,1.07,0.55,1.44-0.05c0.38-0.61-0.18-1-0.62-1.31c-1.34-0.94-2.72-1.82-4.04-2.78
		c-21.25-15.49-36.4-35.34-43.46-60.94c-0.48-1.74-0.64-3.57-0.87-5.37c-0.18-1.44,0.05-2.7,1.68-3.31c1.45-0.54,2.62-0.7,3.99,0.47
		c3.22,2.74,6.49,5.45,10.26,7.42c0.15-0.17,0.3-0.34,0.45-0.52c-1.42-1.26-2.78-2.59-4.27-3.75c-9.41-7.3-16.86-16.27-22.89-26.49
		c-1.9-3.23-3.44-6.61-4.56-10.18c-1.24-3.95-0.86-4.65,3.26-4.98c10.7-0.86,21.28,0.2,31.7,2.62
		c27.44,6.37,51.47,18.81,70.55,39.95c6.23,6.91,11.83,14.3,16.54,22.34c0.59,1.01,1.42,1.8-0.2,2.84
		c-5.74,3.7-11.15,7.85-16.17,12.83c-10.79-20.82-25.39-37.82-46.34-48.73c-7.13-3.71-14.8-5.74-22.71-7.04
		c4.17,2.25,8.94,2.94,13.12,5.12c3.98,2.31,6.49,6.02,9.08,9.62c6.43,8.96,11.71,18.56,16.03,28.71c2.78,6.54,3.94,13.39,4,20.43
		c0.06,6.07,1.85,11.4,5.93,15.94C158.03,144.28,158.93,145.03,158.36,146.31z"/>
	<path class="st6" d="M163.81,657.45c-5.78,1.17-11.58,2.28-17.34,3.54c-2.12,0.47-1.83-0.45-1.45-1.83
		c2.1-7.49,5.41-14.46,9.04-21.3c0.21-0.4,0.47-0.78,0.7-1.17c0.27-0.48,0.6-1.06,0.02-1.45c-0.53-0.36-1.03,0.02-1.37,0.49
		c-0.47,0.67-0.94,1.34-1.34,2.06c-2.17,3.89-4.19,7.87-5.83,12.01c-0.5,1.25-1.16,1.79-2.5,1.99c-6.04,0.89-12.1,1.36-18.2,1.5
		c-2.21,0.05-2.46-0.5-1.51-2.4c6.28-12.48,15.06-22.71,27-30.06c2.08-1.28,2.47-2.56,2.17-4.85c-2.27-16.88-0.69-33.56,2.92-50.11
		c3.54-16.24,10.19-31.04,20.32-44.24c2.04-2.66,2.01-2.63,3.69,0.27c8.29,14.23,18.33,27.11,30.03,38.71
		c1.16,1.15,2.27,2.35,3.4,3.53c1.34,4.27,0.92,8.67,0.41,12.95c-2.48,20.55-11.85,38.15-23.9,54.53
		c-5.67,7.71-12.03,14.79-19.38,20.97C168.51,654.41,166.31,656.13,163.81,657.45z"/>
	<path class="st1" d="M385.45,529.1c0.94,0.65,0.6,1.31,0.11,2.09c-4.17,6.7-5.73,14.14-6.6,21.88c-1.5,13.35-0.24,26.34,4.37,38.96
		c2.59,7.09,6.03,13.78,9.64,20.4c7.37,13.51,13.5,27.51,16.06,42.83c1.12,6.68,2.53,13.33,2.26,20.18
		c-0.07,1.76-0.26,3.43-1.11,4.98c-8.75,2.05-17.51,4.04-26.25,6.17c-2.09,0.51-2.78-0.03-2.72-2.15c0.09-2.99-0.16-6-0.06-9
		c0.17-5.65-1.29-10.65-4.69-15.28c-6.46-8.81-13.14-17.42-20.67-25.35c-4.01-4.22-7.69-8.77-11.93-12.73
		c-4.92-4.59-6.66-10.19-6.81-16.6c-0.39-16.15,4.22-30.82,13.14-44.18C359.29,547.67,370.83,536.69,385.45,529.1z"/>
	<path class="st4" d="M163.81,657.45c5.13-4.59,10.66-8.72,15.35-13.81c8.46-9.18,15.79-19.15,21.73-30.13
		c4.2-7.76,7.8-15.74,10.05-24.32c2.15-8.23,2.96-16.56,2.62-25.03c9.99,8.91,20.27,17.4,31.84,24.26
		c10.2,6.04,20.83,11.15,31.76,15.69c0.98,0.41,1.95,0.85,3.07,1.34c-0.32,0.46-0.47,0.8-0.72,1.02
		c-9.94,8.54-13.38,20.23-15.75,32.44c-0.99,5.09-1.55,10.24-2.02,15.39c-0.18,1.99-1.07,2.48-2.85,2.84
		c-9,1.79-17.94,0.47-26.88-0.39c-17.32-1.65-34.67-2.33-52.05-1.69C174.55,655.25,169.19,656.62,163.81,657.45z"/>
	<path class="st3" d="M200.97,547.8c-19.07-22.17-32.61-46.89-35.12-76.63c9.08,2.66,18.19,5.39,27.35,7.98
		c15.77,4.46,31.82,7.5,48.12,9.19c2.24,0.23,3.39,0.8,3.72,3.37c2.16,17,6,33.61,12.7,49.45c0.46,1.09,0.26,1.77-0.54,2.61
		c-3.33,3.48-6.58,7.04-9.86,10.57c-1.52,1.09-2.98,0.28-4.4-0.21c-7.91-2.7-15.95-4.91-24.22-6.19c-4.6-0.71-9.21-0.75-13.8,0.15
		C203.56,548.36,202.22,548.72,200.97,547.8z"/>
	<path class="st4" d="M373.05,243.03c-0.35-7.64-2.38-14.96-4.29-22.31c-2.33-8.93-6.5-17.12-10.59-25.29
		c-5.11-10.24-8.7-20.84-9.81-32.27c-0.16-1.61-0.55-3.21-0.43-4.85c4.77,7.12,9.73,14.1,16.79,19.19
		c11.13,8.02,23.12,14.44,36.24,18.59c1.65,0.52,2.5,1.24,2.88,3.04c1.05,5.08,1.82,10.17,1.98,15.38
		c0.34,11.19,0.55,22.36-1.69,33.41c-0.4,1.97-0.85,3.81-2.22,5.44c-2.35,2.79-2.78,6.26-2.7,9.77c0.03,1.24-0.15,2.2-1.02,3.2
		c-11.03,12.6-21.05,26.02-31.45,39.13c-1.9,2.39-4.11,4.26-6.71,5.87c-16.53,10.23-34.76,15.46-53.75,18.51
		c-3.22,0.52-6.43,1.19-9.73,1.1c5.1-1.5,10.34-2.45,15.36-4.27c14.94-5.42,28.97-12.41,41.54-22.29
		c10.51-8.26,15.85-19.28,18.48-32c0.88-4.29,1.3-8.6,1.08-12.97c-0.28-0.37-0.49-0.82-0.38-1.25c1.26-4.75-0.27-9.63,0.65-14.39
		C373.33,243.5,373.17,243.26,373.05,243.03z"/>
	<path class="st7" d="M439.71,522.12c-2.74-7.11-5.57-14.19-8.21-21.34c-5.83-15.76-5.04-31.76-1.35-47.79
		c2.92-12.67,5.29-25.42,7.04-38.3c0.11-0.81,0.32-1.65,0.21-2.44c-0.78-5.64,1.52-9.98,5.01-14.26
		c7.47-9.16,13.86-19.11,19.78-29.68c4.18,4.75,6.29,10.19,7.49,16.08c1.58,7.7,1.33,15.29-0.36,22.98
		c-2.08,9.49-5.17,18.73-6.76,28.33c-2.36,14.25-2.84,28.56-1.14,42.93c0.1,0.81,0.08,1.63,0.12,2.45
		c0.62,4.78-0.32,9.34-1.95,13.81c-3.42,9.37-7.97,18.07-15.08,25.21C443.29,521.34,442.04,523.19,439.71,522.12z"/>
	<path class="st8" d="M297.67,564.15c13.09,5.6,26.19,11.2,39.51,16.26c1.87,0.71,1.07,1.8,0.78,2.8c-2.32,7.93-3.33,16-2.63,24.25
		c0.17,1.99,0.32,4.01,0.85,5.92c0.54,1.94-0.01,2.35-1.85,2.21c-13.44-1.04-26.73-2.94-39.58-7.12
		c-21.62-7.04-42.06-16.55-60.67-29.77c-1.77-1.26-2.18-2.05-0.68-3.92c5.34-6.66,10.38-13.55,16.19-19.82
		c5.29,1.29,10.46,3.03,15.81,4.07C276.1,561.11,286.84,562.95,297.67,564.15z"/>
	<path class="st9" d="M505.78,405.73c2.78,8.17,4.43,16.62,5.86,25.09c1.99,11.75,2.88,23.62,2.63,35.52
		c-0.15,7.34,0.25,14.76-0.95,22.03c-1.07,6.45-3.41,12.6-5.92,18.64c-4.81,11.56-10.6,22.53-19.7,31.41
		c-2.32,2.26-2.34,2.3-3.11-0.77c-2.63-10.57-7.65-20.19-12.16-29.98c-4.28-9.29-7.87-18.73-9.1-28.94
		c-0.18-1.53-0.18-3.08-0.27-4.62c5.51-2.12,10.62-4.96,15.48-8.35c6.73-4.7,11.58-11.01,15.46-18.03
		c6.47-11.68,10.08-24.24,10.5-37.66C504.56,408.53,504.62,406.95,505.78,405.73z"/>
	<path class="st4" d="M84.02,360.5c0.33-0.14,0.83-0.19,0.95-0.44c2.66-5.36,7.64-6.58,12.89-7.22c4.87-0.59,9.77-0.64,14.67-0.61
		c7.85,0.05,15.41,1.83,23.03,3.38c17.12,3.48,31.56,11.95,44.39,23.49c0.94,0.85,1.56,1.09,2.3-0.06c-1.18,3.42-2.9,6.58-4.73,9.68
		c-3.28,5.58-6.85,10.91-11.64,15.38c-2.38,2.22-4.5,2.6-7.57,1.37C132.3,395,108.4,381.02,86.87,363
		C85.9,362.19,84.97,361.33,84.02,360.5z"/>
	<path class="st10" d="M505.78,405.73c-0.9,11.48-2.35,22.81-6.9,33.58c-5.72,13.51-13.88,24.78-27.27,31.63
		c-2.73,1.4-5.26,3.26-8.54,3.15c-0.13-0.52-0.35-1.03-0.37-1.55c-0.67-16.95,0.02-33.74,4.92-50.18
		c2.16-7.28,4.14-14.69,4.82-22.31c1.02-11.53-0.87-22.44-8.32-32.78c2.4,1.18,4.18,1.92,5.82,2.89
		c8.7,5.16,16.93,11.01,24.35,17.89c4.92,4.56,9.67,9.42,11.3,16.33C505.69,404.82,505.72,405.28,505.78,405.73z"/>
	<path class="st11" d="M439.71,522.12c3.29-0.46,5.19-2.99,6.96-5.26c6.71-8.57,11.8-18.02,14.03-28.8
		c0.48-2.29,0.57-4.66,0.84-6.98c2.69,16.69,11.55,31.03,17.65,46.43c7.59,19.16,9.54,38.69,3.03,58.62
		c-1.76,5.39-4.47,10.25-8.29,15.01c-1.45-4.69-2.76-8.97-4.11-13.25c-5.43-17.27-12.73-33.63-23.68-48.18
		c-0.83-1.09-0.88-2.36-1.32-3.54C443.08,531.5,441.41,526.8,439.71,522.12z"/>
	<path class="st8" d="M343.42,346.82c-2.22,0.21-4.09,1.41-6.12,2.16c-12.27,4.57-25,7.28-37.89,9.29
		c-14.22,2.22-28.55,2.3-42.88,2.14c-1.25-0.01-2.5-0.35-3.75-0.54c1.27-2.28,3.63-2.92,5.81-3.73
		c13.14-4.91,25.89-10.68,37.43-18.7c5.09-3.54,10.3-5.75,16.48-6.81c16.28-2.81,31.91-7.78,46.23-16.29
		c0.22-0.13,0.48-0.17,1.26-0.44c-1.79,2.65-3.38,4.88-4.84,7.18c-4.14,6.5-8.85,12.7-10.7,20.4
		C344.03,343.24,343.76,345.04,343.42,346.82z"/>
	<path class="st5" d="M615.59,369.81c-1.4-0.17-1.55-1.13-1.71-2.32c-1.18-8.41-2.58-16.78-5.95-24.65
		c-3.76-8.79-8.76-16.84-14.58-24.4c-0.92-1.19-2.8-1.52-2.98-3.35c5.64-3.19,10.1-7.71,14.04-12.76c0.94-1.21,1.46-1.4,2.69-0.35
		c19.17,16.33,28.79,36.85,27.4,62.22c-0.24,4.35-0.26,4.41-4.54,4.28C625.11,368.35,620.35,369.04,615.59,369.81z"/>
	<path class="st2" d="M158.36,146.31c-0.08-1.24-1.11-1.82-1.83-2.6c-3.56-3.91-5.83-8.62-5.7-13.77
		c0.35-13.53-4.66-25.31-10.99-36.74c-4.89-8.82-10.38-17.22-17.56-24.4c8.16,2.58,15.36,6.94,22.11,12.08
		c13.41,10.2,23.57,23.1,31.32,37.98c0.69,1.33,0.9,2.3-0.34,3.58C168.47,129.51,162.97,137.59,158.36,146.31z"/>
	<path class="st7" d="M442.91,275.63c-0.9-6.32-1.41-12.12-1.41-17.92c0-6.46,0.39-12.91,0.49-19.37c0.03-2.21,0.85-3.8,2.63-5.04
		c8.16-5.65,20.7-6.07,26.44,6.13c0.91,1.94,0.91,3.67-0.06,5.69c-2.37,4.9-5.77,9.02-9.3,13.07c-3.17,3.64-6.63,7-10.27,10.17
		C448.76,270.67,446.06,272.94,442.91,275.63z"/>
	<path class="st7" d="M463.03,290.62c-4.09-0.4-7.98-1.57-12.06-2.94c2-2.43,4.45-4.04,6.75-5.76c5.89-4.42,11.98-8.58,17.81-13.09
		c4.33-3.35,8.93-4,13.42-1.23c4.64,2.86,6.12,7.69,5.77,13.02c-0.07,1.15-0.26,2.35-0.94,3.37c-0.69,1.24-1.78,1.98-3.01,2.63
		c-7.37,3.84-15.25,4.96-23.43,4.31C465.9,290.83,464.43,291.07,463.03,290.62z"/>
	<path class="st8" d="M200.97,547.8c2.77-0.37,5.52-0.92,8.3-1.07c10.78-0.56,20.89,2.63,31.03,5.69c2.32,0.7,4.5,1.97,7.03,1.91
		c-5.25,6.58-10.49,13.16-15.75,19.74c-0.62,0.78-0.98,1.95-2.45,0.79C218.86,566.76,209.36,557.86,200.97,547.8z"/>
	<path class="st10" d="M502.13,393.23c-10.86-11.49-22.79-20.44-36.3-27.28c-1.12-0.57-1.82-0.92-1-2.36
		c4.15-7.26,7.77-14.79,11.23-22.94C487.67,356.78,495.68,374.27,502.13,393.23z"/>
	<path class="st7" d="M61.04,259.36c0.36,0,0.73-0.02,1.09,0c5.52,0.3,6.44,1.04,7.62,6.28c1.95,8.67,3.79,17.37,5.85,26.01
		c0.54,2.29-0.17,2.43-2.06,2.05c-9.14-1.84-16.38-6.66-22.08-13.92c-5.43-6.91-3.28-13.28,2.26-18.15
		C55.9,259.71,57.84,259.27,61.04,259.36z"/>
	<path class="st7" d="M430.79,280.79c-9.47-0.1-17.46-3.05-24.49-8.75c-4.29-3.48-6.06-7.8-4.84-13.24
		c1.09-4.84,4.39-7.85,8.84-9.16c8.37-2.47,7.78-2.41,10.93,4.87c3.31,7.66,6.3,15.47,8.76,23.46
		C430.26,278.83,430.49,279.7,430.79,280.79z"/>
	<path class="st2" d="M605.61,375.59c-0.57,1.9-2.16,3.09-3.26,4.63c-6.45,9.11-10.83,18.86-11.62,30.29
		c-0.7,10.17,0.94,19.53,6.5,28.02c3.06,4.68,7.35,8.22,12.32,10.87c-13.54-1.22-25.69-13.06-27.77-27.06
		c-2.74-18.4,5.81-36.3,21.88-45.81C604.28,376.17,604.96,375.9,605.61,375.59z"/>
	<path class="st7" d="M74.53,316.12c-5.9,3.53-11.96,4.97-18.14,6.05c-1.52,0.27-3.05,0.46-4.58,0.71
		c-6.02,0.99-11.49-2.47-13.15-8.33c-1.15-4.06-0.98-8.1,0.26-12.09c0.8-2.56,1.75-2.95,4.21-1.86
		C53.67,305.29,63.89,310.62,74.53,316.12z"/>
	<path class="st8" d="M249.54,360.44c-6.87-2.28-13.71-4.57-20.19-7.88c-11.52-5.9-20.78-14.32-28.32-24.74
		c-0.58-0.8-1.1-1.64-1.65-2.46c6.83,2.11,13.68,4.18,20.71,5.57c1.11,0.22,1.72,0.88,2.32,1.71c6.46,9.01,14.66,16.28,23.21,23.21
		C247.18,357.12,249.23,358.06,249.54,360.44z"/>
	<path class="st9" d="M488.31,564.11c-0.32-6.89-0.6-13.41-2.14-19.78c-0.23-0.96,0-1.76,0.76-2.46
		c11.9-10.94,18.89-24.9,24.43-39.76c0.18-0.49,0.44-0.95,0.79-1.67C512.43,517.36,499.47,552.05,488.31,564.11z"/>
	<path class="st3" d="M297.67,564.15c-2.18,1.62-4.46,0.23-6.55-0.06c-13.23-1.86-26.48-3.75-39.29-7.8
		c-0.83-0.26-1.84-0.31-2.25-1.33c3.05-3.35,6.12-6.67,9.12-10.05c0.77-0.86,1.39-0.83,2.31-0.27
		C272.86,551.85,285.12,558.28,297.67,564.15z"/>
	<path class="st8" d="M305.77,565.32c6.7-0.01,13.39,0.1,20.09-0.08c6.66-0.17,13.3-0.64,19.95-0.98c-2.33,4.3-4.46,8.7-6.06,13.33
		c-0.35,1.01-0.68,1.56-1.91,1.05C327.12,574.29,316.22,570.35,305.77,565.32z"/>
	<path class="st12" d="M430.3,442.93c-2.23-5.04-4.39-10.12-7.35-14.8c-1.11-1.75-2.38-3.39-3.58-5.07
		c5.92-4.48,11.09-9.77,16.13-15.31C435.06,419.74,432.75,431.35,430.3,442.93z"/>
	<path class="st12" d="M419.41,518.88c1.84,0.11,2.77-1.24,3.66-2.47c2.97-4.14,4.49-8.86,5.07-13.88c0.14-1.18,0.37-2.32,0.65-3.46
		c4.13,11.69,9.15,23.04,12.85,35C435.55,527,428.17,521.92,419.41,518.88z"/>
	<path class="st13" d="M463.03,290.62c6.41,0.02,12.8-0.11,19.11-1.58c4.21-0.98,8-2.8,11.63-5.04c-0.85,3.44-2.45,6.11-6.28,6.95
		C479.29,292.74,471.15,292.36,463.03,290.62z"/>
	<path class="st14" d="M342.32,221.8c-0.96,3.91-0.26,7.93-0.86,11.88c-0.62,4.04-1.44,8.01-2.55,11.94
		c-0.37,1.32-1.13,2.16-2.31,2.84c-4.28,2.46-9.01,3.26-13.79,3.81c-5.13,0.59-10.27,1.2-15.42,1.45c-3.97,0.19-7.97-0.21-11.9-0.95
		c-1.46-0.28-2.22-1.36-2.87-2.65c-3.75-7.48-5.45-15.5-6.46-23.71c-0.79-6.42-0.7-12.86-0.56-19.31c0.01-0.7,0.4-1.2,0.89-1.62
		c0.48-0.41,0.98-0.92,1.68-0.65c0.69,0.27,0.77,0.98,0.82,1.6c0.2,2.72,0.02,5.45,0.11,8.18c0.23,7.12,1.13,14.13,3.61,20.86
		c1.37,3.72,3.29,7.06,6.27,9.77c3.75,3.41,7.62,3.26,10.91-0.61c3.07-3.61,5.04-7.8,5.98-12.41c3.14-15.42,2.81-30.55-4.12-45.04
		c-0.95-1.99-0.54-3.47,1.05-4.81c5.41-4.58,10.65-9.36,16.08-13.91c1.96-1.64,3.08-1.44,4.4,0.73c1.57,2.57,2.73,5.34,3.66,8.2
		c3.23,9.89,5.53,19.96,5.7,30.43c0.08,2.36-0.29,4.75,0.41,7.08C343.06,217.21,343.99,219.64,342.32,221.8z"/>
	<path class="st15" d="M341.99,207.6c-0.87-14.08-3.46-27.69-10.61-40.42c-6.62,5.78-12.97,11.35-19.35,16.87
		c-0.94,0.81-0.36,1.41-0.01,2.11c7.85,15.57,8.05,31.8,4.04,48.34c-0.9,3.74-2.8,7.09-5.13,10.15c-3.53,4.65-8.34,5.02-12.66,1.05
		c-4.86-4.48-6.81-10.43-8.23-16.58c-1.81-7.85-1.86-15.86-1.61-24.11c-1.28,0.42-1.96,1.37-2.82,2.07
		c-3.38,2.75-6.76,5.52-10.16,8.25c-0.59,0.47-1.32,1.49-2.03,0.56c-0.67-0.88,0.49-1.4,1.05-1.88
		c18.2-15.79,36.42-31.57,54.64-47.34c3.09-2.68,6.17-5.38,9.28-8.04c0.5-0.43,1.1-1.29,1.83-0.53c0.76,0.8-0.18,1.3-0.67,1.74
		c-1.6,1.49-3.21,2.96-4.89,4.35c-0.88,0.73-0.91,1.3-0.29,2.27c6.68,10.45,8.62,22.29,9.56,34.3c0.64,8.24,0.49,16.54-0.44,24.79
		c-0.05,0.43,0.04,0.92-0.62,1.32c-1.06-1.62-0.01-3.47-0.54-5.08c0-2.43,0-4.86,0-7.29C341.86,212.22,342.48,209.88,341.99,207.6z"
		/>
	<path class="st14" d="M189.42,213.64c0.19,8.89-0.07,17.76-2.1,26.47c-1.55,6.65-2.51,7.29-9.24,7.29c-7.12,0-13.53-2.1-19.3-6.28
		c-1.3-0.94-1.85-2.05-2.1-3.59c-0.57-3.6-0.48-7.22-0.62-10.83c-1.15-2.24-0.71-4.66-0.6-6.97c0.41-8.64,1.25-17.21,3.77-25.55
		c1.25-4.12,2.89-8.05,5.08-11.73c1.41-2.36,2.36-2.34,4.01-0.07c1.55,2.13,2.96,4.36,4.4,6.58c0.98,1.51,1.09,3.05,0.24,4.65
		c-3.94,7.36-4.8,15.47-4.96,23.55c-0.13,6.61,0.79,13.25,2.75,19.65c0.68,2.23,1.93,4.11,3.71,5.62c2.53,2.15,5.09,1.91,7.04-0.78
		c1.35-1.85,2.21-3.97,2.78-6.19c1.51-5.84,2.46-11.74,2.26-17.8c-0.04-1.18-0.07-2.37,0.04-3.54c0.08-0.87-0.02-2.09,1.11-2.21
		C188.65,211.78,189.31,212.58,189.42,213.64z"/>
	<path class="st16" d="M356.52,276.87c-2.91,5.49-7.09,8.46-12.54,9.74c-1.32,0.31-2.73,0.67-4.04,0.52
		c-2.84-0.33-3.9,0.84-4.45,3.56c-0.83,4.08-2.04,8.12-4.03,11.83c-1.26,2.35-2.51,2.37-3.92,0.07c-1.23-2.02-2.38-4.09-3.46-6.19
		c-0.62-1.2-1.16-1.51-2.46-0.71c-19.61,12.03-41.29,17.08-63.93,19.01c-15.67,1.33-31.27,1.01-46.67-2.34
		c-10.48-2.28-20.2-6.62-29.21-12.42c-1.93-1.24-2.49-0.79-3.11,1.12c-0.45,1.38-0.42,3.47-2.24,3.73
		c-2.03,0.29-2.44-1.88-3.28-3.18c-1.87-2.91-3.51-5.97-4.58-9.27c-0.84-2.6-2.45-4.06-5.14-4.63c-5.98-1.26-9.3-5.32-11.02-10.92
		c-0.15-0.5-0.36-1.05,0.2-1.55c1.32,0.24,1.4,1.54,1.81,2.43c2.23,4.82,5.89,7.49,11.12,8.66c9.3,2.08,18.66,4.04,27.41,8.03
		c4.64,2.12,9.22,4.44,13.32,7.43c4.03,2.94,7.74,2.55,11.93,0.58c7.49-3.52,15.26-6.4,23.34-8.28c11.52-2.68,23.24-4.25,34.97-5.58
		c15.63-1.77,31.28-3.38,47.03-3.57c5.18-0.06,10.37,0.25,15.55,0.23c6.27-0.01,11.5-2.35,15.41-7.37c0.22-0.28,0.5-0.53,0.78-0.74
		C355.46,276.97,355.67,277,356.52,276.87z"/>
	<path class="st15" d="M189.42,213.64c-0.64-0.54-1.29-1.08-2.26-1.89c0.85,7.51-0.06,14.5-1.5,21.43
		c-0.57,2.76-1.38,5.48-2.79,7.93c-2.66,4.62-6.64,4.92-10.1,0.89c-2.15-2.51-3.08-5.49-3.73-8.64
		c-2.24-10.73-2.41-21.44,0.17-32.14c0.71-2.94,1.97-5.64,3.3-8.32c0.45-0.9,0.91-1.67,0.15-2.74c-2.14-3.03-4.16-6.16-6.41-9.53
		c-8.96,14.35-9.87,30.15-10.19,46.08c-0.19,0.41-0.38,0.81-0.62,1.33c-0.19-0.2-0.47-0.35-0.48-0.51
		c-0.76-13.53-0.24-26.91,4.51-39.81c1.1-2.99,2.31-5.96,4.48-8.37c0.79-0.88,0.6-1.51,0.06-2.38c-1.22-1.92-2.35-3.89-3.5-5.85
		c-0.31-0.53-0.9-1.2-0.22-1.68c0.87-0.62,1.26,0.31,1.63,0.88c1,1.52,1.93,3.08,2.94,4.59c8.01,11.93,16.04,23.85,24.01,35.8
		C189.43,211.52,190.97,212.36,189.42,213.64z"/>
	<path class="st17" d="M373.05,243.03c1.16,5.47,1.43,10.93-0.04,16.39c-5.49,1.46-10.89,3.38-16.55,4.09
		c-4.59,0.58-9.25,0.72-13.76-0.51c-4.34-1.18-5.03-4.32-1.91-7.69c5.09-5.51,11.77-7.92,18.82-9.53c3.71-0.85,7.48-1.33,11.3-1.12
		C372.08,244.73,373.15,244.65,373.05,243.03z"/>
	<path class="st17" d="M141.65,247.39c6.39-0.07,11.52,2.69,15.89,7.11c2.16,2.19,1.77,4.55-1.14,5.41
		c-7.39,2.18-14.34,1.09-20.5-3.64c-1.92-1.47-3.16-3.58-2.17-6.2c0.96-2.54,3.35-2.4,5.46-2.66
		C140,247.3,140.83,247.39,141.65,247.39z"/>
	<path class="st18" d="M219.67,286.61c2.1-3.69,5.65-5.36,9.31-6.87c0.53-0.22,1.1-0.21,1.38,0.41c0.28,0.62-0.1,1.08-0.62,1.3
		C226.27,282.91,223,284.74,219.67,286.61z"/>
	<path class="st19" d="M201.99,286.79c-2.39-2.14-4.78-4.28-7.16-6.43c-0.43-0.39-0.67-0.91-0.18-1.41
		c0.52-0.53,1.03-0.13,1.44,0.19c2.56,2,4.83,4.26,6.48,7.05C202.37,286.39,202.18,286.59,201.99,286.79z"/>
	<path class="st20" d="M265.84,209.65c-0.11-1.61,0.48-3.52,1.21-5.38c0.19-0.49,0.42-1.13,1.11-0.91c0.68,0.21,0.5,0.88,0.39,1.39
		c-0.44,2.13-0.95,4.24-0.99,6.43c-0.02,0.77,0.13,1.89-1.05,1.79c-0.99-0.09-0.58-1.14-0.66-1.8
		C265.8,210.81,265.84,210.44,265.84,209.65z"/>
	<path class="st2" d="M429.1,49.22c1.66-0.12,1.11,0.61,0.56,1.4c-7.63,10.91-13.6,22.78-19.21,34.78
		c-6.45,13.81-12.11,28-15.25,42.98c-1.63,7.77-2.36,15.73-3.62,23.59c-1.03,6.47-5.69,9.44-11.99,8.05
		c-6.94-1.53-10.12-6.88-13.02-12.54c-0.53-1.03-0.57-2.33-1.84-2.87c-1.99-7.4-1.61-14.72,0.6-22.01
		c3.17-10.42,8.74-19.56,15.01-28.32c5.88-8.22,12.08-16.2,19.29-23.29c8.2-8.05,17.21-15.11,27.2-20.86
		C427.55,49.73,428.29,49.38,429.1,49.22z"/>
	<path class="st21" d="M429.1,49.22c-1.9,1.87-4.35,2.93-6.55,4.35c-21.82,13.98-37.91,33.25-50.65,55.46
		c-5.25,9.15-8.67,19.02-7.67,29.92c0.17,1.89,0.92,3.73,0.5,5.67c-1.61-0.03-1.19-1.46-1.35-2.25c-1.53-7.74-1.02-15.32,1.66-22.81
		c4.57-12.79,12.3-23.66,20.49-34.24c11.25-14.54,24.34-27,40.77-35.62C427.12,49.27,427.94,47.95,429.1,49.22z"/>
	<path class="st22" d="M87.91,303.49c-1.9,0-3.81,0.05-5.71-0.02c-1.05-0.04-2.35,0.14-2.92-1.01c-0.6-1.21,0.44-2.05,1.12-2.84
		c4.24-4.97,8.53-9.91,12.79-14.87c2.31-2.69,4.59-5.38,7.06-7.93c5.91-6.09,13.93-2.47,17,2.91c2.7,4.73,2.81,9.87,2.19,15.09
		c-0.18,1.52-1.37,2.21-2.64,2.86c-5.75,2.95-11.91,4.32-18.29,4.86c-3.53,0.3-7.06,0.57-10.59,0.85
		C87.91,303.42,87.91,303.46,87.91,303.49z"/>
	<path class="st1" d="M341.99,207.6c0.62,2.28,0.51,4.59,0.34,6.91C341.71,212.23,341.82,209.92,341.99,207.6z"/>
	<path class="st9" d="M296.94,217.7c0.47,2.88,0.85,5.37,1.28,7.85c0.5,2.91,1.64,5.53,3.54,7.84c2.03,2.46,3.73,2.51,5.69-0.01
		c2.04-2.64,2.33-5.84,2.72-8.99c0.32-2.57,0.52-5.16,0.81-8.13c2.58,1.71,5.32,3.19,5.15,6.37c-0.4,7.41-1.95,14.58-6.56,20.69
		c-2.72,3.61-6.27,4.18-9.34,1.5c-1.35-1.19-2.65-2.53-3.63-4.03c-2.57-3.92-4.06-8.34-4.86-12.9
		C291,223.61,292.94,220.35,296.94,217.7z"/>
	<path class="st14" d="M310.32,193.05c-0.47,5.85-1.59,11.39-6.01,15.67c-3.52,3.4-7.35,2.6-9.24-1.92
		c-1.67-4.02-0.95-7.18,2.28-9.99c3.15-2.74,6.3-5.49,9.46-8.22c1.84-1.59,2.61-1.39,3.2,0.98
		C310.3,190.71,310.23,191.92,310.32,193.05z"/>
	<path class="st23" d="M315.59,296.96c-13.04,6.88-26.82,11.54-41.42,13.75c-12.88,1.95-25.77,3.16-38.83,2.72
		c-17.63-0.6-34.41-4.13-49.7-13.34c-0.39-0.23-0.73-0.52-1.1-0.79c1.73-2.79,4.71-2.24,7.29-2.69c0.67-0.12,1.41,0.14,2.07,0.44
		c4.2,1.78,8.18,4.02,11.86,6.66c4.04,2.89,7.91,2.85,12.25,0.84c8.01-3.72,16.25-6.85,24.89-8.78c4.87-1.09,9.76-2.16,14.75-2.57
		c18.06-1.24,36.1-1.7,54.02,1.57C313.16,295.03,315.15,294.72,315.59,296.96z"/>
	<path class="st24" d="M315.59,296.96c-1.27-1.48-3.13-1.16-4.75-1.48c-16.79-3.31-33.79-2-50.72-2.23
		c-0.82-0.01-1.63-0.04-2.45-0.06c5.74-1.3,11.58-1.91,17.41-2.57c13.58-1.55,27.18-2.97,40.86-3.55c1.99-0.08,3.03,0.42,3.84,2.04
		c0.44,0.89,0.94,1.77,1.53,2.57c0.77,1.05,0.65,1.71-0.54,2.33C319.01,294.93,317.32,295.97,315.59,296.96z"/>
	<path class="st14" d="M320.69,286.87c4.28-0.2,8.15-0.2,12.03,0.16c1.27,0.12,1.8,0.43,1.39,1.81c-1.27,4.34-2.27,8.77-4.58,13.23
		C326.58,296.98,323.75,292.13,320.69,286.87z"/>
	<path class="st25" d="M176.09,302.65c-2.8-4.3-4.99-8.4-6.46-13.22c3.41,0.41,6.39,1.39,9.43,2.13c1.43,0.35,0.78,1.16,0.54,1.83
		C178.5,296.37,177.36,299.32,176.09,302.65z"/>
	<path class="st26" d="M193.91,297.05c-3.27,0.13-6.42,0.77-9.36,2.26c-4.17-2.06-4.42-2.56-3.14-5.34c0.52-1.13,1.13-1.47,2.3-1.08
		C187.19,294.08,190.72,295.16,193.91,297.05z"/>
	<path class="st27" d="M173.35,222.24c-0.16,3.18,0.5,5.9,1.68,8.45c0.56,1.21,1.5,2.5,3.05,2.33c1.36-0.14,1.66-1.54,2.06-2.63
		c0.72-1.96,1.16-4,1.25-6.22c2.55,0.8,3.59,2.33,3.16,4.92c-0.59,3.5-1.45,6.94-2.88,10.18c-1.93,4.39-4.8,4.75-7.74,1.06
		c-3.18-3.99-3.45-8.9-3.91-13.64C169.86,224.98,171.23,223.35,173.35,222.24z"/>
	<path class="st14" d="M175.09,193.89c2.71,3.92,5.14,7.27,7.39,10.73c0.97,1.5-0.06,3.16-0.27,4.71c-0.27,1.97-1.24,3.77-2.32,5.45
		c-1.45,2.24-3.14,2.21-4.54-0.26C171.62,207.97,171.89,201.28,175.09,193.89z"/>
	<path class="st7" d="M81.44,301.39c4.94-5.77,9.6-11.2,14.25-16.64c2.18-2.56,4.24-5.22,6.9-7.33c2.57-2.03,6.33-2.31,9.12-0.62
		c4.84,2.93,7.93,12.63,5.73,17.84c-0.37,0.89-1.15,1.08-1.85,1.45c-5.73,3.06-12,4.09-18.36,4.66
		C92.17,301.19,87.1,301.74,81.44,301.39z"/>
</g>
</svg>
